STARTFONT 2.1
COMMENT This font was automatically resized by bdfresize-1.4
COMMENT   mag_x = 2/5, mag_y = 2/5, blackness = 4
FONT -CBS-Song-Medium-R-Normal-Fantizi-16-160-75-75-C-160-CNS11643.1992-5
SIZE 16 80 80
FONTBOUNDINGBOX 16 16 0 -2
STARTPROPERTIES 23
FONTNAME_REGISTRY ""
FOUNDRY "CBS"
FAMILY_NAME "Song"
WEIGHT_NAME "Medium"
SLANT "R"
SETWIDTH_NAME "Normal"
ADD_STYLE_NAME "Fantizi"
PIXEL_SIZE 16
POINT_SIZE 160
RESOLUTION_X 75
RESOLUTION_Y 75
SPACING "C"
AVERAGE_WIDTH 160
CHARSET_REGISTRY "CNS11643.1992"
CHARSET_ENCODING "5"
COPYRIGHT "March 1994 by Central Bureau of Standards, Ministry of Economy, ROC"
WEIGHT 19329
RESOLUTION 110
X_HEIGHT 34
QUAD_WIDTH 40
DEFAULT_CHAR 32382
FONT_ASCENT 14
FONT_DESCENT 2
ENDPROPERTIES
CHARS 8604
STARTCHAR 2121
ENCODING 8481
SWIDTH 362 0
DWIDTH 16 0
BBX 16 16 0 -2
BITMAP
2000
6000
6000
6000
6000
6000
6004
7FFE
0006
0006
0006
0006
0006
0006
0006
0004
ENDCHAR
STARTCHAR 2122
ENCODING 8482
SWIDTH 362 0
DWIDTH 16 0
BBX 16 16 0 -2
BITMAP
0000
0100
0300
0200
0600
0400
0C00
0800
1800
1000
3000
2000
6000
FFFF
0000
0000
ENDCHAR
STARTCHAR 2123
ENCODING 8483
SWIDTH 362 0
DWIDTH 16 0
BBX 16 16 0 -2
BITMAP
1800
1800
3008
3FFC
0038
0060
01C0
0300
0600
1800
3000
6000
4001
4003
7FFF
0000
ENDCHAR
STARTCHAR 2124
ENCODING 8484
SWIDTH 362 0
DWIDTH 16 0
BBX 16 16 0 -2
BITMAP
0180
0100
0100
0100
0100
0100
0100
0100
0100
0100
0100
0100
0100
0160
01C0
0180
ENDCHAR
STARTCHAR 2125
ENCODING 8485
SWIDTH 362 0
DWIDTH 16 0
BBX 16 16 0 -2
BITMAP
0002
FFFF
0180
0180
0180
0180
0180
3000
2000
2000
2000
2000
2000
3FFE
1FFE
0000
ENDCHAR
STARTCHAR 2126
ENCODING 8486
SWIDTH 362 0
DWIDTH 16 0
BBX 16 16 0 -2
BITMAP
0180
0180
0180
0180
FFFF
0180
0180
0100
0100
0300
0300
0600
0400
0800
3000
E000
ENDCHAR
STARTCHAR 2127
ENCODING 8487
SWIDTH 362 0
DWIDTH 16 0
BBX 16 16 0 -2
BITMAP
001C
1818
1818
1818
1818
1818
1818
1818
1FF8
0018
0018
0018
0018
0018
0078
0030
ENDCHAR
STARTCHAR 2128
ENCODING 8488
SWIDTH 362 0
DWIDTH 16 0
BBX 16 16 0 -2
BITMAP
0180
01C0
0120
0100
0100
0100
0100
0100
0100
0100
0300
0600
1C00
7000
FFFE
4000
ENDCHAR
STARTCHAR 2129
ENCODING 8489
SWIDTH 362 0
DWIDTH 16 0
BBX 16 16 0 -2
BITMAP
0000
2000
3006
2004
2004
2004
2004
2004
2004
2004
2004
2004
2004
3FFC
2004
0000
ENDCHAR
STARTCHAR 212a
ENCODING 8490
SWIDTH 362 0
DWIDTH 16 0
BBX 16 16 0 -2
BITMAP
0018
7FF8
1818
1818
1818
10F0
3070
3004
3FFE
0006
0006
0004
000C
000C
01F8
0030
ENDCHAR
STARTCHAR 212b
ENCODING 8491
SWIDTH 362 0
DWIDTH 16 0
BBX 16 16 0 -2
BITMAP
1830
1830
1830
1830
1832
FFFF
1830
1830
1830
1830
1830
1800
1800
1800
1FFE
0000
ENDCHAR
STARTCHAR 212c
ENCODING 8492
SWIDTH 362 0
DWIDTH 16 0
BBX 16 16 0 -2
BITMAP
0180
4100
610C
610C
610C
610C
610C
610C
650C
797C
7118
2100
0101
0103
01FF
01FE
ENDCHAR
STARTCHAR 212d
ENCODING 8493
SWIDTH 362 0
DWIDTH 16 0
BBX 16 16 0 -2
BITMAP
1010
1FF8
1818
1818
1B18
1998
1898
1818
1818
18F8
1F98
1818
0018
0018
0018
0010
ENDCHAR
STARTCHAR 212e
ENCODING 8494
SWIDTH 362 0
DWIDTH 16 0
BBX 16 16 0 -2
BITMAP
0000
0000
0180
0100
FFFF
0300
0600
0400
0C10
0808
1804
30FE
7F82
2002
0000
0000
ENDCHAR
STARTCHAR 212f
ENCODING 8495
SWIDTH 362 0
DWIDTH 16 0
BBX 16 16 0 -2
BITMAP
0004
7FFC
6180
6180
6180
6180
7FFE
3FFE
0180
0180
0180
0180
0180
0180
0180
0180
ENDCHAR
STARTCHAR 2130
ENCODING 8496
SWIDTH 362 0
DWIDTH 16 0
BBX 16 16 0 -2
BITMAP
0180
0180
7186
6184
6184
6184
6184
6184
6184
7FFC
0180
0180
0181
0181
01FF
00FF
ENDCHAR
STARTCHAR 2131
ENCODING 8497
SWIDTH 362 0
DWIDTH 16 0
BBX 16 16 0 -2
BITMAP
0000
0000
0000
0C00
0C00
0C00
2C18
2C0C
6C06
6C03
CC03
CC08
CC18
0FF8
07F0
0000
ENDCHAR
STARTCHAR 2132
ENCODING 8498
SWIDTH 362 0
DWIDTH 16 0
BBX 16 16 0 -2
BITMAP
00C0
00C0
0080
0C80
0880
1880
1080
308E
608C
C098
0090
0020
00C0
0180
0600
7800
ENDCHAR
STARTCHAR 2133
ENCODING 8499
SWIDTH 362 0
DWIDTH 16 0
BBX 16 16 0 -2
BITMAP
0018
01FC
3F00
3000
3000
3000
3004
3FFE
3000
3000
3000
3000
3000
3000
3003
0000
ENDCHAR
STARTCHAR 2134
ENCODING 8500
SWIDTH 362 0
DWIDTH 16 0
BBX 16 16 0 -2
BITMAP
0060
0040
7E40
1840
1840
1840
1840
1840
1840
1840
1A40
FC40
E041
0041
007F
007F
ENDCHAR
STARTCHAR 2135
ENCODING 8501
SWIDTH 362 0
DWIDTH 16 0
BBX 16 16 0 -2
BITMAP
0300
0180
03C0
0660
0C38
199F
3187
C180
0180
7FFF
0180
0180
0180
0180
0180
0100
ENDCHAR
STARTCHAR 2136
ENCODING 8502
SWIDTH 362 0
DWIDTH 16 0
BBX 16 16 0 -2
BITMAP
2040
3020
1020
1830
1830
1830
1C30
1C38
1438
3668
366C
224C
63C6
43C6
C183
8303
ENDCHAR
STARTCHAR 2137
ENCODING 8503
SWIDTH 362 0
DWIDTH 16 0
BBX 16 16 0 -2
BITMAP
1820
1010
11D0
1198
5198
D188
D188
9188
118C
110C
1104
1306
1306
1206
1603
1C01
ENDCHAR
STARTCHAR 2138
ENCODING 8504
SWIDTH 362 0
DWIDTH 16 0
BBX 16 16 0 -2
BITMAP
0002
7FFF
C202
8100
0180
0080
01C0
01C0
0360
0320
0630
0410
0C18
180E
3007
C003
ENDCHAR
STARTCHAR 2139
ENCODING 8505
SWIDTH 362 0
DWIDTH 16 0
BBX 16 16 0 -2
BITMAP
0018
3FF8
0030
0040
6187
4186
4186
4186
4186
4186
4186
4186
4786
4306
C006
4006
ENDCHAR
STARTCHAR 213a
ENCODING 8506
SWIDTH 362 0
DWIDTH 16 0
BBX 16 16 0 -2
BITMAP
0003
0003
0332
0032
0032
0032
0032
0032
0032
0032
0032
0032
0182
0002
001E
0006
ENDCHAR
STARTCHAR 213b
ENCODING 8507
SWIDTH 362 0
DWIDTH 16 0
BBX 16 16 0 -2
BITMAP
0C00
CDFF
CC63
CC62
CC62
CC62
CC62
CC62
CC62
CC42
FCC2
0CC2
0C86
0D86
0D7C
0E18
ENDCHAR
STARTCHAR 213c
ENCODING 8508
SWIDTH 362 0
DWIDTH 16 0
BBX 16 16 0 -2
BITMAP
0C30
CC30
CC20
CC22
CDFF
CC23
CC22
CC22
CC62
CC62
FC62
0C42
0CC2
0C86
0D3C
0E08
ENDCHAR
STARTCHAR 213d
ENCODING 8509
SWIDTH 362 0
DWIDTH 16 0
BBX 16 16 0 -2
BITMAP
3000
3002
3FFF
2303
6302
4302
833A
0302
0302
0302
0202
0602
0406
0C06
187C
0018
ENDCHAR
STARTCHAR 213e
ENCODING 8510
SWIDTH 362 0
DWIDTH 16 0
BBX 16 16 0 -2
BITMAP
7006
677E
6646
6646
6646
6646
6646
6646
4646
5E46
E646
C64E
0C40
0840
1040
6040
ENDCHAR
STARTCHAR 213f
ENCODING 8511
SWIDTH 362 0
DWIDTH 16 0
BBX 16 16 0 -2
BITMAP
4002
7FFF
6000
6600
6400
6400
643C
65E0
6600
6400
6400
4400
4402
C402
87FE
8000
ENDCHAR
STARTCHAR 2140
ENCODING 8512
SWIDTH 362 0
DWIDTH 16 0
BBX 16 16 0 -2
BITMAP
0008
7FFC
020C
060C
0C0C
18F8
3030
4010
3FF8
0818
0430
0360
01C0
03E0
0C3F
F00F
ENDCHAR
STARTCHAR 2141
ENCODING 8513
SWIDTH 362 0
DWIDTH 16 0
BBX 16 16 0 -2
BITMAP
0008
3FFC
1208
0918
0998
0C30
2430
3660
1240
03C0
0180
03C0
0670
0C3C
300F
E003
ENDCHAR
STARTCHAR 2142
ENCODING 8514
SWIDTH 362 0
DWIDTH 16 0
BBX 16 16 0 -2
BITMAP
3038
3018
3018
3018
3018
30F0
3070
3018
3FF8
3210
3130
31A0
30E0
30F0
331E
3C0E
ENDCHAR
STARTCHAR 2143
ENCODING 8515
SWIDTH 362 0
DWIDTH 16 0
BBX 16 16 0 -2
BITMAP
0006
01FE
D804
D808
D810
D820
D840
D8C0
D980
D900
DB00
FA00
C201
0301
03FF
00FF
ENDCHAR
STARTCHAR 2144
ENCODING 8516
SWIDTH 362 0
DWIDTH 16 0
BBX 16 16 0 -2
BITMAP
0008
7FFC
0008
0708
0608
0608
0608
3FE8
0608
0608
0608
060C
060D
0625
7FE7
0003
ENDCHAR
STARTCHAR 2145
ENCODING 8517
SWIDTH 362 0
DWIDTH 16 0
BBX 16 16 0 -2
BITMAP
2006
33FE
2004
A008
AC10
AC30
AC60
ACC0
AC80
AD80
AF00
AF00
FF01
0301
01FF
00FF
ENDCHAR
STARTCHAR 2146
ENCODING 8518
SWIDTH 362 0
DWIDTH 16 0
BBX 16 16 0 -2
BITMAP
0180
7186
6184
7FFC
0000
0008
3FFC
0070
0180
0700
1800
3000
6002
4002
7FFE
3FFE
ENDCHAR
STARTCHAR 2147
ENCODING 8519
SWIDTH 362 0
DWIDTH 16 0
BBX 16 16 0 -2
BITMAP
0018
1818
3018
3FF8
000C
000C
0018
0010
3FF8
1018
3010
3FFC
000C
0008
0018
0030
ENDCHAR
STARTCHAR 2148
ENCODING 8520
SWIDTH 362 0
DWIDTH 16 0
BBX 16 16 0 -2
BITMAP
0180
0180
0180
FFFF
0180
1190
1998
1998
1998
1198
3198
3198
619F
C18F
8180
0100
ENDCHAR
STARTCHAR 2149
ENCODING 8521
SWIDTH 362 0
DWIDTH 16 0
BBX 16 16 0 -2
BITMAP
0002
7FFF
0600
0608
0FFC
0C0C
0818
1818
1E30
03F0
0060
00C0
0180
0300
0C00
7000
ENDCHAR
STARTCHAR 214a
ENCODING 8522
SWIDTH 362 0
DWIDTH 16 0
BBX 16 16 0 -2
BITMAP
0300
0300
0200
03F8
3F80
0200
030C
7F00
0200
0203
FFFF
0200
0201
0201
03FF
01FF
ENDCHAR
STARTCHAR 214b
ENCODING 8523
SWIDTH 362 0
DWIDTH 16 0
BBX 16 16 0 -2
BITMAP
0006
3110
3190
3190
3198
3198
3198
3188
3188
3188
318C
218C
2184
6186
4183
8101
ENDCHAR
STARTCHAR 214c
ENCODING 8524
SWIDTH 362 0
DWIDTH 16 0
BBX 16 16 0 -2
BITMAP
0006
7FFE
0180
0180
0180
0180
0184
3FFC
0180
0180
0180
0180
0180
01FE
7F00
6000
ENDCHAR
STARTCHAR 214d
ENCODING 8525
SWIDTH 362 0
DWIDTH 16 0
BBX 16 16 0 -2
BITMAP
0002
FFFF
0300
0620
0C60
1860
38CC
0F88
0318
0630
0C60
30E0
4398
060C
3806
4002
ENDCHAR
STARTCHAR 214e
ENCODING 8526
SWIDTH 362 0
DWIDTH 16 0
BBX 16 16 0 -2
BITMAP
01C0
0188
01FC
3F80
3180
3180
2180
3FFF
2183
0382
0782
0D86
19BE
318C
C180
0180
ENDCHAR
STARTCHAR 214f
ENCODING 8527
SWIDTH 362 0
DWIDTH 16 0
BBX 16 16 0 -2
BITMAP
0660
0E60
1860
3060
6060
C160
FF60
7F60
0660
6660
3660
0660
1E61
F661
C67F
043F
ENDCHAR
STARTCHAR 2150
ENCODING 8528
SWIDTH 362 0
DWIDTH 16 0
BBX 16 16 0 -2
BITMAP
04C0
0E60
0C38
181E
3007
FFFB
0018
0018
0018
1FF8
1800
1800
1000
3000
6000
C000
ENDCHAR
STARTCHAR 2151
ENCODING 8529
SWIDTH 362 0
DWIDTH 16 0
BBX 16 16 0 -2
BITMAP
200C
300C
202C
2FFC
200C
203C
2008
FFFF
0180
0180
0180
0180
0180
0180
0780
0300
ENDCHAR
STARTCHAR 2152
ENCODING 8530
SWIDTH 362 0
DWIDTH 16 0
BBX 16 16 0 -2
BITMAP
0000
7FFE
4006
4006
4006
4046
47E6
4666
4666
4666
4666
4666
4666
4666
7C7E
4000
ENDCHAR
STARTCHAR 2153
ENCODING 8531
SWIDTH 362 0
DWIDTH 16 0
BBX 16 16 0 -2
BITMAP
2004
7FFE
6024
6064
6184
6604
6824
6064
61C4
6304
6C34
6074
60C4
4187
CE03
8001
ENDCHAR
STARTCHAR 2154
ENCODING 8532
SWIDTH 362 0
DWIDTH 16 0
BBX 16 16 0 -2
BITMAP
0020
07F0
1980
0180
6187
4196
5FFE
4186
4186
4186
4186
4186
4186
4106
C006
4006
ENDCHAR
STARTCHAR 2155
ENCODING 8533
SWIDTH 362 0
DWIDTH 16 0
BBX 16 16 0 -2
BITMAP
7003
6003
619A
7F92
4192
C192
8192
0392
0D92
3992
E192
4192
0182
0102
1F1E
0606
ENDCHAR
STARTCHAR 2156
ENCODING 8534
SWIDTH 362 0
DWIDTH 16 0
BBX 16 16 0 -2
BITMAP
0070
FE60
2662
267F
26C0
2682
267F
2606
260C
2618
6630
6660
66C1
46C1
FCFF
887F
ENDCHAR
STARTCHAR 2157
ENCODING 8535
SWIDTH 362 0
DWIDTH 16 0
BBX 16 16 0 -2
BITMAP
3006
30FE
3F26
3026
3626
FE26
0466
0866
1046
20C6
408E
C10C
8009
C001
FFFF
3FFF
ENDCHAR
STARTCHAR 2158
ENCODING 8536
SWIDTH 362 0
DWIDTH 16 0
BBX 16 16 0 -2
BITMAP
0630
0430
0430
0430
7FFF
0C33
0C33
1C33
1423
3423
2463
6463
44C3
84C3
3DBE
0B0C
ENDCHAR
STARTCHAR 2159
ENCODING 8537
SWIDTH 362 0
DWIDTH 16 0
BBX 16 16 0 -2
BITMAP
0630
6430
6430
44FF
CC33
CC32
FC32
0F32
0E22
1E62
1E62
165E
368C
2601
47FF
83FF
ENDCHAR
STARTCHAR 215a
ENCODING 8538
SWIDTH 362 0
DWIDTH 16 0
BBX 16 16 0 -2
BITMAP
0180
0180
0180
0182
FFFE
0180
05E0
0DB0
0DB8
199C
318F
6197
9FF8
0180
0180
0100
ENDCHAR
STARTCHAR 215b
ENCODING 8539
SWIDTH 362 0
DWIDTH 16 0
BBX 16 16 0 -2
BITMAP
0400
0C60
0FE0
18C0
3180
03C0
0638
1D9F
6187
0180
018C
0180
0180
0180
0180
0100
ENDCHAR
STARTCHAR 215c
ENCODING 8540
SWIDTH 362 0
DWIDTH 16 0
BBX 16 16 0 -2
BITMAP
4002
7FFF
6040
6060
6040
6046
6FFE
6040
6040
6043
7FFF
4040
4040
C040
8040
8040
ENDCHAR
STARTCHAR 215d
ENCODING 8541
SWIDTH 362 0
DWIDTH 16 0
BBX 16 16 0 -2
BITMAP
01C0
3186
3184
3FFC
0180
4183
7FFF
6000
6000
6000
6000
6000
4000
4000
C000
8000
ENDCHAR
STARTCHAR 215e
ENCODING 8542
SWIDTH 362 0
DWIDTH 16 0
BBX 16 16 0 -2
BITMAP
0180
0100
01FC
0100
0306
0003
00E2
08E2
0CC2
0682
0302
0382
0CF2
1836
603E
000C
ENDCHAR
STARTCHAR 215f
ENCODING 8543
SWIDTH 362 0
DWIDTH 16 0
BBX 16 16 0 -2
BITMAP
0600
0600
4C06
7FFE
4006
4FF6
4466
4466
42C6
4186
43C6
467E
583E
4006
401E
400C
ENDCHAR
STARTCHAR 2160
ENCODING 8544
SWIDTH 362 0
DWIDTH 16 0
BBX 16 16 0 -2
BITMAP
00C0
00C0
4C80
4C80
4C80
4C82
4CFE
4C80
4C80
4C80
4C80
7C80
4081
0081
00FF
007F
ENDCHAR
STARTCHAR 2161
ENCODING 8545
SWIDTH 362 0
DWIDTH 16 0
BBX 16 16 0 -2
BITMAP
100C
100C
100C
100C
100C
1E0C
0400
040C
07FE
0C04
0C04
0804
180C
300C
60F8
C030
ENDCHAR
STARTCHAR 2162
ENCODING 8546
SWIDTH 362 0
DWIDTH 16 0
BBX 16 16 0 -2
BITMAP
20C0
60C0
60C0
6CC0
FCC3
ECCE
6CF8
6DC0
4CC0
C8C0
F8C0
30C0
3CC1
66C3
C0FF
0000
ENDCHAR
STARTCHAR 2163
ENCODING 8547
SWIDTH 362 0
DWIDTH 16 0
BBX 16 16 0 -2
BITMAP
0470
7E60
0C60
1860
1060
1060
1060
3C70
F070
50D0
10D8
1088
118C
1306
F607
2C03
ENDCHAR
STARTCHAR 2164
ENCODING 8548
SWIDTH 362 0
DWIDTH 16 0
BBX 16 16 0 -2
BITMAP
0300
4180
7FFF
C103
8184
0180
0180
0180
0380
0340
0660
0430
0C38
181C
300F
C003
ENDCHAR
STARTCHAR 2165
ENCODING 8549
SWIDTH 362 0
DWIDTH 16 0
BBX 16 16 0 -2
BITMAP
3030
3030
3030
30FF
FE33
3C32
3C32
3C32
3C22
2C62
2C42
6CC6
6DBD
4F09
CFFF
87FF
ENDCHAR
STARTCHAR 2166
ENCODING 8550
SWIDTH 362 0
DWIDTH 16 0
BBX 16 16 0 -2
BITMAP
0004
7FFE
0604
0604
0C04
080C
107C
6018
0180
0180
7186
6184
6184
6184
618C
600C
ENDCHAR
STARTCHAR 2167
ENCODING 8551
SWIDTH 362 0
DWIDTH 16 0
BBX 16 16 0 -2
BITMAP
0003
04C3
FEC2
10C2
10C2
10C2
10C2
10C2
10C2
10C2
10FE
FC02
E002
0002
0002
0002
ENDCHAR
STARTCHAR 2168
ENCODING 8552
SWIDTH 362 0
DWIDTH 16 0
BBX 16 16 0 -2
BITMAP
0004
7FFE
0180
0180
0180
0183
FFFF
1810
1810
1810
1810
1010
3010
2010
4010
8010
ENDCHAR
STARTCHAR 2169
ENCODING 8553
SWIDTH 362 0
DWIDTH 16 0
BBX 16 16 0 -2
BITMAP
1002
39FF
3006
2008
6010
CE10
EC10
3810
1810
3010
2810
6410
FE10
E210
00F0
0020
ENDCHAR
STARTCHAR 216a
ENCODING 8554
SWIDTH 362 0
DWIDTH 16 0
BBX 16 16 0 -2
BITMAP
0804
FCFE
0884
0884
4884
4884
C084
CC84
FC84
0C84
0C84
0D84
0D84
0D05
FB07
3207
ENDCHAR
STARTCHAR 216b
ENCODING 8555
SWIDTH 362 0
DWIDTH 16 0
BBX 16 16 0 -2
BITMAP
1803
19C3
3182
2182
4D82
0982
1982
3182
3182
7182
91FE
1002
1002
1002
1002
1002
ENDCHAR
STARTCHAR 216c
ENCODING 8556
SWIDTH 362 0
DWIDTH 16 0
BBX 16 16 0 -2
BITMAP
3180
3180
3180
3180
7982
FD8F
F1F0
B180
3180
3180
3180
3180
3181
3181
31FF
30FF
ENDCHAR
STARTCHAR 216d
ENCODING 8557
SWIDTH 362 0
DWIDTH 16 0
BBX 16 16 0 -2
BITMAP
0006
7FFE
0018
07FC
3C00
300C
3FFE
3004
3004
3FFC
3004
3000
2000
6000
4000
8000
ENDCHAR
STARTCHAR 216e
ENCODING 8558
SWIDTH 362 0
DWIDTH 16 0
BBX 16 16 0 -2
BITMAP
000C
000C
00CC
1FCC
360C
060C
066C
060C
060C
062C
7FEC
060C
0605
0607
1E03
0C01
ENDCHAR
STARTCHAR 216f
ENCODING 8559
SWIDTH 362 0
DWIDTH 16 0
BBX 16 16 0 -2
BITMAP
3004
31FE
3184
3184
F984
3184
3184
3984
7184
F184
3184
3104
3304
3305
F607
6C07
ENDCHAR
STARTCHAR 2170
ENCODING 8560
SWIDTH 362 0
DWIDTH 16 0
BBX 16 16 0 -2
BITMAP
0C60
0C60
0C60
4C60
6C60
6D60
6F60
6C60
6C60
6C60
6C60
6C60
6C61
6F61
FC7F
C03F
ENDCHAR
STARTCHAR 2171
ENCODING 8561
SWIDTH 362 0
DWIDTH 16 0
BBX 16 16 0 -2
BITMAP
0180
0180
0186
0180
0180
3FFC
2004
2004
2004
2004
3FFC
2004
2004
2004
201C
2008
ENDCHAR
STARTCHAR 2172
ENCODING 8562
SWIDTH 362 0
DWIDTH 16 0
BBX 16 16 0 -2
BITMAP
1008
1FFC
1A68
1A68
1A68
1268
FFFF
1648
36C8
36C8
36C8
3FFF
0018
0018
00F0
0020
ENDCHAR
STARTCHAR 2173
ENCODING 8563
SWIDTH 362 0
DWIDTH 16 0
BBX 16 16 0 -2
BITMAP
2060
1060
1860
0060
C460
6870
2878
186C
1066
3062
6060
E060
6060
2060
3060
2040
ENDCHAR
STARTCHAR 2174
ENCODING 8564
SWIDTH 362 0
DWIDTH 16 0
BBX 16 16 0 -2
BITMAP
200C
300C
100C
010C
8908
4908
7918
1098
30B0
30F0
6060
E070
60D8
618C
6307
2C02
ENDCHAR
STARTCHAR 2175
ENCODING 8565
SWIDTH 362 0
DWIDTH 16 0
BBX 16 16 0 -2
BITMAP
000C
0000
0180
1980
1180
3FFC
3180
6180
C180
FFFF
0180
0180
0180
0180
0180
0100
ENDCHAR
STARTCHAR 2176
ENCODING 8566
SWIDTH 362 0
DWIDTH 16 0
BBX 16 16 0 -2
BITMAP
0180
0180
0182
FFFF
0180
218C
318C
1998
09A0
03C0
0260
0630
0C18
180C
3007
C002
ENDCHAR
STARTCHAR 2177
ENCODING 8567
SWIDTH 362 0
DWIDTH 16 0
BBX 16 16 0 -2
BITMAP
0870
5860
3060
3060
53FF
9863
1863
1863
3863
6843
C8C3
08C3
0883
1983
7B3E
3C0C
ENDCHAR
STARTCHAR 2178
ENCODING 8568
SWIDTH 362 0
DWIDTH 16 0
BBX 16 16 0 -2
BITMAP
0800
59FC
318C
3188
5188
9988
1988
1988
3988
6988
C988
0908
0B08
1B09
7A0F
3407
ENDCHAR
STARTCHAR 2179
ENCODING 8569
SWIDTH 362 0
DWIDTH 16 0
BBX 16 16 0 -2
BITMAP
0100
0180
0300
0200
6606
6666
6666
6666
6666
6666
6666
6666
6666
6666
667E
4004
ENDCHAR
STARTCHAR 217a
ENCODING 8570
SWIDTH 362 0
DWIDTH 16 0
BBX 16 16 0 -2
BITMAP
0180
0180
018C
018C
018C
FFFF
018C
018C
3FFC
0180
0180
FFFF
0180
0180
0180
0100
ENDCHAR
STARTCHAR 217b
ENCODING 8571
SWIDTH 362 0
DWIDTH 16 0
BBX 16 16 0 -2
BITMAP
1C18
1810
FF7F
1810
1910
0180
0180
0180
0180
0180
0180
0180
0180
0180
0180
0100
ENDCHAR
STARTCHAR 217c
ENCODING 8572
SWIDTH 362 0
DWIDTH 16 0
BBX 16 16 0 -2
BITMAP
0C22
0C3F
0826
0824
082C
09A8
FFA4
0822
0823
0823
0823
083F
0826
0820
0820
0820
ENDCHAR
STARTCHAR 217d
ENCODING 8573
SWIDTH 362 0
DWIDTH 16 0
BBX 16 16 0 -2
BITMAP
8830
FC30
C820
D820
D020
D023
DFFF
C820
CC20
CC20
CC20
FC20
D820
C020
C020
C020
ENDCHAR
STARTCHAR 217e
ENCODING 8574
SWIDTH 362 0
DWIDTH 16 0
BBX 16 16 0 -2
BITMAP
8802
FFFF
C8C0
D8C0
D080
D186
D9FE
C806
CC06
CC06
CC06
FC06
D806
C004
C07C
C018
ENDCHAR
STARTCHAR 2221
ENCODING 8737
SWIDTH 362 0
DWIDTH 16 0
BBX 16 16 0 -2
BITMAP
9804
F9FE
D904
D104
F10C
E18C
D088
D898
C8D8
C870
C870
F870
D0D8
C18C
C307
C602
ENDCHAR
STARTCHAR 2222
ENCODING 8738
SWIDTH 362 0
DWIDTH 16 0
BBX 16 16 0 -2
BITMAP
8808
FDFC
C8CC
D8CC
D0C8
D0D8
D8DF
C8C3
CCC3
CC83
CC83
FD83
D903
C306
C23E
C40C
ENDCHAR
STARTCHAR 2223
ENCODING 8739
SWIDTH 362 0
DWIDTH 16 0
BBX 16 16 0 -2
BITMAP
8800
FDFF
C863
D863
D063
D063
D863
C863
CC63
CC43
CCC3
FCC3
D882
C186
C33C
CC08
ENDCHAR
STARTCHAR 2224
ENCODING 8740
SWIDTH 362 0
DWIDTH 16 0
BBX 16 16 0 -2
BITMAP
0600
0400
3FF8
3018
3018
3018
3018
3018
3000
3FFC
300C
3008
3008
3008
3FF8
3008
ENDCHAR
STARTCHAR 2225
ENCODING 8741
SWIDTH 362 0
DWIDTH 16 0
BBX 16 16 0 -2
BITMAP
0300
0200
4404
7FFE
6666
6666
6666
6666
6666
6666
6666
6666
6666
6666
667E
400C
ENDCHAR
STARTCHAR 2226
ENCODING 8742
SWIDTH 362 0
DWIDTH 16 0
BBX 16 16 0 -2
BITMAP
1D80
1900
1906
3300
3300
73FF
7003
B003
3003
33FB
3003
3003
3003
3003
303E
300C
ENDCHAR
STARTCHAR 2227
ENCODING 8743
SWIDTH 362 0
DWIDTH 16 0
BBX 16 16 0 -2
BITMAP
0C18
1830
18C0
118E
339C
30F0
7064
D0C6
939F
13F3
1031
1030
1030
1030
1030
1030
ENDCHAR
STARTCHAR 2228
ENCODING 8744
SWIDTH 362 0
DWIDTH 16 0
BBX 16 16 0 -2
BITMAP
0180
0380
0660
0C30
181E
300F
DFF8
0460
0460
7FFF
0460
0C60
0860
1860
3060
C060
ENDCHAR
STARTCHAR 2229
ENCODING 8745
SWIDTH 362 0
DWIDTH 16 0
BBX 16 16 0 -2
BITMAP
4002
7FFF
C002
8000
1FF8
0000
0000
0006
7FFE
0660
0660
0C60
0C61
1863
307F
C03E
ENDCHAR
STARTCHAR 222a
ENCODING 8746
SWIDTH 362 0
DWIDTH 16 0
BBX 16 16 0 -2
BITMAP
0180
0180
7DBE
4DA6
4DA6
4DA6
4DA6
4DA6
4186
4186
4186
4186
0180
0180
0180
0100
ENDCHAR
STARTCHAR 222b
ENCODING 8747
SWIDTH 362 0
DWIDTH 16 0
BBX 16 16 0 -2
BITMAP
6003
6003
619A
4012
4012
FF92
0192
0192
0392
0D92
7192
C192
0182
0182
1F1E
0206
ENDCHAR
STARTCHAR 222c
ENCODING 8748
SWIDTH 362 0
DWIDTH 16 0
BBX 16 16 0 -2
BITMAP
0C03
0C03
0C1A
0C12
6D92
6CD2
4CD2
CC12
8D92
0D92
0F12
0212
0402
0802
301E
C006
ENDCHAR
STARTCHAR 222d
ENCODING 8749
SWIDTH 362 0
DWIDTH 16 0
BBX 16 16 0 -2
BITMAP
0783
7C03
0832
0832
0932
7FB2
0832
0832
08B2
FFB2
0832
1832
1802
3002
601E
C006
ENDCHAR
STARTCHAR 222e
ENCODING 8750
SWIDTH 362 0
DWIDTH 16 0
BBX 16 16 0 -2
BITMAP
0203
7F03
6232
6232
6332
43F2
8032
7F32
0332
2332
1E32
0C32
0E02
1B02
319E
C086
ENDCHAR
STARTCHAR 222f
ENCODING 8751
SWIDTH 362 0
DWIDTH 16 0
BBX 16 16 0 -2
BITMAP
0403
0603
321A
3312
2112
6192
6992
4C92
D812
9812
1012
3212
2102
6782
7D9E
4006
ENDCHAR
STARTCHAR 2230
ENCODING 8752
SWIDTH 362 0
DWIDTH 16 0
BBX 16 16 0 -2
BITMAP
1800
1AFF
3F33
1833
1833
1A33
7E33
1833
1823
1F23
F863
1843
18C2
1886
193C
1E08
ENDCHAR
STARTCHAR 2231
ENCODING 8753
SWIDTH 362 0
DWIDTH 16 0
BBX 16 16 0 -2
BITMAP
1830
1830
1830
7F30
9B7F
9A33
1833
1C33
1C33
3C33
3C23
3C63
2F63
6EC3
449E
810C
ENDCHAR
STARTCHAR 2232
ENCODING 8754
SWIDTH 362 0
DWIDTH 16 0
BBX 16 16 0 -2
BITMAP
0118
7F10
4010
4010
7FFF
4313
5313
5213
5E13
4C33
4C33
DE23
9363
B343
61DE
C18C
ENDCHAR
STARTCHAR 2233
ENCODING 8755
SWIDTH 362 0
DWIDTH 16 0
BBX 16 16 0 -2
BITMAP
0030
7F30
6430
6430
447F
4533
FF33
0C33
1C33
1C33
3423
2463
4463
84C3
3C9E
090C
ENDCHAR
STARTCHAR 2234
ENCODING 8756
SWIDTH 362 0
DWIDTH 16 0
BBX 16 16 0 -2
BITMAP
3000
3002
3FFF
2003
6062
4002
8002
0032
3FF2
0482
0C92
08D2
10F6
6006
007C
0018
ENDCHAR
STARTCHAR 2235
ENCODING 8757
SWIDTH 362 0
DWIDTH 16 0
BBX 16 16 0 -2
BITMAP
3000
3002
3FFF
2003
6182
4182
9D82
19F2
1982
1982
1982
1992
7FFE
0006
007C
0018
ENDCHAR
STARTCHAR 2236
ENCODING 8758
SWIDTH 362 0
DWIDTH 16 0
BBX 16 16 0 -2
BITMAP
3000
3002
3FFF
2003
6802
5802
9FF2
3002
3002
7002
1002
17FA
1006
1006
007C
0018
ENDCHAR
STARTCHAR 2237
ENCODING 8759
SWIDTH 362 0
DWIDTH 16 0
BBX 16 16 0 -2
BITMAP
4002
7FFF
40C0
40C0
4120
4218
441E
5FF6
4000
47F8
4018
4030
4020
4040
C0C3
4000
ENDCHAR
STARTCHAR 2238
ENCODING 8760
SWIDTH 362 0
DWIDTH 16 0
BBX 16 16 0 -2
BITMAP
0002
FFFF
4180
4084
5FFE
58C6
58E6
59B6
5B1E
5E0E
5806
583E
580C
6000
7FFF
0000
ENDCHAR
STARTCHAR 2239
ENCODING 8761
SWIDTH 362 0
DWIDTH 16 0
BBX 16 16 0 -2
BITMAP
7426
6664
6464
6464
6464
6464
FEFF
6464
6464
6464
6464
6464
6464
6464
6464
0404
ENDCHAR
STARTCHAR 223a
ENCODING 8762
SWIDTH 362 0
DWIDTH 16 0
BBX 16 16 0 -2
BITMAP
0C30
0C30
0C36
0C30
0C30
FFFF
0C30
1930
31B0
61A0
0182
FFFF
0180
0180
0180
0100
ENDCHAR
STARTCHAR 223b
ENCODING 8763
SWIDTH 362 0
DWIDTH 16 0
BBX 16 16 0 -2
BITMAP
4002
7FFF
6060
6040
60C6
60C0
6040
6044
67FC
6040
6040
5FFF
4040
C040
8040
8040
ENDCHAR
STARTCHAR 223c
ENCODING 8764
SWIDTH 362 0
DWIDTH 16 0
BBX 16 16 0 -2
BITMAP
4002
7FFF
6000
6FFE
6318
6318
6318
6318
7FFF
6318
6318
4218
4618
C418
8C18
9810
ENDCHAR
STARTCHAR 223d
ENCODING 8765
SWIDTH 362 0
DWIDTH 16 0
BBX 16 16 0 -2
BITMAP
4002
7FFF
6400
6600
6606
6460
6C60
7860
6060
6FFF
6060
4060
4060
C060
8060
8040
ENDCHAR
STARTCHAR 223e
ENCODING 8766
SWIDTH 362 0
DWIDTH 16 0
BBX 16 16 0 -2
BITMAP
4002
7FFF
6010
67F8
6618
6618
661E
6C0E
7FF8
6218
6130
41A0
40E0
C1F0
831F
9C07
ENDCHAR
STARTCHAR 223f
ENCODING 8767
SWIDTH 362 0
DWIDTH 16 0
BBX 16 16 0 -2
BITMAP
4002
7FFF
6000
61C0
6140
6342
6346
662C
6630
6E30
7E10
7618
460C
C6E7
8783
8600
ENDCHAR
STARTCHAR 2240
ENCODING 8768
SWIDTH 362 0
DWIDTH 16 0
BBX 16 16 0 -2
BITMAP
4002
7FFF
6000
6FFE
6C00
6C00
6FFC
6D0C
6D08
6C98
6CD0
4860
4870
D898
930F
AC03
ENDCHAR
STARTCHAR 2241
ENCODING 8769
SWIDTH 362 0
DWIDTH 16 0
BBX 16 16 0 -2
BITMAP
0202
7F7F
5B42
5B62
5B26
5B26
5B26
4334
401C
4018
4018
403C
C024
C066
80C3
8183
ENDCHAR
STARTCHAR 2242
ENCODING 8770
SWIDTH 362 0
DWIDTH 16 0
BBX 16 16 0 -2
BITMAP
00C0
0660
0C30
1818
302F
7FF3
8C60
0C60
0FF8
0A18
1930
18A0
30E0
21F0
431F
9C07
ENDCHAR
STARTCHAR 2243
ENCODING 8771
SWIDTH 362 0
DWIDTH 16 0
BBX 16 16 0 -2
BITMAP
0030
0030
D820
D820
D833
D830
D820
D870
D870
D858
D8C8
F8CC
C184
0306
0603
0C01
ENDCHAR
STARTCHAR 2244
ENCODING 8772
SWIDTH 362 0
DWIDTH 16 0
BBX 16 16 0 -2
BITMAP
0060
0060
D860
CC60
C860
C860
C862
C860
C860
C860
C860
F860
C860
0060
0063
0000
ENDCHAR
STARTCHAR 2245
ENCODING 8773
SWIDTH 362 0
DWIDTH 16 0
BBX 16 16 0 -2
BITMAP
01C0
0180
D980
D9FF
DB03
DB03
DA03
D8C3
D863
D823
D803
F803
C003
0006
003E
000C
ENDCHAR
STARTCHAR 2246
ENCODING 8774
SWIDTH 362 0
DWIDTH 16 0
BBX 16 16 0 -2
BITMAP
2008
3FFC
300C
300C
300C
3FFC
300C
0000
18CC
318C
2118
4230
6210
3108
118C
1884
ENDCHAR
STARTCHAR 2247
ENCODING 8775
SWIDTH 362 0
DWIDTH 16 0
BBX 16 16 0 -2
BITMAP
0600
0610
7FF8
0618
0E18
0D98
1899
301F
E00F
0008
3FFC
300C
3008
3008
3FF8
3008
ENDCHAR
STARTCHAR 2248
ENCODING 8776
SWIDTH 362 0
DWIDTH 16 0
BBX 16 16 0 -2
BITMAP
4006
7FFE
4006
4026
4FF6
4836
4826
4FE6
4826
4806
4FF6
47F6
4006
4006
7FFE
4002
ENDCHAR
STARTCHAR 2249
ENCODING 8777
SWIDTH 362 0
DWIDTH 16 0
BBX 16 16 0 -2
BITMAP
4006
7FFE
4186
4186
4306
4636
4C66
46C6
4186
4306
4626
4C76
5F9E
4816
7FFE
4002
ENDCHAR
STARTCHAR 224a
ENCODING 8778
SWIDTH 362 0
DWIDTH 16 0
BBX 16 16 0 -2
BITMAP
2030
6030
6030
6830
FC33
E830
6830
6830
4830
D878
F868
304C
38C4
6D86
C303
0601
ENDCHAR
STARTCHAR 224b
ENCODING 8779
SWIDTH 362 0
DWIDTH 16 0
BBX 16 16 0 -2
BITMAP
200C
600C
6008
680B
FDFF
E808
6888
6898
4858
D858
F830
3030
3878
6CCE
C187
0703
ENDCHAR
STARTCHAR 224c
ENCODING 8780
SWIDTH 362 0
DWIDTH 16 0
BBX 16 16 0 -2
BITMAP
0006
7FFE
0000
0000
3FFC
0000
0000
FFFF
0180
0180
3188
3184
6186
C182
8780
0300
ENDCHAR
STARTCHAR 224d
ENCODING 8781
SWIDTH 362 0
DWIDTH 16 0
BBX 16 16 0 -2
BITMAP
3002
30FE
30D8
30D8
FE98
3C98
3CFE
3C18
3C18
2C18
2C18
6C18
6C19
4C09
CFFF
87FF
ENDCHAR
STARTCHAR 224e
ENCODING 8782
SWIDTH 362 0
DWIDTH 16 0
BBX 16 16 0 -2
BITMAP
4006
7FFE
6006
7FFE
6000
600C
6FFC
6488
66D8
6210
4130
41E0
C0E0
C338
8E1F
B807
ENDCHAR
STARTCHAR 224f
ENCODING 8783
SWIDTH 362 0
DWIDTH 16 0
BBX 16 16 0 -2
BITMAP
0180
318C
218C
210C
3FFC
06C0
0CC0
1FFE
38C6
D8C6
18C6
18C6
18C6
18CE
10C0
00C0
ENDCHAR
STARTCHAR 2250
ENCODING 8784
SWIDTH 362 0
DWIDTH 16 0
BBX 16 16 0 -2
BITMAP
0180
7186
6184
6184
7FFC
0004
0000
7FFE
0180
0180
0180
0180
0180
0180
0183
0000
ENDCHAR
STARTCHAR 2251
ENCODING 8785
SWIDTH 362 0
DWIDTH 16 0
BBX 16 16 0 -2
BITMAP
0018
3FF8
0018
0018
3FF8
0018
001B
0000
0180
0180
7186
6184
6184
6184
618C
600C
ENDCHAR
STARTCHAR 2252
ENCODING 8786
SWIDTH 362 0
DWIDTH 16 0
BBX 16 16 0 -2
BITMAP
0004
7FFE
0604
6604
3C04
180C
107C
6018
0180
0180
7186
6184
6184
6184
618C
600C
ENDCHAR
STARTCHAR 2253
ENCODING 8787
SWIDTH 362 0
DWIDTH 16 0
BBX 16 16 0 -2
BITMAP
0180
318C
318C
210C
0180
01FC
0180
1FF8
0038
00E0
0380
0600
1C02
3002
3FFE
0FFE
ENDCHAR
STARTCHAR 2254
ENCODING 8788
SWIDTH 362 0
DWIDTH 16 0
BBX 16 16 0 -2
BITMAP
0CCC
1998
1110
1110
0CCC
0444
0300
07FC
0C18
1E18
33B0
41E0
00C0
0300
0E00
7000
ENDCHAR
STARTCHAR 2255
ENCODING 8789
SWIDTH 362 0
DWIDTH 16 0
BBX 16 16 0 -2
BITMAP
1084
188C
3108
6210
2318
118C
18C6
0844
1084
188C
3108
6210
2318
118C
18C6
0844
ENDCHAR
STARTCHAR 2256
ENCODING 8790
SWIDTH 362 0
DWIDTH 16 0
BBX 16 16 0 -2
BITMAP
0402
FEFF
0403
0403
4C03
4C03
C0C3
CCC3
FE80
0480
0480
0480
0C81
0C81
78FF
307F
ENDCHAR
STARTCHAR 2257
ENCODING 8791
SWIDTH 362 0
DWIDTH 16 0
BBX 16 16 0 -2
BITMAP
1802
10FE
1460
FE60
D660
D7FF
D6C0
D6C2
D6FF
D602
D602
DC02
1006
1006
107C
1018
ENDCHAR
STARTCHAR 2258
ENCODING 8792
SWIDTH 362 0
DWIDTH 16 0
BBX 16 16 0 -2
BITMAP
1830
1030
1430
FE30
D633
D630
D630
D630
D638
D668
D668
DC4C
10C4
1186
1103
1601
ENDCHAR
STARTCHAR 2259
ENCODING 8793
SWIDTH 362 0
DWIDTH 16 0
BBX 16 16 0 -2
BITMAP
18C0
10C0
14C2
FEFF
D683
D703
D743
D663
D633
D613
D603
DC03
1003
1006
103E
100C
ENDCHAR
STARTCHAR 225a
ENCODING 8794
SWIDTH 362 0
DWIDTH 16 0
BBX 16 16 0 -2
BITMAP
180E
10F8
1490
FE90
D690
D690
D690
D698
D698
D688
D68C
DC8C
1086
10B7
10E3
10C1
ENDCHAR
STARTCHAR 225b
ENCODING 8795
SWIDTH 362 0
DWIDTH 16 0
BBX 16 16 0 -2
BITMAP
1806
100E
1418
FE30
D6C0
D602
D606
D60C
D630
D6C0
D603
DC06
100C
1018
1060
11C0
ENDCHAR
STARTCHAR 225c
ENCODING 8796
SWIDTH 362 0
DWIDTH 16 0
BBX 16 16 0 -2
BITMAP
0180
018C
3FFC
018C
FFFF
018C
018C
0188
0184
7FFE
6184
6184
6184
6184
619C
0100
ENDCHAR
STARTCHAR 225d
ENCODING 8797
SWIDTH 362 0
DWIDTH 16 0
BBX 16 16 0 -2
BITMAP
0180
4083
7FFF
6060
6660
6460
647E
7C66
6466
6464
6464
4460
4441
C403
87FF
87FE
ENDCHAR
STARTCHAR 225e
ENCODING 8798
SWIDTH 362 0
DWIDTH 16 0
BBX 16 16 0 -2
BITMAP
0180
4083
7FFF
6300
631C
6318
7FFF
6618
6418
6C10
6F30
40E0
40F8
C18E
8607
B803
ENDCHAR
STARTCHAR 225f
ENCODING 8799
SWIDTH 362 0
DWIDTH 16 0
BBX 16 16 0 -2
BITMAP
0818
FC10
0812
09FF
4993
4993
C193
CD93
FD93
0D93
0D93
0D93
0D97
0D12
F810
3010
ENDCHAR
STARTCHAR 2260
ENCODING 8800
SWIDTH 362 0
DWIDTH 16 0
BBX 16 16 0 -2
BITMAP
0860
FC60
0860
086C
49FE
4864
C064
CD64
FDE4
0C44
0C44
0CC4
0C84
0D85
F907
3207
ENDCHAR
STARTCHAR 2261
ENCODING 8801
SWIDTH 362 0
DWIDTH 16 0
BBX 16 16 0 -2
BITMAP
1860
186C
3066
2062
4C60
0BFF
1860
3060
3060
7020
9030
1010
1019
100D
1007
1003
ENDCHAR
STARTCHAR 2262
ENCODING 8802
SWIDTH 362 0
DWIDTH 16 0
BBX 16 16 0 -2
BITMAP
1860
1840
3040
2040
4DFC
0844
1844
31C4
3064
70F4
90D4
1084
1184
1305
1607
1C07
ENDCHAR
STARTCHAR 2263
ENCODING 8803
SWIDTH 362 0
DWIDTH 16 0
BBX 16 16 0 -2
BITMAP
3002
31FE
3030
3030
7830
FC30
F3FF
B030
3030
3030
3030
3030
3030
3030
31F0
3060
ENDCHAR
STARTCHAR 2264
ENCODING 8804
SWIDTH 362 0
DWIDTH 16 0
BBX 16 16 0 -2
BITMAP
3000
31FF
3030
3030
7830
FC30
F030
B030
3030
3030
3030
3030
3030
3030
33FF
3000
ENDCHAR
STARTCHAR 2265
ENCODING 8805
SWIDTH 362 0
DWIDTH 16 0
BBX 16 16 0 -2
BITMAP
3070
306C
3066
3062
7863
FC60
F060
B060
3020
3030
3030
3010
3019
300D
3007
3003
ENDCHAR
STARTCHAR 2266
ENCODING 8806
SWIDTH 362 0
DWIDTH 16 0
BBX 16 16 0 -2
BITMAP
3002
31FF
3002
3002
7802
FC02
F182
B182
3182
3180
3180
3180
3181
3181
31FF
30FF
ENDCHAR
STARTCHAR 2267
ENCODING 8807
SWIDTH 362 0
DWIDTH 16 0
BBX 16 16 0 -2
BITMAP
3002
33FF
3002
3162
7926
FDA6
F08C
B0CC
3048
3078
3030
3078
30DC
318E
3307
3603
ENDCHAR
STARTCHAR 2268
ENCODING 8808
SWIDTH 362 0
DWIDTH 16 0
BBX 16 16 0 -2
BITMAP
3060
3040
30C0
30FF
78C3
FC83
F1C3
B132
321E
300C
300C
3018
3030
3060
3180
3700
ENDCHAR
STARTCHAR 2269
ENCODING 8809
SWIDTH 362 0
DWIDTH 16 0
BBX 16 16 0 -2
BITMAP
3060
3060
3064
3046
7844
FFFF
F0C4
B08C
318C
3188
3398
31F0
3038
306E
3183
3701
ENDCHAR
STARTCHAR 226a
ENCODING 8810
SWIDTH 362 0
DWIDTH 16 0
BBX 16 16 0 -2
BITMAP
3034
3033
2033
2430
FEFF
2630
2632
2633
2612
6616
661C
6698
471D
C72D
8047
0183
ENDCHAR
STARTCHAR 226b
ENCODING 8811
SWIDTH 362 0
DWIDTH 16 0
BBX 16 16 0 -2
BITMAP
3030
3030
3030
3030
F933
3133
3132
3932
7132
F132
3132
3132
3132
3132
F3FE
6002
ENDCHAR
STARTCHAR 226c
ENCODING 8812
SWIDTH 362 0
DWIDTH 16 0
BBX 16 16 0 -2
BITMAP
0303
3F03
4832
0832
0922
7FA2
0822
0822
08A2
FFA2
0822
0822
0802
0802
781E
1806
ENDCHAR
STARTCHAR 226d
ENCODING 8813
SWIDTH 362 0
DWIDTH 16 0
BBX 16 16 0 -2
BITMAP
1802
11FF
1006
1408
FC10
1010
1190
1CD0
7870
F038
101E
1017
1010
1010
F0F0
2020
ENDCHAR
STARTCHAR 226e
ENCODING 8814
SWIDTH 362 0
DWIDTH 16 0
BBX 16 16 0 -2
BITMAP
3002
31FE
3040
30C0
F8C3
30C0
3080
39FF
7003
F002
3002
3002
3002
3006
F07C
6018
ENDCHAR
STARTCHAR 226f
ENCODING 8815
SWIDTH 362 0
DWIDTH 16 0
BBX 16 16 0 -2
BITMAP
3004
33FE
3004
3004
F805
3077
3067
3860
7066
F060
3060
3060
3060
3060
F060
6060
ENDCHAR
STARTCHAR 2270
ENCODING 8816
SWIDTH 362 0
DWIDTH 16 0
BBX 16 16 0 -2
BITMAP
300C
300C
300C
300C
F9FF
301C
301C
383C
702C
F06C
30CC
318C
330C
360C
F07C
6018
ENDCHAR
STARTCHAR 2271
ENCODING 8817
SWIDTH 362 0
DWIDTH 16 0
BBX 16 16 0 -2
BITMAP
3030
3030
3030
3030
F833
3030
3030
3830
7030
F068
3048
30CC
3084
3186
F303
6603
ENDCHAR
STARTCHAR 2272
ENCODING 8818
SWIDTH 362 0
DWIDTH 16 0
BBX 16 16 0 -2
BITMAP
3006
33FF
3364
3364
FB64
3364
3364
3B64
7364
F364
3366
3266
3267
3663
F463
6821
ENDCHAR
STARTCHAR 2273
ENCODING 8819
SWIDTH 362 0
DWIDTH 16 0
BBX 16 16 0 -2
BITMAP
0008
3FFC
3008
3FF8
3008
3008
3FF8
0003
FFFF
0180
0180
0180
0180
0180
0780
0300
ENDCHAR
STARTCHAR 2274
ENCODING 8820
SWIDTH 362 0
DWIDTH 16 0
BBX 16 16 0 -2
BITMAP
0180
0180
FFFF
0180
3198
318C
3198
2194
3FFE
03C6
07EE
0DBC
199C
3187
C180
0100
ENDCHAR
STARTCHAR 2275
ENCODING 8821
SWIDTH 362 0
DWIDTH 16 0
BBX 16 16 0 -2
BITMAP
1802
19FF
1806
FE08
1810
1810
3810
3C10
3E10
5A10
5810
D810
9810
1810
18F0
1020
ENDCHAR
STARTCHAR 2276
ENCODING 8822
SWIDTH 362 0
DWIDTH 16 0
BBX 16 16 0 -2
BITMAP
0C60
0C40
0F40
0C40
3840
3F40
2340
6640
7640
DC40
8C40
0840
1841
1041
207F
407F
ENDCHAR
STARTCHAR 2277
ENCODING 8823
SWIDTH 362 0
DWIDTH 16 0
BBX 16 16 0 -2
BITMAP
0830
59B0
31B0
31B0
51B6
9BF7
19B6
19B6
39B6
69B4
C9B4
09B0
0981
1981
79FF
30FF
ENDCHAR
STARTCHAR 2278
ENCODING 8824
SWIDTH 362 0
DWIDTH 16 0
BBX 16 16 0 -2
BITMAP
0C84
6CFE
38CC
38CC
68C8
C8C8
0CCC
1CC6
1CC6
24C2
44C2
84C6
0CFC
0CC8
78C0
18C0
ENDCHAR
STARTCHAR 2279
ENCODING 8825
SWIDTH 362 0
DWIDTH 16 0
BBX 16 16 0 -2
BITMAP
0804
59FE
3004
3144
516C
99AC
1888
1898
38D8
6870
C870
0870
08D8
198C
7B07
3602
ENDCHAR
STARTCHAR 227a
ENCODING 8826
SWIDTH 362 0
DWIDTH 16 0
BBX 16 16 0 -2
BITMAP
0908
59FC
3108
3108
5108
9948
1968
1928
3908
6908
C908
0B08
0B08
1A09
7E0F
3C07
ENDCHAR
STARTCHAR 227b
ENCODING 8827
SWIDTH 362 0
DWIDTH 16 0
BBX 16 16 0 -2
BITMAP
0808
5BFC
3088
3088
5088
9888
1888
1BF8
3888
6888
C888
0888
088D
188F
7887
3083
ENDCHAR
STARTCHAR 227c
ENCODING 8828
SWIDTH 362 0
DWIDTH 16 0
BBX 16 16 0 -2
BITMAP
0080
20C3
3FFF
A000
E018
E01C
2030
2060
60C0
E180
6300
6601
6C03
4C02
CFFF
8000
ENDCHAR
STARTCHAR 227d
ENCODING 8829
SWIDTH 362 0
DWIDTH 16 0
BBX 16 16 0 -2
BITMAP
01C0
7D80
4D80
4D80
4D80
7D80
4D80
4D80
4D80
4D80
4D80
4D80
4D81
4D83
01FF
00FE
ENDCHAR
STARTCHAR 227e
ENCODING 8830
SWIDTH 362 0
DWIDTH 16 0
BBX 16 16 0 -2
BITMAP
00C0
FEC0
3080
3080
2080
6080
7C80
6480
E480
E480
6480
6480
7C81
6481
00FF
007F
ENDCHAR
STARTCHAR 2321
ENCODING 8993
SWIDTH 362 0
DWIDTH 16 0
BBX 16 16 0 -2
BITMAP
0078
0FC0
3980
0180
3FFC
0180
0180
FFFF
0380
03C0
05A0
0998
118F
6183
8180
0100
ENDCHAR
STARTCHAR 2322
ENCODING 8994
SWIDTH 362 0
DWIDTH 16 0
BBX 16 16 0 -2
BITMAP
0830
7C30
6830
69B0
6930
7930
6930
6930
7930
7BFE
4830
4830
C830
C831
B83F
981F
ENDCHAR
STARTCHAR 2323
ENCODING 8995
SWIDTH 362 0
DWIDTH 16 0
BBX 16 16 0 -2
BITMAP
49C0
7D80
4D80
4D80
7D80
5D80
4D8E
4D80
4D80
7D80
4D80
4D81
CD83
CD82
BDFF
98FE
ENDCHAR
STARTCHAR 2324
ENCODING 8996
SWIDTH 362 0
DWIDTH 16 0
BBX 16 16 0 -2
BITMAP
48C0
7C40
4860
4820
6860
5870
4870
4850
58D8
78D8
4898
4988
C98C
C90C
BA07
9E03
ENDCHAR
STARTCHAR 2325
ENCODING 8997
SWIDTH 362 0
DWIDTH 16 0
BBX 16 16 0 -2
BITMAP
4820
7C30
4810
48D0
68D0
5898
4898
4888
5988
798C
498C
490C
CB04
CB06
BE07
9C03
ENDCHAR
STARTCHAR 2326
ENCODING 8998
SWIDTH 362 0
DWIDTH 16 0
BBX 16 16 0 -2
BITMAP
1810
1A13
FE7F
1810
0060
00E0
01C0
0380
0780
0D80
1180
0180
0180
0180
0180
0100
ENDCHAR
STARTCHAR 2327
ENCODING 8999
SWIDTH 362 0
DWIDTH 16 0
BBX 16 16 0 -2
BITMAP
0300
0180
FFFF
0000
0018
1FF8
0000
0018
1FF8
0000
1018
100C
1008
1008
1078
1018
ENDCHAR
STARTCHAR 2328
ENCODING 9000
SWIDTH 362 0
DWIDTH 16 0
BBX 16 16 0 -2
BITMAP
0300
0180
FFFF
0000
0018
1FF8
0000
0018
1FF8
0000
1008
180C
1008
1008
1008
1008
ENDCHAR
STARTCHAR 2329
ENCODING 9001
SWIDTH 362 0
DWIDTH 16 0
BBX 16 16 0 -2
BITMAP
00C0
01C0
0300
0700
0D0C
318C
43F0
06E0
18E0
61F0
0358
0C4C
38C7
C0C3
0F80
0300
ENDCHAR
STARTCHAR 232a
ENCODING 9002
SWIDTH 362 0
DWIDTH 16 0
BBX 16 16 0 -2
BITMAP
0722
063F
0626
0624
FFAC
0628
2624
3622
3623
1623
0623
063F
0626
0620
1E20
0C20
ENDCHAR
STARTCHAR 232b
ENCODING 9003
SWIDTH 362 0
DWIDTH 16 0
BBX 16 16 0 -2
BITMAP
0826
1C7E
1864
186C
7F68
1868
186C
1866
1866
1862
1862
1F7E
3C6E
F060
4060
0060
ENDCHAR
STARTCHAR 232c
ENCODING 9004
SWIDTH 362 0
DWIDTH 16 0
BBX 16 16 0 -2
BITMAP
0026
007E
4664
436C
4268
4268
426C
4266
4266
4262
4262
7E7E
426E
0060
0060
0060
ENDCHAR
STARTCHAR 232d
ENCODING 9005
SWIDTH 362 0
DWIDTH 16 0
BBX 16 16 0 -2
BITMAP
2222
3F3F
2332
2336
2334
3B3C
2F36
2F32
2733
2331
2331
637F
63F7
43B0
4330
8030
ENDCHAR
STARTCHAR 232e
ENCODING 9006
SWIDTH 362 0
DWIDTH 16 0
BBX 16 16 0 -2
BITMAP
8800
FC00
C9FF
D830
D030
D030
D830
C830
CC30
CC30
CC30
FC30
D830
C030
C7FF
C000
ENDCHAR
STARTCHAR 232f
ENCODING 9007
SWIDTH 362 0
DWIDTH 16 0
BBX 16 16 0 -2
BITMAP
0002
FFFF
0C40
0C60
0C60
6C60
6C60
6F7F
6C60
6C60
6C60
6C60
6C61
6F63
F87F
4000
ENDCHAR
STARTCHAR 2330
ENCODING 9008
SWIDTH 362 0
DWIDTH 16 0
BBX 16 16 0 -2
BITMAP
1800
31FF
3C18
2618
6218
7C18
C018
8418
7E18
0C18
0818
3818
1818
1C18
0CF8
0030
ENDCHAR
STARTCHAR 2331
ENCODING 9009
SWIDTH 362 0
DWIDTH 16 0
BBX 16 16 0 -2
BITMAP
0300
0183
FFFF
0002
7FFF
0180
2184
7FFE
6184
63E4
6634
6C14
7004
6004
603C
6008
ENDCHAR
STARTCHAR 2332
ENCODING 9010
SWIDTH 362 0
DWIDTH 16 0
BBX 16 16 0 -2
BITMAP
1C30
1836
1832
37FF
3630
7630
7637
B636
3636
3614
361C
3658
379D
333D
3067
3183
ENDCHAR
STARTCHAR 2333
ENCODING 9011
SWIDTH 362 0
DWIDTH 16 0
BBX 16 16 0 -2
BITMAP
1802
37FF
3002
2342
6332
661E
EFFA
E992
6192
6112
6332
66F2
6C62
6006
603E
600C
ENDCHAR
STARTCHAR 2334
ENCODING 9012
SWIDTH 362 0
DWIDTH 16 0
BBX 16 16 0 -2
BITMAP
1C30
1830
1B27
3326
3326
7326
7326
B3FE
3020
3020
3723
3623
3623
3623
3633
3603
ENDCHAR
STARTCHAR 2335
ENCODING 9013
SWIDTH 362 0
DWIDTH 16 0
BBX 16 16 0 -2
BITMAP
0180
0180
018C
0180
1198
0998
09B0
0183
FFFF
0460
0C60
0C60
1861
3061
607F
C03F
ENDCHAR
STARTCHAR 2336
ENCODING 9014
SWIDTH 362 0
DWIDTH 16 0
BBX 16 16 0 -2
BITMAP
0300
0180
03C0
0630
0C1E
300F
FFFC
0000
300C
300C
300C
3FFC
300C
300C
3FFC
3008
ENDCHAR
STARTCHAR 2337
ENCODING 9015
SWIDTH 362 0
DWIDTH 16 0
BBX 16 16 0 -2
BITMAP
0300
0180
03C0
0630
0C1E
318F
F99C
1198
1198
3FF8
0180
318C
318C
218C
318C
200C
ENDCHAR
STARTCHAR 2338
ENCODING 9016
SWIDTH 362 0
DWIDTH 16 0
BBX 16 16 0 -2
BITMAP
0300
0180
03C0
0630
0C3E
33FF
DD90
0998
0DB0
05A6
7FFE
0180
0180
0180
0F80
0300
ENDCHAR
STARTCHAR 2339
ENCODING 9017
SWIDTH 362 0
DWIDTH 16 0
BBX 16 16 0 -2
BITMAP
0660
0C30
181C
3007
6040
0630
0C18
180F
6007
DFF8
1818
1818
1818
1818
1FF8
1008
ENDCHAR
STARTCHAR 233a
ENCODING 9018
SWIDTH 362 0
DWIDTH 16 0
BBX 16 16 0 -2
BITMAP
0180
318C
218C
3FFC
2180
FFFF
0000
7FFC
6004
6004
6034
6004
6004
6004
603C
6008
ENDCHAR
STARTCHAR 233b
ENCODING 9019
SWIDTH 362 0
DWIDTH 16 0
BBX 16 16 0 -2
BITMAP
0202
C7FF
6603
2603
0EDB
0EDB
16DB
16DB
36DB
26FB
E6C3
C603
6603
6603
661F
0606
ENDCHAR
STARTCHAR 233c
ENCODING 9020
SWIDTH 362 0
DWIDTH 16 0
BBX 16 16 0 -2
BITMAP
1818
1830
3424
664E
FBF2
4040
0830
1830
1810
1B10
1990
1890
1811
3011
601F
C01F
ENDCHAR
STARTCHAR 233d
ENCODING 9021
SWIDTH 362 0
DWIDTH 16 0
BBX 16 16 0 -2
BITMAP
1803
0C03
0C9A
FFD2
0C12
1812
3312
6312
7612
1C12
1812
1012
3102
6782
F8DE
4046
ENDCHAR
STARTCHAR 233e
ENCODING 9022
SWIDTH 362 0
DWIDTH 16 0
BBX 16 16 0 -2
BITMAP
0083
FF83
081A
0812
CD92
CD92
CD92
DD92
D392
E392
C192
C192
C182
C182
C79E
C306
ENDCHAR
STARTCHAR 233f
ENCODING 9023
SWIDTH 362 0
DWIDTH 16 0
BBX 16 16 0 -2
BITMAP
1803
1083
FF9A
3112
6192
C092
8312
3312
3312
3392
3092
2092
2082
6182
4F9E
8306
ENDCHAR
STARTCHAR 2340
ENCODING 9024
SWIDTH 362 0
DWIDTH 16 0
BBX 16 16 0 -2
BITMAP
0183
FF83
0C32
1832
3C22
6E22
9E22
3222
6722
CF22
1B22
3322
E302
0302
3E1E
0C06
ENDCHAR
STARTCHAR 2341
ENCODING 9025
SWIDTH 362 0
DWIDTH 16 0
BBX 16 16 0 -2
BITMAP
0303
6303
231A
1612
0C12
1F92
61D2
CC12
0992
FF92
C992
C992
C982
CF82
C91E
0806
ENDCHAR
STARTCHAR 2342
ENCODING 9026
SWIDTH 362 0
DWIDTH 16 0
BBX 16 16 0 -2
BITMAP
1703
1603
161A
1612
1612
F7D2
1612
1612
1612
1612
1612
1612
1642
36C2
F3DE
8006
ENDCHAR
STARTCHAR 2343
ENCODING 9027
SWIDTH 362 0
DWIDTH 16 0
BBX 16 16 0 -2
BITMAP
1C03
D983
D932
D932
FF32
0032
0332
3332
2132
2132
2132
6132
6102
4302
DF1E
8606
ENDCHAR
STARTCHAR 2344
ENCODING 9028
SWIDTH 362 0
DWIDTH 16 0
BBX 16 16 0 -2
BITMAP
0E06
7866
1866
1866
1B66
1866
1866
1866
1C66
3E66
3D06
3C1E
2C0D
6C01
4FFF
87FF
ENDCHAR
STARTCHAR 2345
ENCODING 9029
SWIDTH 362 0
DWIDTH 16 0
BBX 16 16 0 -2
BITMAP
0C03
0D03
DFB2
C832
C832
C832
C9B2
FFB2
19B2
19B2
39B2
29B2
4F82
8902
081E
0806
ENDCHAR
STARTCHAR 2346
ENCODING 9030
SWIDTH 362 0
DWIDTH 16 0
BBX 16 16 0 -2
BITMAP
1803
F0C3
DFDA
DED2
DED2
DED2
DED2
DED2
DED2
FED2
DED2
D7D2
3782
2602
461E
8606
ENDCHAR
STARTCHAR 2347
ENCODING 9031
SWIDTH 362 0
DWIDTH 16 0
BBX 16 16 0 -2
BITMAP
1C30
1830
1A30
7F30
5B7F
5833
5A33
7F33
6233
5633
4E23
CC63
9E63
B3C3
E09E
010C
ENDCHAR
STARTCHAR 2348
ENCODING 9032
SWIDTH 362 0
DWIDTH 16 0
BBX 16 16 0 -2
BITMAP
3000
3002
3FFF
2203
6112
5FF2
8302
0662
0CC2
0382
0662
0CF2
1F96
1806
007C
0018
ENDCHAR
STARTCHAR 2349
ENCODING 9033
SWIDTH 362 0
DWIDTH 16 0
BBX 16 16 0 -2
BITMAP
3000
3002
3FFF
2183
6102
5FF2
8102
0102
1FF2
0602
0422
0872
1F9E
1016
007C
0018
ENDCHAR
STARTCHAR 234a
ENCODING 9034
SWIDTH 362 0
DWIDTH 16 0
BBX 16 16 0 -2
BITMAP
0C00
0FF8
0818
1830
3360
0182
7FFF
C002
D800
1818
19F8
1E00
1802
1804
1FFC
0FFC
ENDCHAR
STARTCHAR 234b
ENCODING 9035
SWIDTH 362 0
DWIDTH 16 0
BBX 16 16 0 -2
BITMAP
4002
7FFF
4000
400C
5FFC
4080
4080
4FF8
4080
4090
4098
4084
5FFC
4000
C003
4000
ENDCHAR
STARTCHAR 234c
ENCODING 9036
SWIDTH 362 0
DWIDTH 16 0
BBX 16 16 0 -2
BITMAP
0002
FFFF
4300
5E7E
5966
5966
5966
5966
5F66
5B66
4B7C
4660
4C60
6000
7FFF
0000
ENDCHAR
STARTCHAR 234d
ENCODING 9037
SWIDTH 362 0
DWIDTH 16 0
BBX 16 16 0 -2
BITMAP
1C18
1810
1836
19F0
1990
7FFE
1990
1990
19B3
0180
0180
7FFE
0180
0180
0180
0100
ENDCHAR
STARTCHAR 234e
ENCODING 9038
SWIDTH 362 0
DWIDTH 16 0
BBX 16 16 0 -2
BITMAP
0300
0300
030C
0300
0300
FFFF
0000
1FFC
1808
1808
1FF8
1180
30C0
3078
601F
C007
ENDCHAR
STARTCHAR 234f
ENCODING 9039
SWIDTH 362 0
DWIDTH 16 0
BBX 16 16 0 -2
BITMAP
0180
0180
01FE
0180
418E
6006
6186
6186
6186
63C6
6366
663E
781E
6006
7FFE
4004
ENDCHAR
STARTCHAR 2350
ENCODING 9040
SWIDTH 362 0
DWIDTH 16 0
BBX 16 16 0 -2
BITMAP
4002
7FFF
6300
6308
63FC
6618
6D30
68E0
60E0
61BC
664F
5C73
4030
C0C0
8030
8010
ENDCHAR
STARTCHAR 2351
ENCODING 9041
SWIDTH 362 0
DWIDTH 16 0
BBX 16 16 0 -2
BITMAP
11CC
118C
3FFC
2184
3186
3FFE
2004
7FFF
4000
4000
4000
4000
4000
4000
C000
8000
ENDCHAR
STARTCHAR 2352
ENCODING 9042
SWIDTH 362 0
DWIDTH 16 0
BBX 16 16 0 -2
BITMAP
1802
D9BF
DB02
DB12
DA72
DCD6
DE96
DB9C
D91C
FB8C
52CC
17FC
3676
2033
4063
80C1
ENDCHAR
STARTCHAR 2353
ENCODING 9043
SWIDTH 362 0
DWIDTH 16 0
BBX 16 16 0 -2
BITMAP
0018
000C
0008
2008
3FF8
6004
7FFE
0006
3FF6
0026
3FE6
3066
3FE6
200C
00F8
0030
ENDCHAR
STARTCHAR 2354
ENCODING 9044
SWIDTH 362 0
DWIDTH 16 0
BBX 16 16 0 -2
BITMAP
0000
03FF
DB6C
DB6C
DB6C
DB6C
DB6C
DB6C
DB4C
DBCE
DB87
FB00
C300
0300
03FF
0000
ENDCHAR
STARTCHAR 2355
ENCODING 9045
SWIDTH 362 0
DWIDTH 16 0
BBX 16 16 0 -2
BITMAP
0002
03FF
D860
D840
D8C4
D88C
D90C
D998
D870
D830
D860
F8C4
C0C2
018F
03FB
0101
ENDCHAR
STARTCHAR 2356
ENCODING 9046
SWIDTH 362 0
DWIDTH 16 0
BBX 16 16 0 -2
BITMAP
0000
01FF
D983
CD82
C982
C982
C982
C9FE
C982
C982
C982
F982
C982
01FE
0182
0100
ENDCHAR
STARTCHAR 2357
ENCODING 9047
SWIDTH 362 0
DWIDTH 16 0
BBX 16 16 0 -2
BITMAP
0004
03FE
D80C
D898
D870
D823
DBFF
D822
D820
D820
D820
F820
C020
0020
01E0
0060
ENDCHAR
STARTCHAR 2358
ENCODING 9048
SWIDTH 362 0
DWIDTH 16 0
BBX 16 16 0 -2
BITMAP
0030
0030
D830
D9B4
D932
DB33
DA31
DE30
D830
DA30
D980
F860
C030
001E
0007
0003
ENDCHAR
STARTCHAR 2359
ENCODING 9049
SWIDTH 362 0
DWIDTH 16 0
BBX 16 16 0 -2
BITMAP
0600
0600
0603
0E00
0C30
0C30
0820
1FFF
3020
6020
C236
0303
0202
0202
0302
0302
ENDCHAR
STARTCHAR 235a
ENCODING 9050
SWIDTH 362 0
DWIDTH 16 0
BBX 16 16 0 -2
BITMAP
2008
3FFC
300C
300C
300C
3FFC
0030
1FF8
0180
3FFC
0180
FFFF
0180
0180
0F80
0300
ENDCHAR
STARTCHAR 235b
ENCODING 9051
SWIDTH 362 0
DWIDTH 16 0
BBX 16 16 0 -2
BITMAP
00FC
3F00
3000
3FFF
3030
3030
3030
3030
2030
6020
5FFC
900C
100C
100C
1FFC
1008
ENDCHAR
STARTCHAR 235c
ENCODING 9052
SWIDTH 362 0
DWIDTH 16 0
BBX 16 16 0 -2
BITMAP
0070
0060
D866
D860
D860
DBFF
D800
D9FE
D80E
D818
D860
F9C0
C301
0201
03FF
01FF
ENDCHAR
STARTCHAR 235d
ENCODING 9053
SWIDTH 362 0
DWIDTH 16 0
BBX 16 16 0 -2
BITMAP
2030
3030
2020
2020
F833
2030
2030
2070
2070
2048
20C8
388C
7184
C366
0633
0C11
ENDCHAR
STARTCHAR 235e
ENCODING 9054
SWIDTH 362 0
DWIDTH 16 0
BBX 16 16 0 -2
BITMAP
0004
7FFE
6184
6184
7FFC
6002
6002
3FFE
1FFC
0180
0184
3FFC
0180
0180
0183
0000
ENDCHAR
STARTCHAR 235f
ENCODING 9055
SWIDTH 362 0
DWIDTH 16 0
BBX 16 16 0 -2
BITMAP
2040
32C3
231F
2213
FA13
2213
2213
2213
2213
2213
2213
3AD3
739F
C312
0010
0010
ENDCHAR
STARTCHAR 2360
ENCODING 9056
SWIDTH 362 0
DWIDTH 16 0
BBX 16 16 0 -2
BITMAP
0E06
7CFE
60C6
60C6
60C6
6EC6
78DE
60C4
0180
0180
0184
3FFC
0180
0180
0183
0000
ENDCHAR
STARTCHAR 2361
ENCODING 9057
SWIDTH 362 0
DWIDTH 16 0
BBX 16 16 0 -2
BITMAP
801C
FF18
C018
C218
FF7E
E318
E218
F218
D618
D618
DC18
CCFF
9E00
B300
E1FF
C07E
ENDCHAR
STARTCHAR 2362
ENCODING 9058
SWIDTH 362 0
DWIDTH 16 0
BBX 16 16 0 -2
BITMAP
0700
0610
0FF8
1C30
63C0
0380
0370
0DBF
31B7
DFF0
0188
3FFC
0182
7FFE
0180
0100
ENDCHAR
STARTCHAR 2363
ENCODING 9059
SWIDTH 362 0
DWIDTH 16 0
BBX 16 16 0 -2
BITMAP
0018
3FF8
0018
001B
FFFF
0820
103E
661F
0C18
3FF8
1C30
3660
63C0
07F0
1C3F
E00F
ENDCHAR
STARTCHAR 2364
ENCODING 9060
SWIDTH 362 0
DWIDTH 16 0
BBX 16 16 0 -2
BITMAP
000C
0180
0106
7FFE
0640
0C41
1863
767F
8C00
3FF8
1C30
3660
63C0
07F0
1C3F
E00F
ENDCHAR
STARTCHAR 2365
ENCODING 9061
SWIDTH 362 0
DWIDTH 16 0
BBX 16 16 0 -2
BITMAP
2000
61FF
61A4
6DA4
FDA4
EDA4
6DA4
6DA4
4DE4
C9E4
F9C7
3180
3D80
6780
C1FF
0000
ENDCHAR
STARTCHAR 2366
ENCODING 9062
SWIDTH 362 0
DWIDTH 16 0
BBX 16 16 0 -2
BITMAP
2102
61FF
6180
6D82
FDFF
EDE2
6DE2
6DE2
4DE2
C9FE
F9E6
3160
3D61
6761
C27F
043F
ENDCHAR
STARTCHAR 2367
ENCODING 9063
SWIDTH 362 0
DWIDTH 16 0
BBX 16 16 0 -2
BITMAP
60C0
60C0
7FFE
60C0
60C2
7EFE
707E
2600
0630
FFFF
0C20
1860
1EC0
03F0
0E1C
700E
ENDCHAR
STARTCHAR 2368
ENCODING 9064
SWIDTH 362 0
DWIDTH 16 0
BBX 16 16 0 -2
BITMAP
0402
FEFF
4806
4808
C810
CA10
FE10
19FF
1810
3810
2810
6810
4810
8810
78F0
1820
ENDCHAR
STARTCHAR 2369
ENCODING 9065
SWIDTH 362 0
DWIDTH 16 0
BBX 16 16 0 -2
BITMAP
0018
1C38
03E0
03F8
3C0C
1FF8
0C70
03C0
06F8
381F
CFF2
00C2
7FFF
0180
0F80
0300
ENDCHAR
STARTCHAR 236a
ENCODING 9066
SWIDTH 362 0
DWIDTH 16 0
BBX 16 16 0 -2
BITMAP
1818
0770
03F0
3C1C
1008
0C30
03C0
07F0
1C3F
DFF3
0070
01C2
7FFF
0180
0F80
0300
ENDCHAR
STARTCHAR 236b
ENCODING 9067
SWIDTH 362 0
DWIDTH 16 0
BBX 16 16 0 -2
BITMAP
30C0
30C0
30C3
30FF
FEAB
3DAB
3C6B
3C7B
3C5B
2CD3
2CB3
6D7E
6C05
4C01
CFFF
87FF
ENDCHAR
STARTCHAR 236c
ENCODING 9068
SWIDTH 362 0
DWIDTH 16 0
BBX 16 16 0 -2
BITMAP
3004
3006
3064
3024
FE04
3CC4
3C64
3C04
3C0F
2C0C
2C04
6C04
6C05
4C01
CFFF
87FF
ENDCHAR
STARTCHAR 236d
ENCODING 9069
SWIDTH 362 0
DWIDTH 16 0
BBX 16 16 0 -2
BITMAP
3000
30FE
30C6
30C6
FEC6
3CC6
3CFE
3CC6
3CC6
2CC6
2CC6
6CC6
6C01
4C01
CFFF
87FF
ENDCHAR
STARTCHAR 236e
ENCODING 9070
SWIDTH 362 0
DWIDTH 16 0
BBX 16 16 0 -2
BITMAP
3002
30FF
3080
3080
FEFE
3CA6
3CA6
3CB4
3C9C
2D98
2DBC
6F67
6EC2
4C00
CFFF
87FF
ENDCHAR
STARTCHAR 236f
ENCODING 9071
SWIDTH 362 0
DWIDTH 16 0
BBX 16 16 0 -2
BITMAP
4006
7FFE
6006
7FFE
6080
60CC
608C
7FFF
60C0
61E0
41E0
4360
C660
CC61
987F
F03E
ENDCHAR
STARTCHAR 2370
ENCODING 9072
SWIDTH 362 0
DWIDTH 16 0
BBX 16 16 0 -2
BITMAP
3006
3004
3064
3024
F404
B484
B4C4
B464
B404
B404
B5FF
B404
FC04
0004
0004
0004
ENDCHAR
STARTCHAR 2371
ENCODING 9073
SWIDTH 362 0
DWIDTH 16 0
BBX 16 16 0 -2
BITMAP
3030
3034
3032
3032
F633
B430
B430
B430
B438
B478
B478
B4D8
FCD8
0199
031F
0C0F
ENDCHAR
STARTCHAR 2372
ENCODING 9074
SWIDTH 362 0
DWIDTH 16 0
BBX 16 16 0 -2
BITMAP
30CC
30C6
3083
3183
F705
B444
B44C
B46C
B468
B438
B438
B438
FC68
00CC
0187
0703
ENDCHAR
STARTCHAR 2373
ENCODING 9075
SWIDTH 362 0
DWIDTH 16 0
BBX 16 16 0 -2
BITMAP
2018
30D0
2090
A192
ADFE
AD10
AF10
AC10
AC33
AC30
AC10
AC10
FC10
0010
0010
0010
ENDCHAR
STARTCHAR 2374
ENCODING 9076
SWIDTH 362 0
DWIDTH 16 0
BBX 16 16 0 -2
BITMAP
200E
31F8
2198
A198
AD98
AD9B
ADFF
AD98
AD98
AD98
AD98
AD88
FD8C
01A5
01C7
0183
ENDCHAR
STARTCHAR 2375
ENCODING 9077
SWIDTH 362 0
DWIDTH 16 0
BBX 16 16 0 -2
BITMAP
2060
31D3
211F
A11B
AD1B
AD1B
AD1B
AD1B
AD1B
AD1B
AD1B
AD7B
FDDF
019A
0018
0010
ENDCHAR
STARTCHAR 2376
ENCODING 9078
SWIDTH 362 0
DWIDTH 16 0
BBX 16 16 0 -2
BITMAP
201E
31E0
2180
A1FF
AD83
AD83
AD83
ADFF
AD83
AD80
AD80
AD00
FD00
0300
0200
0400
ENDCHAR
STARTCHAR 2377
ENCODING 9079
SWIDTH 362 0
DWIDTH 16 0
BBX 16 16 0 -2
BITMAP
2030
3070
2070
A0C8
ACCC
AD87
AF8F
ACCC
AC8C
AC8C
AC8C
AD8C
FD8C
010C
020C
040C
ENDCHAR
STARTCHAR 2378
ENCODING 9080
SWIDTH 362 0
DWIDTH 16 0
BBX 16 16 0 -2
BITMAP
0618
7E18
4618
7698
5EDB
4E9B
469B
FE9B
469B
469B
469B
469B
469B
C69B
DEFF
8C03
ENDCHAR
STARTCHAR 2379
ENCODING 9081
SWIDTH 362 0
DWIDTH 16 0
BBX 16 16 0 -2
BITMAP
0180
7186
6184
6184
7FFC
0180
0180
218C
3998
1990
0340
0260
0430
0818
300F
E003
ENDCHAR
STARTCHAR 237a
ENCODING 9082
SWIDTH 362 0
DWIDTH 16 0
BBX 16 16 0 -2
BITMAP
01C0
7187
6186
6186
7FFE
4000
7FFE
6000
6004
6FFE
6000
4000
4000
4000
BFFF
8000
ENDCHAR
STARTCHAR 237b
ENCODING 9083
SWIDTH 362 0
DWIDTH 16 0
BBX 16 16 0 -2
BITMAP
1004
1FFC
1000
1008
1FFC
1000
1000
FFFF
0000
30C6
318C
6308
4318
318C
10C6
18C2
ENDCHAR
STARTCHAR 237c
ENCODING 9084
SWIDTH 362 0
DWIDTH 16 0
BBX 16 16 0 -2
BITMAP
0004
01FE
FE66
1066
1066
11FE
1066
1066
107E
10E6
16C6
F8C6
C186
0307
0607
0C03
ENDCHAR
STARTCHAR 237d
ENCODING 9085
SWIDTH 362 0
DWIDTH 16 0
BBX 16 16 0 -2
BITMAP
3030
3030
3420
FFFE
B426
B426
B426
B426
B5FF
B460
B460
BC4C
30C6
3083
3103
3601
ENDCHAR
STARTCHAR 237e
ENCODING 9086
SWIDTH 362 0
DWIDTH 16 0
BBX 16 16 0 -2
BITMAP
3060
3020
3432
FFFF
B59B
B5BB
B5BB
B5AF
B5EF
B5C7
B587
BD83
3183
3183
319F
3106
ENDCHAR
STARTCHAR 2421
ENCODING 9249
SWIDTH 362 0
DWIDTH 16 0
BBX 16 16 0 -2
BITMAP
3006
307E
35B0
FE30
B430
B433
B5FF
B430
B430
B468
B468
BCCC
30C4
3186
3303
3603
ENDCHAR
STARTCHAR 2422
ENCODING 9250
SWIDTH 362 0
DWIDTH 16 0
BBX 16 16 0 -2
BITMAP
30C0
30C0
30C0
FCFF
B4B3
B5B6
B530
B430
B430
B478
BC68
BC4C
30C4
3186
3303
3601
ENDCHAR
STARTCHAR 2423
ENCODING 9251
SWIDTH 362 0
DWIDTH 16 0
BBX 16 16 0 -2
BITMAP
3006
31FF
31B6
FDB6
B5B6
B5B6
B5B6
B5B6
B5B6
B5B6
BDB6
BD32
3132
3333
3233
3421
ENDCHAR
STARTCHAR 2424
ENCODING 9252
SWIDTH 362 0
DWIDTH 16 0
BBX 16 16 0 -2
BITMAP
3030
3030
3068
FC4C
B4C6
B487
B50F
B400
B400
B5FE
BC06
BC04
300C
3008
3018
3010
ENDCHAR
STARTCHAR 2425
ENCODING 9253
SWIDTH 362 0
DWIDTH 16 0
BBX 16 16 0 -2
BITMAP
00F8
1F00
1000
1FFC
1000
1000
3003
01C0
0180
7FFC
6184
6184
6184
61BC
619C
0100
ENDCHAR
STARTCHAR 2426
ENCODING 9254
SWIDTH 362 0
DWIDTH 16 0
BBX 16 16 0 -2
BITMAP
1002
307F
3018
6418
4618
FF7F
EC18
2C18
2C18
2C18
2C18
6C18
6C19
4C01
CFFF
87FF
ENDCHAR
STARTCHAR 2427
ENCODING 9255
SWIDTH 362 0
DWIDTH 16 0
BBX 16 16 0 -2
BITMAP
C408
CC18
CC10
D830
D166
F366
CE3C
C61C
CC18
CE10
DB36
FFFE
F9F2
C000
C003
C000
ENDCHAR
STARTCHAR 2428
ENCODING 9256
SWIDTH 362 0
DWIDTH 16 0
BBX 16 16 0 -2
BITMAP
0180
4083
7FFF
60C0
60C0
6FFF
78C6
70C4
60E0
60E0
61E0
4160
4360
C661
987F
F03E
ENDCHAR
STARTCHAR 2429
ENCODING 9257
SWIDTH 362 0
DWIDTH 16 0
BBX 16 16 0 -2
BITMAP
0180
4083
7FFF
6000
7FFF
60E0
6180
670C
6C18
63B0
60E0
4180
4304
CC1E
BFF3
9801
ENDCHAR
STARTCHAR 242a
ENCODING 9258
SWIDTH 362 0
DWIDTH 16 0
BBX 16 16 0 -2
BITMAP
0180
4083
7FFF
6060
6040
6046
7F4C
6378
6370
6270
6658
444C
4C47
D843
E3C0
8080
ENDCHAR
STARTCHAR 242b
ENCODING 9259
SWIDTH 362 0
DWIDTH 16 0
BBX 16 16 0 -2
BITMAP
0180
4083
7FFF
6000
603E
6FC0
6040
6040
6042
6FFE
6040
4040
4040
C040
80C3
8000
ENDCHAR
STARTCHAR 242c
ENCODING 9260
SWIDTH 362 0
DWIDTH 16 0
BBX 16 16 0 -2
BITMAP
0180
4083
7FFF
6180
6318
630C
6308
6209
644F
7867
6040
5FFF
4040
C040
8040
8040
ENDCHAR
STARTCHAR 242d
ENCODING 9261
SWIDTH 362 0
DWIDTH 16 0
BBX 16 16 0 -2
BITMAP
0180
4083
7FFF
6180
6100
6208
6404
7FFE
7FB2
61B0
6130
4330
4230
C631
8C3F
B01F
ENDCHAR
STARTCHAR 242e
ENCODING 9262
SWIDTH 362 0
DWIDTH 16 0
BBX 16 16 0 -2
BITMAP
0030
0036
0022
0023
FFFF
0020
7F20
6120
6130
7F30
6110
6118
6119
7F0D
6007
0003
ENDCHAR
STARTCHAR 242f
ENCODING 9263
SWIDTH 362 0
DWIDTH 16 0
BBX 16 16 0 -2
BITMAP
0820
FC30
09FF
0860
4860
4862
C07F
CC63
FC62
0C42
0CC2
0CC2
0C82
0D86
FB3C
3608
ENDCHAR
STARTCHAR 2430
ENCODING 9264
SWIDTH 362 0
DWIDTH 16 0
BBX 16 16 0 -2
BITMAP
0804
FDFE
080C
0848
4830
4833
C3FF
CC32
FC30
0C30
0C30
0C30
0C30
0C30
F9F0
3060
ENDCHAR
STARTCHAR 2431
ENCODING 9265
SWIDTH 362 0
DWIDTH 16 0
BBX 16 16 0 -2
BITMAP
0830
FC30
0820
09FE
4826
4826
C026
CC26
FDFF
0C60
0C60
0C4C
0CC6
0C83
F903
3601
ENDCHAR
STARTCHAR 2432
ENCODING 9266
SWIDTH 362 0
DWIDTH 16 0
BBX 16 16 0 -2
BITMAP
000C
000C
0004
3FFC
2000
6003
7FFF
0303
4313
3333
135E
0784
0CC0
1870
301E
C00E
ENDCHAR
STARTCHAR 2433
ENCODING 9267
SWIDTH 362 0
DWIDTH 16 0
BBX 16 16 0 -2
BITMAP
1800
1FF8
1818
3FF0
0030
FFFF
0C60
183F
601F
D018
0C30
0660
03C0
03F0
0C3F
F007
ENDCHAR
STARTCHAR 2434
ENCODING 9268
SWIDTH 362 0
DWIDTH 16 0
BBX 16 16 0 -2
BITMAP
1800
1BFF
3084
2084
4C84
0884
18CF
30CC
3084
7084
9184
1184
1104
1304
1204
1404
ENDCHAR
STARTCHAR 2435
ENCODING 9269
SWIDTH 362 0
DWIDTH 16 0
BBX 16 16 0 -2
BITMAP
1802
19FE
3000
2000
4C00
0803
1BFF
3048
3048
70C8
90C8
10C8
1188
1109
130F
1607
ENDCHAR
STARTCHAR 2436
ENCODING 9270
SWIDTH 362 0
DWIDTH 16 0
BBX 16 16 0 -2
BITMAP
1840
1AC3
331F
2213
4E13
1A13
3213
3213
7213
F213
B213
32D3
339F
3312
3010
3010
ENDCHAR
STARTCHAR 2437
ENCODING 9271
SWIDTH 362 0
DWIDTH 16 0
BBX 16 16 0 -2
BITMAP
0000
0C7F
0508
3308
3308
3208
3608
7608
7D08
FD88
F888
B808
3108
3308
5F38
8018
ENDCHAR
STARTCHAR 2438
ENCODING 9272
SWIDTH 362 0
DWIDTH 16 0
BBX 16 16 0 -2
BITMAP
3000
33FF
3030
3030
7830
FC30
F030
B032
31FE
3030
3030
3030
3030
3030
3033
3000
ENDCHAR
STARTCHAR 2439
ENCODING 9273
SWIDTH 362 0
DWIDTH 16 0
BBX 16 16 0 -2
BITMAP
3040
3020
3333
3333
7B33
FF3B
F36B
B34F
33CF
3387
3303
3303
3303
3303
331F
3306
ENDCHAR
STARTCHAR 243a
ENCODING 9274
SWIDTH 362 0
DWIDTH 16 0
BBX 16 16 0 -2
BITMAP
3106
30CC
3038
303C
78C6
FF02
F030
B030
3030
33FF
3030
3030
3030
3030
3030
3030
ENDCHAR
STARTCHAR 243b
ENCODING 9275
SWIDTH 362 0
DWIDTH 16 0
BBX 16 16 0 -2
BITMAP
0630
7FF4
0E32
1E33
6630
C633
FFFF
0036
0016
0016
001C
0018
0019
002D
00C7
0303
ENDCHAR
STARTCHAR 243c
ENCODING 9276
SWIDTH 362 0
DWIDTH 16 0
BBX 16 16 0 -2
BITMAP
3002
31FF
3002
3002
F9FE
3180
3183
3903
7003
F003
3003
3006
307C
3008
F003
6000
ENDCHAR
STARTCHAR 243d
ENCODING 9277
SWIDTH 362 0
DWIDTH 16 0
BBX 16 16 0 -2
BITMAP
3002
31FF
3182
3182
F982
33FF
3182
3982
7182
F3FF
3182
3182
3182
3182
F19E
6106
ENDCHAR
STARTCHAR 243e
ENCODING 9278
SWIDTH 362 0
DWIDTH 16 0
BBX 16 16 0 -2
BITMAP
3030
3030
3030
31B4
F9B2
3133
3331
3A30
7030
F030
3180
30C0
3030
3018
F00F
6003
ENDCHAR
STARTCHAR 243f
ENCODING 9279
SWIDTH 362 0
DWIDTH 16 0
BBX 16 16 0 -2
BITMAP
3070
1860
1860
FF63
607F
6046
60C6
60A6
6024
603C
6018
6018
603C
7F66
00C7
0183
ENDCHAR
STARTCHAR 2440
ENCODING 9280
SWIDTH 362 0
DWIDTH 16 0
BBX 16 16 0 -2
BITMAP
0660
FE60
C660
C643
F6FF
DEC6
CEC4
C644
C66C
C62C
C638
CC38
C038
C06C
C0C7
C303
ENDCHAR
STARTCHAR 2441
ENCODING 9281
SWIDTH 362 0
DWIDTH 16 0
BBX 16 16 0 -2
BITMAP
1C30
5830
5820
5B63
FF7F
DB66
5BE6
5AA4
5A34
581C
4018
4118
431C
7F26
7F47
0183
ENDCHAR
STARTCHAR 2442
ENCODING 9282
SWIDTH 362 0
DWIDTH 16 0
BBX 16 16 0 -2
BITMAP
0004
7FFE
6180
6182
7FFE
0240
0441
187F
307F
C000
3FFC
2004
2004
2004
300C
300C
ENDCHAR
STARTCHAR 2443
ENCODING 9283
SWIDTH 362 0
DWIDTH 16 0
BBX 16 16 0 -2
BITMAP
0002
01FF
FC62
CC62
CC62
CD62
CDE2
FCE2
CC62
CC42
CCC2
CCC2
FD82
8306
063C
0C08
ENDCHAR
STARTCHAR 2444
ENCODING 9284
SWIDTH 362 0
DWIDTH 16 0
BBX 16 16 0 -2
BITMAP
4002
7FFF
C002
FFFE
0000
0008
1FFC
1008
1008
1008
1008
1FF8
3008
3008
6078
C018
ENDCHAR
STARTCHAR 2445
ENCODING 9285
SWIDTH 362 0
DWIDTH 16 0
BBX 16 16 0 -2
BITMAP
1818
1010
1010
FDFF
1193
3193
3993
3D93
7593
7193
D193
9193
1197
1112
1010
1010
ENDCHAR
STARTCHAR 2446
ENCODING 9286
SWIDTH 362 0
DWIDTH 16 0
BBX 16 16 0 -2
BITMAP
0180
0102
7FFF
0600
0C10
1818
3FFC
1C04
0180
0180
FFFF
1180
199C
3186
6183
C100
ENDCHAR
STARTCHAR 2447
ENCODING 9287
SWIDTH 362 0
DWIDTH 16 0
BBX 16 16 0 -2
BITMAP
0070
3060
1860
FF43
60FF
60D2
6090
6010
6030
6038
6038
602C
7E6C
3EC6
0183
0301
ENDCHAR
STARTCHAR 2448
ENCODING 9288
SWIDTH 362 0
DWIDTH 16 0
BBX 16 16 0 -2
BITMAP
0060
4460
7E40
46C3
46FF
4692
4710
4410
4030
4038
4028
466C
5CC4
7086
4103
0601
ENDCHAR
STARTCHAR 2449
ENCODING 9289
SWIDTH 362 0
DWIDTH 16 0
BBX 16 16 0 -2
BITMAP
0018
3018
1818
FF18
6018
61D8
619A
6198
6198
6198
6198
6198
7F98
3F98
019B
0000
ENDCHAR
STARTCHAR 244a
ENCODING 9290
SWIDTH 362 0
DWIDTH 16 0
BBX 16 16 0 -2
BITMAP
0004
19FE
1844
1844
5844
5844
5E4C
59FC
5844
5844
5844
5844
5E45
F047
C043
0043
ENDCHAR
STARTCHAR 244b
ENCODING 9291
SWIDTH 362 0
DWIDTH 16 0
BBX 16 16 0 -2
BITMAP
0038
0FC0
0080
0080
00CC
18C0
1880
18FC
1880
1880
1882
FFFF
0000
0004
7FFE
0000
ENDCHAR
STARTCHAR 244c
ENCODING 9292
SWIDTH 362 0
DWIDTH 16 0
BBX 16 16 0 -2
BITMAP
1802
183F
1B82
1802
1812
FF92
C196
C196
C196
C19C
FF8C
C19C
C19C
C1B6
C7E3
C3C1
ENDCHAR
STARTCHAR 244d
ENCODING 9293
SWIDTH 362 0
DWIDTH 16 0
BBX 16 16 0 -2
BITMAP
1DDC
1998
1110
3330
1998
088C
088C
7FFF
0608
0FFC
1C1C
7738
01E0
01C0
0E00
7800
ENDCHAR
STARTCHAR 244e
ENCODING 9294
SWIDTH 362 0
DWIDTH 16 0
BBX 16 16 0 -2
BITMAP
0044
467E
7E64
4664
4644
46C7
4680
46FE
4046
4024
402C
4238
4218
7E2C
7E47
0183
ENDCHAR
STARTCHAR 244f
ENCODING 9295
SWIDTH 362 0
DWIDTH 16 0
BBX 16 16 0 -2
BITMAP
40C0
60C4
7EFE
60C0
6EC2
78FE
607E
000C
3FFC
0180
0182
FFFF
0180
0180
0180
0100
ENDCHAR
STARTCHAR 2450
ENCODING 9296
SWIDTH 362 0
DWIDTH 16 0
BBX 16 16 0 -2
BITMAP
198C
1198
2310
2310
1198
1888
0100
0180
058C
7F98
05E0
0DE0
19B0
319F
6787
C300
ENDCHAR
STARTCHAR 2451
ENCODING 9297
SWIDTH 362 0
DWIDTH 16 0
BBX 16 16 0 -2
BITMAP
2002
37FF
1020
0030
8860
48C0
798C
118C
3078
3030
6060
E0C0
6184
631E
63E2
2102
ENDCHAR
STARTCHAR 2452
ENCODING 9298
SWIDTH 362 0
DWIDTH 16 0
BBX 16 16 0 -2
BITMAP
2030
3030
1020
003F
8820
4820
7836
1186
3086
308C
604C
E078
6030
607C
618F
2703
ENDCHAR
STARTCHAR 2453
ENCODING 9299
SWIDTH 362 0
DWIDTH 16 0
BBX 16 16 0 -2
BITMAP
4198
2190
0310
0310
8AFF
D613
5613
1A13
3213
2233
6233
E233
6223
6263
62DE
238C
ENDCHAR
STARTCHAR 2454
ENCODING 9300
SWIDTH 362 0
DWIDTH 16 0
BBX 16 16 0 -2
BITMAP
3002
31FE
3020
3460
BE63
F8C0
70C0
3080
31FE
3006
3006
2806
6C06
4404
C07C
8018
ENDCHAR
STARTCHAR 2455
ENCODING 9301
SWIDTH 362 0
DWIDTH 16 0
BBX 16 16 0 -2
BITMAP
3082
3183
3192
3592
BD92
F992
7192
3192
3192
3192
3192
2912
6D12
4712
C202
8402
ENDCHAR
STARTCHAR 2456
ENCODING 9302
SWIDTH 362 0
DWIDTH 16 0
BBX 16 16 0 -2
BITMAP
0180
0300
FFFF
0600
0C30
18F8
3F0C
1904
0180
218C
3998
1BD0
0660
0C38
180F
E003
ENDCHAR
STARTCHAR 2457
ENCODING 9303
SWIDTH 362 0
DWIDTH 16 0
BBX 16 16 0 -2
BITMAP
0400
0FFC
181C
3030
40C0
0080
0080
0080
0080
0080
0780
0180
4846
4463
C623
8221
ENDCHAR
STARTCHAR 2458
ENCODING 9304
SWIDTH 362 0
DWIDTH 16 0
BBX 16 16 0 -2
BITMAP
00F8
3F88
010C
1998
0830
1FF0
01C0
0E04
180C
1FFC
1FF8
0C38
0660
03C0
0E7F
F00E
ENDCHAR
STARTCHAR 2459
ENCODING 9305
SWIDTH 362 0
DWIDTH 16 0
BBX 16 16 0 -2
BITMAP
4C18
4CD8
4CD8
4C98
4CDF
4DDB
409B
409A
7C9A
4C9C
4C98
4C80
CC81
CC81
8CFF
8C7F
ENDCHAR
STARTCHAR 245a
ENCODING 9306
SWIDTH 362 0
DWIDTH 16 0
BBX 16 16 0 -2
BITMAP
0802
5BFF
3088
3088
5088
9888
18CF
18CC
3888
6888
C988
0988
0908
1B08
7A08
3408
ENDCHAR
STARTCHAR 245b
ENCODING 9307
SWIDTH 362 0
DWIDTH 16 0
BBX 16 16 0 -2
BITMAP
0800
5BFF
3040
3040
50C4
98FE
18C6
1886
3884
6984
C9FC
080C
080C
1808
780F
3000
ENDCHAR
STARTCHAR 245c
ENCODING 9308
SWIDTH 362 0
DWIDTH 16 0
BBX 16 16 0 -2
BITMAP
0840
5820
3222
33FF
5333
9B33
1B3B
1B6B
3B4F
6BCF
CB87
0B03
0B03
1B03
7B1F
3306
ENDCHAR
STARTCHAR 245d
ENCODING 9309
SWIDTH 362 0
DWIDTH 16 0
BBX 16 16 0 -2
BITMAP
09C0
5980
3183
3183
5303
9A03
19FB
1803
3803
6813
C9FB
0803
0803
1806
783E
300C
ENDCHAR
STARTCHAR 245e
ENCODING 9310
SWIDTH 362 0
DWIDTH 16 0
BBX 16 16 0 -2
BITMAP
0804
5BFE
3084
308C
508C
988E
18FF
18A2
38A6
69B6
C99C
091C
0B1C
1B36
7E63
3D81
ENDCHAR
STARTCHAR 245f
ENCODING 9311
SWIDTH 362 0
DWIDTH 16 0
BBX 16 16 0 -2
BITMAP
0830
5870
3070
30C8
508C
9987
1B0B
1A00
3800
69FC
C804
080C
0808
1818
7810
3030
ENDCHAR
STARTCHAR 2460
ENCODING 9312
SWIDTH 362 0
DWIDTH 16 0
BBX 16 16 0 -2
BITMAP
001C
0C18
FC18
301B
33FF
3018
3898
3098
30D8
3050
3070
3C30
F078
C0DC
018F
0702
ENDCHAR
STARTCHAR 2461
ENCODING 9313
SWIDTH 362 0
DWIDTH 16 0
BBX 16 16 0 -2
BITMAP
000E
0C3C
FDE0
3060
3060
3060
3862
33FF
3060
3060
3060
3C60
F061
C061
007F
003F
ENDCHAR
STARTCHAR 2462
ENCODING 9314
SWIDTH 362 0
DWIDTH 16 0
BBX 16 16 0 -2
BITMAP
0002
7FFF
C003
8002
7FFE
0C00
0C10
0FF8
0A10
0990
08B0
1830
1831
1BB3
7C3F
601E
ENDCHAR
STARTCHAR 2463
ENCODING 9315
SWIDTH 362 0
DWIDTH 16 0
BBX 16 16 0 -2
BITMAP
0180
3188
3FFC
3188
3FF8
3188
3FF8
0018
7FF8
1818
181E
1003
0002
0006
007C
0008
ENDCHAR
STARTCHAR 2464
ENCODING 9316
SWIDTH 362 0
DWIDTH 16 0
BBX 16 16 0 -2
BITMAP
0080
2043
3FFF
A180
E100
E100
2330
2330
6110
E110
6310
6310
6211
4611
CC1F
B01F
ENDCHAR
STARTCHAR 2465
ENCODING 9317
SWIDTH 362 0
DWIDTH 16 0
BBX 16 16 0 -2
BITMAP
0080
20C3
3FFF
A006
E204
E20C
220C
2308
6118
E1B0
60F0
60E0
60F0
4198
C60F
9C06
ENDCHAR
STARTCHAR 2466
ENCODING 9318
SWIDTH 362 0
DWIDTH 16 0
BBX 16 16 0 -2
BITMAP
0018
3010
2010
FC10
C410
C410
C5FF
C410
FC10
C410
C410
C410
FC10
C410
0010
0010
ENDCHAR
STARTCHAR 2467
ENCODING 9319
SWIDTH 362 0
DWIDTH 16 0
BBX 16 16 0 -2
BITMAP
1800
19FF
1818
7E18
5E18
5818
5818
7E18
4618
6418
5C18
DC18
9618
A218
40F8
0030
ENDCHAR
STARTCHAR 2468
ENCODING 9320
SWIDTH 362 0
DWIDTH 16 0
BBX 16 16 0 -2
BITMAP
1800
19FF
1863
7E62
5E62
5862
5862
7E62
4662
6442
5CC2
DCC2
9686
A386
433C
0618
ENDCHAR
STARTCHAR 2469
ENCODING 9321
SWIDTH 362 0
DWIDTH 16 0
BBX 16 16 0 -2
BITMAP
0006
FDFE
CC06
CD06
CC86
FC84
CC8C
CC4C
CC58
CC30
CC30
CC78
CC58
CC8E
0107
0602
ENDCHAR
STARTCHAR 246a
ENCODING 9322
SWIDTH 362 0
DWIDTH 16 0
BBX 16 16 0 -2
BITMAP
0030
7E30
6620
6620
6620
7E38
662C
6626
6623
6623
6620
6620
6620
6620
4020
0020
ENDCHAR
STARTCHAR 246b
ENCODING 9323
SWIDTH 362 0
DWIDTH 16 0
BBX 16 16 0 -2
BITMAP
2008
3FFC
3008
3FF8
3008
3FF8
3008
3FF8
0188
0183
FFFF
0180
0180
0180
0180
0100
ENDCHAR
STARTCHAR 246c
ENCODING 9324
SWIDTH 362 0
DWIDTH 16 0
BBX 16 16 0 -2
BITMAP
0030
FF30
3020
3020
2020
6438
7E2C
6626
E623
E623
6620
6620
7E20
6420
0020
0020
ENDCHAR
STARTCHAR 246d
ENCODING 9325
SWIDTH 362 0
DWIDTH 16 0
BBX 16 16 0 -2
BITMAP
0030
FC10
20D0
20D8
60D8
60C8
7CC8
ECC8
EC8C
EC8C
6D84
6D86
7D06
6B06
4203
0601
ENDCHAR
STARTCHAR 246e
ENCODING 9326
SWIDTH 362 0
DWIDTH 16 0
BBX 16 16 0 -2
BITMAP
0C02
79FF
1006
1008
FE10
3010
3810
3C10
7610
7410
D010
9010
1010
1010
10F0
1020
ENDCHAR
STARTCHAR 246f
ENCODING 9327
SWIDTH 362 0
DWIDTH 16 0
BBX 16 16 0 -2
BITMAP
0180
4083
7FFF
CC62
9874
303E
4000
3FFE
0038
00E0
0080
0080
0080
0080
0780
0180
ENDCHAR
STARTCHAR 2470
ENCODING 9328
SWIDTH 362 0
DWIDTH 16 0
BBX 16 16 0 -2
BITMAP
0180
4083
7FFF
CC62
9874
303E
4820
1FF0
1830
1830
1830
1830
1831
3031
603F
C01F
ENDCHAR
STARTCHAR 2471
ENCODING 9329
SWIDTH 362 0
DWIDTH 16 0
BBX 16 16 0 -2
BITMAP
0000
0006
7FFE
0306
0326
1326
1B46
0B96
7FFE
1306
1B66
3336
6316
C306
033C
0008
ENDCHAR
STARTCHAR 2472
ENCODING 9330
SWIDTH 362 0
DWIDTH 16 0
BBX 16 16 0 -2
BITMAP
0802
7FFF
4800
4860
6840
5840
49FC
484C
584C
78CC
48CC
488C
C98C
C90D
BB0F
9E07
ENDCHAR
STARTCHAR 2473
ENCODING 9331
SWIDTH 362 0
DWIDTH 16 0
BBX 16 16 0 -2
BITMAP
080E
7C7C
49C0
4840
6840
5840
4842
4BFF
5840
7840
4840
4840
C841
C841
B87F
987F
ENDCHAR
STARTCHAR 2474
ENCODING 9332
SWIDTH 362 0
DWIDTH 16 0
BBX 16 16 0 -2
BITMAP
1002
31FF
7C06
4C0C
7C18
5C30
4C60
FC40
CCC0
7D80
5D80
4D00
CD01
CD01
BDFF
98FF
ENDCHAR
STARTCHAR 2475
ENCODING 9333
SWIDTH 362 0
DWIDTH 16 0
BBX 16 16 0 -2
BITMAP
3002
31FF
3006
340C
FE18
B430
B460
B4C0
FC80
FD80
3300
3B00
3F01
FF03
C5FF
0000
ENDCHAR
STARTCHAR 2476
ENCODING 9334
SWIDTH 362 0
DWIDTH 16 0
BBX 16 16 0 -2
BITMAP
0006
7FFE
0660
0660
7FFC
6664
6664
6664
6664
6664
6664
7FFC
0000
0000
0003
0000
ENDCHAR
STARTCHAR 2477
ENCODING 9335
SWIDTH 362 0
DWIDTH 16 0
BBX 16 16 0 -2
BITMAP
0180
03C0
0630
0C1C
198C
6380
06C0
0C60
1838
300F
701F
D818
1818
1818
1818
1810
ENDCHAR
STARTCHAR 2478
ENCODING 9336
SWIDTH 362 0
DWIDTH 16 0
BBX 16 16 0 -2
BITMAP
0008
601C
3030
1060
018C
F01C
3030
2070
78F0
59B0
1830
3030
3030
7800
CFFF
01FC
ENDCHAR
STARTCHAR 2479
ENCODING 9337
SWIDTH 362 0
DWIDTH 16 0
BBX 16 16 0 -2
BITMAP
1B22
133F
1332
1336
7FB4
133C
1336
1332
33F3
3331
1331
333F
3337
2330
6330
C330
ENDCHAR
STARTCHAR 247a
ENCODING 9338
SWIDTH 362 0
DWIDTH 16 0
BBX 16 16 0 -2
BITMAP
0822
0C3F
1E26
1324
31AC
63A8
5F24
8022
7F23
0323
0323
023F
0626
0420
0C20
0820
ENDCHAR
STARTCHAR 247b
ENCODING 9339
SWIDTH 362 0
DWIDTH 16 0
BBX 16 16 0 -2
BITMAP
4870
7C60
4860
59FE
5066
5066
5866
4866
4FFF
4C60
4C48
7CC4
58C6
4183
4303
4601
ENDCHAR
STARTCHAR 247c
ENCODING 9340
SWIDTH 362 0
DWIDTH 16 0
BBX 16 16 0 -2
BITMAP
9800
FFFF
D830
D060
F040
E0CC
D19C
D998
C8F0
C860
C8C0
F8CC
D18E
C3FE
C383
C000
ENDCHAR
STARTCHAR 247d
ENCODING 9341
SWIDTH 362 0
DWIDTH 16 0
BBX 16 16 0 -2
BITMAP
9808
FFFC
D98C
D18C
F188
E19E
D1FE
D9E6
C9A6
C9A4
C93C
F918
D318
C22E
C4C7
C982
ENDCHAR
STARTCHAR 247e
ENCODING 9342
SWIDTH 362 0
DWIDTH 16 0
BBX 16 16 0 -2
BITMAP
480E
7DF8
4D90
4990
5990
5190
49FF
4D90
4D98
4598
4D98
7D88
498C
41E5
41C7
4183
ENDCHAR
STARTCHAR 2521
ENCODING 9505
SWIDTH 362 0
DWIDTH 16 0
BBX 16 16 0 -2
BITMAP
1CDC
D8D8
D998
D998
D97F
DB18
DB18
DF1C
DD3C
D93E
F95B
199B
1918
1918
1918
1918
ENDCHAR
STARTCHAR 2522
ENCODING 9506
SWIDTH 362 0
DWIDTH 16 0
BBX 16 16 0 -2
BITMAP
0006
0200
0300
1FF8
1818
1998
1898
7FFF
1818
1998
1898
1018
3078
6030
0003
0000
ENDCHAR
STARTCHAR 2523
ENCODING 9507
SWIDTH 362 0
DWIDTH 16 0
BBX 16 16 0 -2
BITMAP
0300
0183
FFFF
0008
3FFC
3008
3008
3FF8
3108
0180
0303
0300
0630
0C0C
3806
E003
ENDCHAR
STARTCHAR 2524
ENCODING 9508
SWIDTH 362 0
DWIDTH 16 0
BBX 16 16 0 -2
BITMAP
1D0C
188C
18DA
33FF
3020
7020
7020
B023
37FF
3070
3070
30C8
308C
3186
3307
3C03
ENDCHAR
STARTCHAR 2525
ENCODING 9509
SWIDTH 362 0
DWIDTH 16 0
BBX 16 16 0 -2
BITMAP
1C60
1820
1803
30D8
3058
7058
735C
B35A
325B
36DB
34D9
3898
3198
3118
3378
3630
ENDCHAR
STARTCHAR 2526
ENCODING 9510
SWIDTH 362 0
DWIDTH 16 0
BBX 16 16 0 -2
BITMAP
1C04
1BFE
1B64
3364
3374
73DC
738C
B7FF
3403
3403
3403
3403
3403
3403
341F
3406
ENDCHAR
STARTCHAR 2527
ENCODING 9511
SWIDTH 362 0
DWIDTH 16 0
BBX 16 16 0 -2
BITMAP
1DC0
1986
19FE
318C
3278
7430
707C
B18F
3633
3030
3036
3030
3020
3020
3033
3000
ENDCHAR
STARTCHAR 2528
ENCODING 9512
SWIDTH 362 0
DWIDTH 16 0
BBX 16 16 0 -2
BITMAP
1C60
1860
1BFE
3306
3306
7306
7306
B306
3302
33FF
3302
3302
3302
3302
33FE
3302
ENDCHAR
STARTCHAR 2529
ENCODING 9513
SWIDTH 362 0
DWIDTH 16 0
BBX 16 16 0 -2
BITMAP
1C60
1840
1BFF
3203
320F
728F
724B
B23B
3233
323B
324F
3287
3303
3203
33FF
3200
ENDCHAR
STARTCHAR 252a
ENCODING 9514
SWIDTH 362 0
DWIDTH 16 0
BBX 16 16 0 -2
BITMAP
1C0E
1BF0
1A00
3202
32FF
72DA
72DA
B2DA
32DA
32C2
32C0
32C0
36C1
36C1
34FF
307F
ENDCHAR
STARTCHAR 252b
ENCODING 9515
SWIDTH 362 0
DWIDTH 16 0
BBX 16 16 0 -2
BITMAP
1DB3
1B32
1A64
3264
3332
71B3
7010
B030
3030
3333
3333
3333
3333
3333
3333
3303
ENDCHAR
STARTCHAR 252c
ENCODING 9516
SWIDTH 362 0
DWIDTH 16 0
BBX 16 16 0 -2
BITMAP
0008
3FFC
200C
2FFC
200C
202C
2FEC
2108
0180
0183
FFFF
0980
1998
3186
C182
0100
ENDCHAR
STARTCHAR 252d
ENCODING 9517
SWIDTH 362 0
DWIDTH 16 0
BBX 16 16 0 -2
BITMAP
4002
7FFF
C002
BFFC
200C
202C
2FEC
204C
27EC
266C
266C
264C
200C
200C
207C
2018
ENDCHAR
STARTCHAR 252e
ENCODING 9518
SWIDTH 362 0
DWIDTH 16 0
BBX 16 16 0 -2
BITMAP
0006
C3FF
6020
2020
0822
0FFF
1020
1020
3222
23FF
E202
C202
6202
6202
63FE
0202
ENDCHAR
STARTCHAR 252f
ENCODING 9519
SWIDTH 362 0
DWIDTH 16 0
BBX 16 16 0 -2
BITMAP
10C0
30C4
30FE
2DC4
6D4C
6E28
EC30
EC38
6C4E
6CE7
6F38
6C18
6C00
6870
6018
6008
ENDCHAR
STARTCHAR 2530
ENCODING 9520
SWIDTH 362 0
DWIDTH 16 0
BBX 16 16 0 -2
BITMAP
8103
FF83
C132
C132
FF32
C132
C132
FF32
C032
F1B2
DB32
CC32
C602
DB02
E19E
C006
ENDCHAR
STARTCHAR 2531
ENCODING 9521
SWIDTH 362 0
DWIDTH 16 0
BBX 16 16 0 -2
BITMAP
0183
7F83
031A
0612
0412
34D2
FF12
1612
3712
3512
25D2
44D2
9C02
0802
00DE
0006
ENDCHAR
STARTCHAR 2532
ENCODING 9522
SWIDTH 362 0
DWIDTH 16 0
BBX 16 16 0 -2
BITMAP
0180
0180
7FFC
6184
6184
7FFC
0180
01A0
0D30
181C
300F
631B
8618
0C10
19F0
6060
ENDCHAR
STARTCHAR 2533
ENCODING 9523
SWIDTH 362 0
DWIDTH 16 0
BBX 16 16 0 -2
BITMAP
0C03
0F83
3F9A
0C12
0C92
7FD2
0C12
0CD2
FFD2
1C12
1F12
3D92
6CC2
CC02
8C1E
0C06
ENDCHAR
STARTCHAR 2534
ENCODING 9524
SWIDTH 362 0
DWIDTH 16 0
BBX 16 16 0 -2
BITMAP
0F83
F003
301A
FFD2
3412
2612
6412
7FD2
64D2
E492
E492
6492
6482
6582
041E
0406
ENDCHAR
STARTCHAR 2535
ENCODING 9525
SWIDTH 362 0
DWIDTH 16 0
BBX 16 16 0 -2
BITMAP
0C03
1803
331A
6212
FC12
1812
1192
23D2
FCD2
4412
2412
6592
64C2
44C2
BC1E
0806
ENDCHAR
STARTCHAR 2536
ENCODING 9526
SWIDTH 362 0
DWIDTH 16 0
BBX 16 16 0 -2
BITMAP
0403
3203
2332
6332
41B2
80B2
1832
FFB2
0232
6232
3632
1C32
0E02
1F02
331E
C106
ENDCHAR
STARTCHAR 2537
ENCODING 9527
SWIDTH 362 0
DWIDTH 16 0
BBX 16 16 0 -2
BITMAP
0470
4660
6C60
FE62
11FF
1063
7C62
1062
1062
FE62
1042
10C2
30C2
2186
633C
C608
ENDCHAR
STARTCHAR 2538
ENCODING 9528
SWIDTH 362 0
DWIDTH 16 0
BBX 16 16 0 -2
BITMAP
1C18
1810
1B10
1810
187F
1813
FF13
1C13
1813
1B33
7F33
1823
1863
1B43
FCDE
418C
ENDCHAR
STARTCHAR 2539
ENCODING 9529
SWIDTH 362 0
DWIDTH 16 0
BBX 16 16 0 -2
BITMAP
1030
3430
FE30
C630
C6FF
C633
C633
C433
C633
FE33
C623
C663
C663
C6C3
FE9E
C10C
ENDCHAR
STARTCHAR 253a
ENCODING 9530
SWIDTH 362 0
DWIDTH 16 0
BBX 16 16 0 -2
BITMAP
0618
1F10
E010
C010
C07F
FF13
C013
C013
E613
F333
E233
E223
E263
A243
BEDE
238C
ENDCHAR
STARTCHAR 253b
ENCODING 9531
SWIDTH 362 0
DWIDTH 16 0
BBX 16 16 0 -2
BITMAP
3018
3010
6610
C710
F97F
5813
5813
5B13
FF13
9833
1933
FF23
1863
1843
18DE
198C
ENDCHAR
STARTCHAR 253c
ENCODING 9532
SWIDTH 362 0
DWIDTH 16 0
BBX 16 16 0 -2
BITMAP
6D18
5B10
9210
DB10
697F
0013
FF13
2013
2213
3F33
2333
6323
6363
4343
DEDE
8D8C
ENDCHAR
STARTCHAR 253d
ENCODING 9533
SWIDTH 362 0
DWIDTH 16 0
BBX 16 16 0 -2
BITMAP
6300
2302
83FF
DE82
54E2
3062
6002
E03E
600C
6180
030E
0306
0606
0C06
307C
E008
ENDCHAR
STARTCHAR 253e
ENCODING 9534
SWIDTH 362 0
DWIDTH 16 0
BBX 16 16 0 -2
BITMAP
4002
7FFF
4100
40C0
4120
4218
440E
5FFE
40C0
40C8
47F8
40C0
40CC
4000
C003
4000
ENDCHAR
STARTCHAR 253f
ENCODING 9535
SWIDTH 362 0
DWIDTH 16 0
BBX 16 16 0 -2
BITMAP
4002
7FFF
4480
4D98
4F10
5BA6
76CC
4E48
5E70
7630
461C
47CE
4706
4200
C003
4000
ENDCHAR
STARTCHAR 2540
ENCODING 9536
SWIDTH 362 0
DWIDTH 16 0
BBX 16 16 0 -2
BITMAP
0008
7DFC
104C
11CC
10EC
1DBD
F30F
4707
0180
0180
0183
0180
0180
0180
0180
0100
ENDCHAR
STARTCHAR 2541
ENCODING 9537
SWIDTH 362 0
DWIDTH 16 0
BBX 16 16 0 -2
BITMAP
4002
7FFF
6600
6402
6FFF
6C80
6880
70FE
6080
6080
60C6
40C0
4080
C080
80C3
8000
ENDCHAR
STARTCHAR 2542
ENCODING 9538
SWIDTH 362 0
DWIDTH 16 0
BBX 16 16 0 -2
BITMAP
0300
0182
7FFF
0180
0380
07B8
0D8E
3187
E183
0108
1FFC
1008
1008
1008
1FF8
1008
ENDCHAR
STARTCHAR 2543
ENCODING 9539
SWIDTH 362 0
DWIDTH 16 0
BBX 16 16 0 -2
BITMAP
0002
FFFF
0008
3FFC
0208
FFFF
0208
0608
3FF8
0C00
1FFC
3C04
6C04
CC04
0FFC
0C04
ENDCHAR
STARTCHAR 2544
ENCODING 9540
SWIDTH 362 0
DWIDTH 16 0
BBX 16 16 0 -2
BITMAP
0030
0030
D830
DBFF
D830
D830
D832
D9FF
D830
D878
D8FC
F8B6
C137
0233
0430
0030
ENDCHAR
STARTCHAR 2545
ENCODING 9541
SWIDTH 362 0
DWIDTH 16 0
BBX 16 16 0 -2
BITMAP
0002
03FF
DB00
DB04
DB7E
DB66
DB66
DB66
DB66
DB66
DB7E
FB44
C300
0300
03FF
0000
ENDCHAR
STARTCHAR 2546
ENCODING 9542
SWIDTH 362 0
DWIDTH 16 0
BBX 16 16 0 -2
BITMAP
0034
0036
D822
D820
DFFF
D820
D9A6
D9A4
D9A4
D9A4
D9A4
F924
C326
0227
0420
0020
ENDCHAR
STARTCHAR 2547
ENCODING 9543
SWIDTH 362 0
DWIDTH 16 0
BBX 16 16 0 -2
BITMAP
0200
03FF
DA00
DAFE
DA18
DA18
DA18
DA1B
DBFF
DA18
DA18
FE18
C618
0418
0C18
0810
ENDCHAR
STARTCHAR 2548
ENCODING 9544
SWIDTH 362 0
DWIDTH 16 0
BBX 16 16 0 -2
BITMAP
0000
0302
DBFF
DB5A
DB5A
DB5A
DB5A
DB5A
DB5A
DB5A
DB5A
FB5A
C35A
035A
07FF
0000
ENDCHAR
STARTCHAR 2549
ENCODING 9545
SWIDTH 362 0
DWIDTH 16 0
BBX 16 16 0 -2
BITMAP
0030
003E
D8FE
D820
DB26
D9A4
D8A8
D823
DFFF
D820
D820
F820
C020
0020
01E0
0060
ENDCHAR
STARTCHAR 254a
ENCODING 9546
SWIDTH 362 0
DWIDTH 16 0
BBX 16 16 0 -2
BITMAP
01C0
0180
D982
D9FF
DB32
DA30
D830
D9B0
D9B6
D933
DB33
FA31
C430
0030
01F0
0060
ENDCHAR
STARTCHAR 254b
ENCODING 9547
SWIDTH 362 0
DWIDTH 16 0
BBX 16 16 0 -2
BITMAP
0043
07C3
F99A
D99A
D99A
D99A
DFFA
D99A
D99A
D99A
D99A
F992
D182
0182
018E
0106
ENDCHAR
STARTCHAR 254c
ENCODING 9548
SWIDTH 362 0
DWIDTH 16 0
BBX 16 16 0 -2
BITMAP
000C
007E
D9C0
D900
D900
D900
D9FF
D918
D918
D918
D918
F918
C118
0118
031B
0000
ENDCHAR
STARTCHAR 254d
ENCODING 9549
SWIDTH 362 0
DWIDTH 16 0
BBX 16 16 0 -2
BITMAP
0006
007F
DBE0
D820
D830
D802
DBFF
D806
D818
D830
D860
F8C0
C100
0700
07FF
003E
ENDCHAR
STARTCHAR 254e
ENCODING 9550
SWIDTH 362 0
DWIDTH 16 0
BBX 16 16 0 -2
BITMAP
4006
7FFE
4466
4C66
587E
7006
4006
7FFE
4000
200C
3FFC
200C
200C
200C
3FFC
2008
ENDCHAR
STARTCHAR 254f
ENCODING 9551
SWIDTH 362 0
DWIDTH 16 0
BBX 16 16 0 -2
BITMAP
3018
300C
3008
3008
3FF8
0180
7FFF
D80B
9FFC
1000
3FFC
000C
000C
000C
01F8
0030
ENDCHAR
STARTCHAR 2550
ENCODING 9552
SWIDTH 362 0
DWIDTH 16 0
BBX 16 16 0 -2
BITMAP
2008
3FFC
200C
200C
200C
3FFC
2000
07FC
3980
0180
FFFF
07C0
0DB0
199C
318F
C103
ENDCHAR
STARTCHAR 2551
ENCODING 9553
SWIDTH 362 0
DWIDTH 16 0
BBX 16 16 0 -2
BITMAP
0180
318C
218C
218C
3FFC
0180
0182
7FFF
0180
0180
1FF8
1018
1018
1018
1FF8
1008
ENDCHAR
STARTCHAR 2552
ENCODING 9554
SWIDTH 362 0
DWIDTH 16 0
BBX 16 16 0 -2
BITMAP
0180
318C
3188
3FF8
0188
6186
6184
6184
7FFC
0008
3FFC
300C
3008
3008
3FF8
3008
ENDCHAR
STARTCHAR 2553
ENCODING 9555
SWIDTH 362 0
DWIDTH 16 0
BBX 16 16 0 -2
BITMAP
4006
7FFE
4006
4186
44B6
4636
4666
56D6
778E
670E
4626
4FE6
79E6
4006
7FFE
4002
ENDCHAR
STARTCHAR 2554
ENCODING 9556
SWIDTH 362 0
DWIDTH 16 0
BBX 16 16 0 -2
BITMAP
4006
7FFE
4026
4FF6
4826
4826
4FE6
4806
4FF6
4836
4836
4836
4FF6
4806
7FFE
4002
ENDCHAR
STARTCHAR 2555
ENCODING 9557
SWIDTH 362 0
DWIDTH 16 0
BBX 16 16 0 -2
BITMAP
4006
7FFE
4006
5FFE
4606
4606
4416
4FFE
5C16
7416
4416
47F6
4406
4006
7FFE
4002
ENDCHAR
STARTCHAR 2556
ENCODING 9558
SWIDTH 362 0
DWIDTH 16 0
BBX 16 16 0 -2
BITMAP
2030
3036
2022
2023
FBFF
2020
21A6
21A4
21A4
21A4
21A4
3924
7324
C227
0423
0020
ENDCHAR
STARTCHAR 2557
ENCODING 9559
SWIDTH 362 0
DWIDTH 16 0
BBX 16 16 0 -2
BITMAP
0006
7FFE
0C00
1FFC
380C
780C
D80C
1FFC
190C
0180
0184
3FFC
0180
0180
0183
0000
ENDCHAR
STARTCHAR 2558
ENCODING 9560
SWIDTH 362 0
DWIDTH 16 0
BBX 16 16 0 -2
BITMAP
0010
7FF8
0836
1A13
3722
6FF6
DE66
31C0
0300
0D80
338C
071C
19B0
00E0
0380
3C00
ENDCHAR
STARTCHAR 2559
ENCODING 9561
SWIDTH 362 0
DWIDTH 16 0
BBX 16 16 0 -2
BITMAP
0300
0302
7FFE
0C30
181C
3667
C66C
066C
266C
3668
6666
6E66
0C66
087E
1064
6040
ENDCHAR
STARTCHAR 255a
ENCODING 9562
SWIDTH 362 0
DWIDTH 16 0
BBX 16 16 0 -2
BITMAP
0300
0302
7FFE
0C30
181C
3807
D80C
1E00
3600
27F8
4600
0600
07F8
0600
0600
0600
ENDCHAR
STARTCHAR 255b
ENCODING 9563
SWIDTH 362 0
DWIDTH 16 0
BBX 16 16 0 -2
BITMAP
2018
6010
6010
6C12
FDFE
EC10
6C10
6C13
4DFF
C830
F860
3044
3CC6
659F
C3E1
0101
ENDCHAR
STARTCHAR 255c
ENCODING 9564
SWIDTH 362 0
DWIDTH 16 0
BBX 16 16 0 -2
BITMAP
2018
6010
6010
6DFF
FD93
ED92
6D90
6DFE
4DC6
C9E4
F92C
3138
3F38
662E
C6C7
0583
ENDCHAR
STARTCHAR 255d
ENCODING 9565
SWIDTH 362 0
DWIDTH 16 0
BBX 16 16 0 -2
BITMAP
2002
61FF
6182
6D82
FD82
ED82
6DFE
6C68
4C68
C868
F848
30C8
3CC8
6589
C30F
0607
ENDCHAR
STARTCHAR 255e
ENCODING 9566
SWIDTH 362 0
DWIDTH 16 0
BBX 16 16 0 -2
BITMAP
2030
6020
6044
6C86
FFFF
ED03
6CCC
6CCC
4CCC
CBFF
F8CC
30CC
3C8C
658C
C10C
020C
ENDCHAR
STARTCHAR 255f
ENCODING 9567
SWIDTH 362 0
DWIDTH 16 0
BBX 16 16 0 -2
BITMAP
2102
61FF
6193
6D93
FD93
EDFF
6D93
6D93
4D93
C9FF
F993
3193
3D13
6513
C31F
0616
ENDCHAR
STARTCHAR 2560
ENCODING 9568
SWIDTH 362 0
DWIDTH 16 0
BBX 16 16 0 -2
BITMAP
2006
61FF
6190
6D90
FD90
ED93
6DFF
6D90
4D98
C998
F998
318C
3DED
67C7
C08F
0001
ENDCHAR
STARTCHAR 2561
ENCODING 9569
SWIDTH 362 0
DWIDTH 16 0
BBX 16 16 0 -2
BITMAP
200E
61FC
61A4
6DA4
FDA4
EDA4
6DA4
6DA4
4DA4
C9E6
F966
3166
3F4A
67DF
C3E7
0481
ENDCHAR
STARTCHAR 2562
ENCODING 9570
SWIDTH 362 0
DWIDTH 16 0
BBX 16 16 0 -2
BITMAP
0180
618C
7FFE
6184
7FFC
6184
6184
7FFC
0630
0433
FFFF
0860
1840
17E0
077C
780E
ENDCHAR
STARTCHAR 2563
ENCODING 9571
SWIDTH 362 0
DWIDTH 16 0
BBX 16 16 0 -2
BITMAP
0600
0C10
181C
3FEE
3602
FFFF
0C18
1C0C
3637
C433
7FFE
0C30
1860
17E0
073C
780E
ENDCHAR
STARTCHAR 2564
ENCODING 9572
SWIDTH 362 0
DWIDTH 16 0
BBX 16 16 0 -2
BITMAP
0180
4083
7FFF
C002
FFFE
0800
0810
0FF8
1810
1B10
1990
1810
1811
1B93
FC1F
401E
ENDCHAR
STARTCHAR 2565
ENCODING 9573
SWIDTH 362 0
DWIDTH 16 0
BBX 16 16 0 -2
BITMAP
0180
4083
7FFF
C002
9FFC
0030
00C0
0180
0183
0180
0180
1998
3186
6183
C781
0300
ENDCHAR
STARTCHAR 2566
ENCODING 9574
SWIDTH 362 0
DWIDTH 16 0
BBX 16 16 0 -2
BITMAP
0180
4083
7FFF
C602
DE46
6646
6646
6646
6646
6646
6646
7E46
665C
0C48
1840
7040
ENDCHAR
STARTCHAR 2567
ENCODING 9575
SWIDTH 362 0
DWIDTH 16 0
BBX 16 16 0 -2
BITMAP
6018
4018
4218
FF5C
AA5A
AADB
2AD9
6A9A
7B1A
5A1E
D214
B20C
2218
6630
FE60
0D80
ENDCHAR
STARTCHAR 2568
ENCODING 9576
SWIDTH 362 0
DWIDTH 16 0
BBX 16 16 0 -2
BITMAP
2C00
667E
6346
4346
8046
3446
247E
2446
2446
2446
2446
6446
6401
4401
C7FF
87FF
ENDCHAR
STARTCHAR 2569
ENCODING 9577
SWIDTH 362 0
DWIDTH 16 0
BBX 16 16 0 -2
BITMAP
3020
3030
31FF
3103
FE08
3C6C
3C64
3C44
3CC6
2CC3
2D83
6F01
6C00
4C01
CFFF
87FF
ENDCHAR
STARTCHAR 256a
ENCODING 9578
SWIDTH 362 0
DWIDTH 16 0
BBX 16 16 0 -2
BITMAP
30C0
30C0
30FE
3096
FFFE
3C9E
3C9E
3CF6
3C9E
2C84
2CC2
6CFE
6C7E
4C01
CFFF
87FF
ENDCHAR
STARTCHAR 256b
ENCODING 9579
SWIDTH 362 0
DWIDTH 16 0
BBX 16 16 0 -2
BITMAP
3002
31FF
3010
31FF
FF93
3DB2
3DBA
3DEE
3D86
2D82
2D82
6D86
6C01
4C01
CFFF
87FF
ENDCHAR
STARTCHAR 256c
ENCODING 9580
SWIDTH 362 0
DWIDTH 16 0
BBX 16 16 0 -2
BITMAP
4006
7FFE
6006
7FFE
6002
6330
6210
6610
6C1F
7000
47F8
4618
C418
CC19
981F
F00F
ENDCHAR
STARTCHAR 256d
ENCODING 9581
SWIDTH 362 0
DWIDTH 16 0
BBX 16 16 0 -2
BITMAP
0180
7FFE
6186
7FFE
6186
7FFE
4004
4004
7FFE
6006
6006
6004
6000
4000
4000
8000
ENDCHAR
STARTCHAR 256e
ENCODING 9582
SWIDTH 362 0
DWIDTH 16 0
BBX 16 16 0 -2
BITMAP
2002
31FF
2002
A012
ADFA
AC02
ADB2
ADB2
AD92
AD92
ADB2
ADB2
FC02
0002
001E
0006
ENDCHAR
STARTCHAR 256f
ENCODING 9583
SWIDTH 362 0
DWIDTH 16 0
BBX 16 16 0 -2
BITMAP
2030
3030
2032
A1FE
AC30
AC30
AC32
AFFF
AC30
AC78
ACFC
ACB4
FD37
0233
0430
0030
ENDCHAR
STARTCHAR 2570
ENCODING 9584
SWIDTH 362 0
DWIDTH 16 0
BBX 16 16 0 -2
BITMAP
20C6
30C6
2086
A086
ADFF
AC86
AC86
AC86
AC86
ACFE
AC86
AC86
FC86
0086
00FE
0084
ENDCHAR
STARTCHAR 2571
ENCODING 9585
SWIDTH 362 0
DWIDTH 16 0
BBX 16 16 0 -2
BITMAP
2106
3103
2102
A1FE
AD22
AD30
AD24
ADFE
AD24
AD24
AD24
AF64
FF64
02C5
0587
0307
ENDCHAR
STARTCHAR 2572
ENCODING 9586
SWIDTH 362 0
DWIDTH 16 0
BBX 16 16 0 -2
BITMAP
2300
2300
2300
AB43
AFFF
AB7B
AB7B
AB7B
AB7B
AB7B
AB7B
AA7B
FE7B
045B
0FDF
0988
ENDCHAR
STARTCHAR 2573
ENCODING 9587
SWIDTH 362 0
DWIDTH 16 0
BBX 16 16 0 -2
BITMAP
2018
3010
2012
A1FF
AD93
AD93
AD93
ADFF
AC10
AD90
ACF0
AC70
FC70
00DC
018F
0303
ENDCHAR
STARTCHAR 2574
ENCODING 9588
SWIDTH 362 0
DWIDTH 16 0
BBX 16 16 0 -2
BITMAP
2006
303F
21E0
A020
AC10
AC02
ADFF
AC06
AC0C
AC18
AC30
AC60
FCC0
0380
037F
003E
ENDCHAR
STARTCHAR 2575
ENCODING 9589
SWIDTH 362 0
DWIDTH 16 0
BBX 16 16 0 -2
BITMAP
20C0
30C0
20C6
A183
AD02
AFFA
AD9A
AD9A
AD9A
AD92
AD9E
AD84
FD81
0181
01FF
00FF
ENDCHAR
STARTCHAR 2576
ENCODING 9590
SWIDTH 362 0
DWIDTH 16 0
BBX 16 16 0 -2
BITMAP
0002
7FFF
0C00
1FFC
180C
380C
D80C
1FFC
180C
0180
2184
6186
6184
6184
618C
600C
ENDCHAR
STARTCHAR 2577
ENCODING 9591
SWIDTH 362 0
DWIDTH 16 0
BBX 16 16 0 -2
BITMAP
3018
3012
313F
FDB0
B590
B590
B592
B5FF
B433
B473
BC73
BCD3
319F
3312
3610
3010
ENDCHAR
STARTCHAR 2578
ENCODING 9592
SWIDTH 362 0
DWIDTH 16 0
BBX 16 16 0 -2
BITMAP
181C
1818
1A1B
1818
1818
FF7F
DB5B
DA5B
DA5B
DA5B
DA5B
DA5B
DA5B
DE5A
1818
1018
ENDCHAR
STARTCHAR 2579
ENCODING 9593
SWIDTH 362 0
DWIDTH 16 0
BBX 16 16 0 -2
BITMAP
3000
3013
301B
FC62
B466
B464
B46C
B568
B57A
B573
BF71
BE61
30E2
30E2
313E
3600
ENDCHAR
STARTCHAR 257a
ENCODING 9594
SWIDTH 362 0
DWIDTH 16 0
BBX 16 16 0 -2
BITMAP
3000
31FF
3018
FC18
B418
B498
B4D8
B49F
B498
B498
BC98
BC98
3098
3098
30DB
3000
ENDCHAR
STARTCHAR 257b
ENCODING 9595
SWIDTH 362 0
DWIDTH 16 0
BBX 16 16 0 -2
BITMAP
3060
3060
3063
FED8
B4D8
B4D8
B4FF
B59B
B79B
B69B
BC9B
BC9B
309B
309F
309A
3010
ENDCHAR
STARTCHAR 257c
ENCODING 9596
SWIDTH 362 0
DWIDTH 16 0
BBX 16 16 0 -2
BITMAP
307C
3078
307E
FC7B
B47A
B47A
B5FE
B578
B57A
B7FF
BC7B
BC5B
30DB
309A
3118
3618
ENDCHAR
STARTCHAR 257d
ENCODING 9597
SWIDTH 362 0
DWIDTH 16 0
BBX 16 16 0 -2
BITMAP
3002
31FF
3063
FC63
B463
B443
B4DE
B58C
B702
B5FF
BD82
BD82
3182
3182
31FE
3182
ENDCHAR
STARTCHAR 257e
ENCODING 9598
SWIDTH 362 0
DWIDTH 16 0
BBX 16 16 0 -2
BITMAP
30C0
30C0
3180
FDFF
B520
B720
B422
B43F
B420
B420
BC22
BC3F
3020
3020
3020
3020
ENDCHAR
STARTCHAR 2621
ENCODING 9761
SWIDTH 362 0
DWIDTH 16 0
BBX 16 16 0 -2
BITMAP
30C0
30C0
30C3
FD83
B503
B493
B4FB
B49B
B49B
B4FB
BC93
BC03
3003
3006
307E
300C
ENDCHAR
STARTCHAR 2622
ENCODING 9762
SWIDTH 362 0
DWIDTH 16 0
BBX 16 16 0 -2
BITMAP
30C7
30C6
30C6
FC86
B5FF
B586
B7A6
B7B6
B59E
B586
BD86
BD86
3186
3186
319E
3184
ENDCHAR
STARTCHAR 2623
ENCODING 9763
SWIDTH 362 0
DWIDTH 16 0
BBX 16 16 0 -2
BITMAP
301C
30D8
2198
FD18
AB3F
AB5B
AEDB
AB9B
A99B
A99B
AB5B
BFF3
A633
2023
205E
2184
ENDCHAR
STARTCHAR 2624
ENCODING 9764
SWIDTH 362 0
DWIDTH 16 0
BBX 16 16 0 -2
BITMAP
1018
3010
6410
4CD0
C8D6
7893
3191
2110
6513
FE16
F216
100C
1018
1030
10C0
1380
ENDCHAR
STARTCHAR 2625
ENCODING 9765
SWIDTH 362 0
DWIDTH 16 0
BBX 16 16 0 -2
BITMAP
0C0C
1808
3010
6028
D84C
1018
3030
6626
CC66
7C3C
1808
1018
3434
6622
FFFF
C341
ENDCHAR
STARTCHAR 2626
ENCODING 9766
SWIDTH 362 0
DWIDTH 16 0
BBX 16 16 0 -2
BITMAP
0180
4083
7FFF
6060
6040
6043
7FFF
61E0
6350
6358
664C
4C47
58CB
F0C0
8040
8040
ENDCHAR
STARTCHAR 2627
ENCODING 9767
SWIDTH 362 0
DWIDTH 16 0
BBX 16 16 0 -2
BITMAP
0180
4083
7FFF
6300
6202
7FFF
6670
6462
6FFF
6E62
7662
4662
4666
C466
8064
8060
ENDCHAR
STARTCHAR 2628
ENCODING 9768
SWIDTH 362 0
DWIDTH 16 0
BBX 16 16 0 -2
BITMAP
0180
4083
7FFF
6060
6060
6FFF
6863
6862
6C6C
6F0C
690C
4898
58F0
D8F8
939F
BE07
ENDCHAR
STARTCHAR 2629
ENCODING 9769
SWIDTH 362 0
DWIDTH 16 0
BBX 16 16 0 -2
BITMAP
0180
4083
7FFF
6008
6FFC
6C08
6C08
6FF8
6C08
6C0C
6FFE
4C04
4C04
CC04
8FFC
8C04
ENDCHAR
STARTCHAR 262a
ENCODING 9770
SWIDTH 362 0
DWIDTH 16 0
BBX 16 16 0 -2
BITMAP
0180
4083
7FFF
6000
6FFE
6846
6846
6846
6846
6FFE
6846
4846
4846
C846
8FFE
8800
ENDCHAR
STARTCHAR 262b
ENCODING 9771
SWIDTH 362 0
DWIDTH 16 0
BBX 16 16 0 -2
BITMAP
0180
4083
7FFF
6806
6FFE
6816
6BFE
6916
69B6
68E6
68E6
48FE
4B1E
CE06
8FFE
8802
ENDCHAR
STARTCHAR 262c
ENCODING 9772
SWIDTH 362 0
DWIDTH 16 0
BBX 16 16 0 -2
BITMAP
0180
4083
7FFF
601C
63FE
6040
6040
7FFF
61E0
61D0
6358
464C
4C47
D843
B040
8040
ENDCHAR
STARTCHAR 262d
ENCODING 9773
SWIDTH 362 0
DWIDTH 16 0
BBX 16 16 0 -2
BITMAP
0180
4083
7FFF
6620
663E
647E
6DA0
6C20
7C20
6DFF
6C20
4C20
4C20
CC21
8C3F
8C1F
ENDCHAR
STARTCHAR 262e
ENCODING 9774
SWIDTH 362 0
DWIDTH 16 0
BBX 16 16 0 -2
BITMAP
1918
1998
199A
FFFF
1198
3198
2198
4110
1918
1998
199A
FFFF
1198
3198
2198
4110
ENDCHAR
STARTCHAR 262f
ENCODING 9775
SWIDTH 362 0
DWIDTH 16 0
BBX 16 16 0 -2
BITMAP
0818
FC10
0810
0810
49FF
4810
C010
CC10
FCB6
0D83
0D82
0D82
0D82
0D82
F9FE
3182
ENDCHAR
STARTCHAR 2630
ENCODING 9776
SWIDTH 362 0
DWIDTH 16 0
BBX 16 16 0 -2
BITMAP
00C0
0780
3C70
038C
3C78
07C0
7C00
1FF8
1018
1018
1FF8
1018
1FF8
1018
301B
0000
ENDCHAR
STARTCHAR 2631
ENCODING 9777
SWIDTH 362 0
DWIDTH 16 0
BBX 16 16 0 -2
BITMAP
1860
1830
3030
23FF
4C04
0906
1986
3084
30CC
70CC
90C8
1048
1058
1010
1013
1000
ENDCHAR
STARTCHAR 2632
ENCODING 9778
SWIDTH 362 0
DWIDTH 16 0
BBX 16 16 0 -2
BITMAP
1802
1BFF
3010
2030
4C30
0870
18F4
30F2
31B3
7333
9231
1030
1030
1030
1003
1000
ENDCHAR
STARTCHAR 2633
ENCODING 9779
SWIDTH 362 0
DWIDTH 16 0
BBX 16 16 0 -2
BITMAP
1830
1830
3136
2133
4D32
0932
19FE
3132
3132
7132
93FF
1102
1102
1102
110E
1106
ENDCHAR
STARTCHAR 2634
ENCODING 9780
SWIDTH 362 0
DWIDTH 16 0
BBX 16 16 0 -2
BITMAP
0180
08C8
0838
6863
CB8B
8E09
1FF8
E300
0180
FFFF
3000
3000
3000
3000
3FFE
0000
ENDCHAR
STARTCHAR 2635
ENCODING 9781
SWIDTH 362 0
DWIDTH 16 0
BBX 16 16 0 -2
BITMAP
3000
31FF
3000
3102
79FF
FD83
F182
B182
3182
31FE
3182
3182
3182
3182
31FE
3100
ENDCHAR
STARTCHAR 2636
ENCODING 9782
SWIDTH 362 0
DWIDTH 16 0
BBX 16 16 0 -2
BITMAP
7080
67C6
6084
608C
748C
FE8C
E608
E498
6FD8
60D8
6090
60B2
60B3
61FF
67B1
6300
ENDCHAR
STARTCHAR 2637
ENCODING 9783
SWIDTH 362 0
DWIDTH 16 0
BBX 16 16 0 -2
BITMAP
3030
3030
3032
33FF
7B33
FF33
F3FF
B333
3333
33FF
3333
3030
3030
3030
3030
3030
ENDCHAR
STARTCHAR 2638
ENCODING 9784
SWIDTH 362 0
DWIDTH 16 0
BBX 16 16 0 -2
BITMAP
3030
3333
3333
33FF
7803
FDFC
F0C4
B0CC
30CF
30CF
3083
3083
3183
3103
321E
340C
ENDCHAR
STARTCHAR 2639
ENCODING 9785
SWIDTH 362 0
DWIDTH 16 0
BBX 16 16 0 -2
BITMAP
0E0E
7070
4040
7F7F
4343
4343
4343
7F7F
4343
4040
4040
4040
C0C0
C0C0
8080
8080
ENDCHAR
STARTCHAR 263a
ENCODING 9786
SWIDTH 362 0
DWIDTH 16 0
BBX 16 16 0 -2
BITMAP
3018
301B
301B
33FF
FB18
3318
331B
3B1B
731A
F31E
331C
330C
321C
3237
F463
68C1
ENDCHAR
STARTCHAR 263b
ENCODING 9787
SWIDTH 362 0
DWIDTH 16 0
BBX 16 16 0 -2
BITMAP
1802
11FF
1182
1582
FD82
11FE
1182
1D82
7982
F182
11FE
1182
1182
1182
F1FE
2182
ENDCHAR
STARTCHAR 263c
ENCODING 9788
SWIDTH 362 0
DWIDTH 16 0
BBX 16 16 0 -2
BITMAP
3000
33FF
337B
337B
FB7B
337B
337B
3B5B
73DB
F38F
3303
3303
3303
3303
F3FF
6200
ENDCHAR
STARTCHAR 263d
ENCODING 9789
SWIDTH 362 0
DWIDTH 16 0
BBX 16 16 0 -2
BITMAP
3060
3060
33C3
3303
FB03
33FF
334F
3B4F
733B
F333
337F
33CF
3387
3303
F31F
6306
ENDCHAR
STARTCHAR 263e
ENCODING 9790
SWIDTH 362 0
DWIDTH 16 0
BBX 16 16 0 -2
BITMAP
3006
30FF
33B0
3030
F830
3033
33F7
38FC
70F8
F0B8
31B4
3136
3333
3633
F0F0
6060
ENDCHAR
STARTCHAR 263f
ENCODING 9791
SWIDTH 362 0
DWIDTH 16 0
BBX 16 16 0 -2
BITMAP
1830
1830
1A20
1863
1A7F
FF66
DAE6
DAA4
DA34
DA1C
DA18
DA18
DA1C
DE26
1847
1183
ENDCHAR
STARTCHAR 2640
ENCODING 9792
SWIDTH 362 0
DWIDTH 16 0
BBX 16 16 0 -2
BITMAP
0018
FF10
DB10
DA1F
DA10
DA10
DA36
FE47
C246
C024
C02C
C018
C118
C32C
FF47
0383
ENDCHAR
STARTCHAR 2641
ENCODING 9793
SWIDTH 362 0
DWIDTH 16 0
BBX 16 16 0 -2
BITMAP
6030
6030
6320
4363
C37F
8366
7BE6
03A4
0334
0B1C
7B18
0318
031C
0626
3E47
0D83
ENDCHAR
STARTCHAR 2642
ENCODING 9794
SWIDTH 362 0
DWIDTH 16 0
BBX 16 16 0 -2
BITMAP
0180
0380
0660
0FFC
300F
DFFB
0030
0160
0182
01FF
0180
181C
0630
03C0
077F
F80F
ENDCHAR
STARTCHAR 2643
ENCODING 9795
SWIDTH 362 0
DWIDTH 16 0
BBX 16 16 0 -2
BITMAP
2006
303E
FEF0
6030
6032
6DFF
7E30
6430
6430
65FF
6430
4430
4430
CC31
FC3F
981F
ENDCHAR
STARTCHAR 2644
ENCODING 9796
SWIDTH 362 0
DWIDTH 16 0
BBX 16 16 0 -2
BITMAP
0030
0830
FC20
CFFF
CE23
CE26
C820
F878
C878
C858
C8D8
C8D8
F998
8319
061F
0C0F
ENDCHAR
STARTCHAR 2645
ENCODING 9797
SWIDTH 362 0
DWIDTH 16 0
BBX 16 16 0 -2
BITMAP
0000
0BFF
FCC0
CCC0
C884
C8FE
C886
F986
C984
C984
C9FC
C80C
F80C
8008
000F
0000
ENDCHAR
STARTCHAR 2646
ENCODING 9798
SWIDTH 362 0
DWIDTH 16 0
BBX 16 16 0 -2
BITMAP
0030
0836
FC23
CC20
CC33
CC30
C820
F870
C870
C870
C8C8
C8C8
F98C
8306
0607
0C03
ENDCHAR
STARTCHAR 2647
ENCODING 9799
SWIDTH 362 0
DWIDTH 16 0
BBX 16 16 0 -2
BITMAP
0070
0860
FC60
CDFE
C866
C866
C866
F866
CBFF
C860
C848
C8C4
F886
8183
0303
0C01
ENDCHAR
STARTCHAR 2648
ENCODING 9800
SWIDTH 362 0
DWIDTH 16 0
BBX 16 16 0 -2
BITMAP
0040
0820
FF33
CF33
CB33
CB3B
CB6B
FB4F
CBCF
CB87
CB03
CB03
FB03
8303
031F
0306
ENDCHAR
STARTCHAR 2649
ENCODING 9801
SWIDTH 362 0
DWIDTH 16 0
BBX 16 16 0 -2
BITMAP
2008
3FFC
3008
3FF8
3008
3FF8
1810
300E
E01B
3FF8
0830
0660
03C0
03E0
0C3F
F00F
ENDCHAR
STARTCHAR 264a
ENCODING 9802
SWIDTH 362 0
DWIDTH 16 0
BBX 16 16 0 -2
BITMAP
0830
7C30
4830
49FF
4B33
7A32
4830
4838
4838
7878
4878
48D8
C8D8
C999
BB1F
9E0F
ENDCHAR
STARTCHAR 264b
ENCODING 9803
SWIDTH 362 0
DWIDTH 16 0
BBX 16 16 0 -2
BITMAP
0018
0038
07E0
0186
7FFE
0084
0080
0380
0180
0180
FFFF
01A0
1D98
398C
E186
0100
ENDCHAR
STARTCHAR 264c
ENCODING 9804
SWIDTH 362 0
DWIDTH 16 0
BBX 16 16 0 -2
BITMAP
3030
3030
3030
FC33
33FF
3030
79B6
7DB6
71B6
F1B6
B1B6
B1B6
3136
3337
3630
3030
ENDCHAR
STARTCHAR 264d
ENCODING 9805
SWIDTH 362 0
DWIDTH 16 0
BBX 16 16 0 -2
BITMAP
3030
303C
3026
FC22
3033
3030
7820
7C70
7070
F070
B0D0
B0D0
3091
3191
331F
361F
ENDCHAR
STARTCHAR 264e
ENCODING 9806
SWIDTH 362 0
DWIDTH 16 0
BBX 16 16 0 -2
BITMAP
1818
1010
1010
FC10
1190
3190
3992
3D90
7590
7190
D190
9110
1310
1390
167F
1C3E
ENDCHAR
STARTCHAR 264f
ENCODING 9807
SWIDTH 362 0
DWIDTH 16 0
BBX 16 16 0 -2
BITMAP
1806
10CC
1078
FC38
106E
30C6
3900
3C06
7486
7086
D04C
9078
1030
1078
118F
1703
ENDCHAR
STARTCHAR 2650
ENCODING 9808
SWIDTH 362 0
DWIDTH 16 0
BBX 16 16 0 -2
BITMAP
31C0
3182
31FE
FD00
330C
3200
7800
7DFC
7004
F004
B004
B004
3004
3007
3007
3003
ENDCHAR
STARTCHAR 2651
ENCODING 9809
SWIDTH 362 0
DWIDTH 16 0
BBX 16 16 0 -2
BITMAP
3018
3090
3090
FC90
31FF
3110
7B10
7E10
7010
F1FF
B010
B010
3010
3010
3010
3010
ENDCHAR
STARTCHAR 2652
ENCODING 9810
SWIDTH 362 0
DWIDTH 16 0
BBX 16 16 0 -2
BITMAP
300E
31F8
3110
FD10
3110
3110
79FF
7D10
7118
F118
B118
B108
310C
3165
3187
3103
ENDCHAR
STARTCHAR 2653
ENCODING 9811
SWIDTH 362 0
DWIDTH 16 0
BBX 16 16 0 -2
BITMAP
1818
1818
1818
1A1B
FEFF
1818
5E5E
5E5E
5E5E
5E5E
5E5E
5E5E
DF5E
DBDB
9998
1010
ENDCHAR
STARTCHAR 2654
ENCODING 9812
SWIDTH 362 0
DWIDTH 16 0
BBX 16 16 0 -2
BITMAP
0180
0182
7FFF
0380
0FF0
199C
6186
0100
0180
0588
7F98
0DE0
19B0
319F
E786
0300
ENDCHAR
STARTCHAR 2655
ENCODING 9813
SWIDTH 362 0
DWIDTH 16 0
BBX 16 16 0 -2
BITMAP
3006
3018
33F8
3218
3218
3219
2303
63FF
C1FE
0180
0183
0180
1990
398C
6186
C102
ENDCHAR
STARTCHAR 2656
ENCODING 9814
SWIDTH 362 0
DWIDTH 16 0
BBX 16 16 0 -2
BITMAP
2070
3060
FE60
0043
48FF
7CD2
6C90
6C10
6C30
6C38
6C38
6D2C
6E6C
4CC6
C183
8301
ENDCHAR
STARTCHAR 2657
ENCODING 9815
SWIDTH 362 0
DWIDTH 16 0
BBX 16 16 0 -2
BITMAP
7670
6660
6660
6643
FFFF
66D2
6690
6610
6630
6638
6638
662C
666C
7EC6
6583
0301
ENDCHAR
STARTCHAR 2658
ENCODING 9816
SWIDTH 362 0
DWIDTH 16 0
BBX 16 16 0 -2
BITMAP
CC70
CC60
CC60
CC43
CCFF
FFD2
CC90
CC10
CC30
CC38
CC38
CC2C
FF6C
EEC6
CD83
0301
ENDCHAR
STARTCHAR 2659
ENCODING 9817
SWIDTH 362 0
DWIDTH 16 0
BBX 16 16 0 -2
BITMAP
1870
1860
DB60
DB43
DAFF
DAD2
DB90
DB10
FE30
1838
1838
182C
186C
F8C6
C183
0301
ENDCHAR
STARTCHAR 265a
ENCODING 9818
SWIDTH 362 0
DWIDTH 16 0
BBX 16 16 0 -2
BITMAP
1870
1860
1860
5863
7E7F
7BD2
5B90
D810
9B30
1B38
1638
0C2C
186C
30C6
6183
C301
ENDCHAR
STARTCHAR 265b
ENCODING 9819
SWIDTH 362 0
DWIDTH 16 0
BBX 16 16 0 -2
BITMAP
6030
4030
4020
7F63
FF7F
FF5A
BFD8
BF18
2B18
6B18
5B3C
D334
B326
6363
DEC3
0D81
ENDCHAR
STARTCHAR 265c
ENCODING 9820
SWIDTH 362 0
DWIDTH 16 0
BBX 16 16 0 -2
BITMAP
3C70
2C60
2860
6843
68FF
68D2
EF90
E810
6830
6838
6838
692C
696C
6F46
67C3
4301
ENDCHAR
STARTCHAR 265d
ENCODING 9821
SWIDTH 362 0
DWIDTH 16 0
BBX 16 16 0 -2
BITMAP
1870
3C60
2460
6643
66FF
42D2
8790
FE10
3630
3638
3638
362C
266C
6446
5CC3
9981
ENDCHAR
STARTCHAR 265e
ENCODING 9822
SWIDTH 362 0
DWIDTH 16 0
BBX 16 16 0 -2
BITMAP
0018
1818
1818
1818
5818
59D8
5F9A
5998
5998
5998
5998
5998
5F98
F198
C19B
0000
ENDCHAR
STARTCHAR 265f
ENCODING 9823
SWIDTH 362 0
DWIDTH 16 0
BBX 16 16 0 -2
BITMAP
4004
7FFE
6186
63C6
6666
6C36
7816
609E
40C4
1080
1884
18FC
1880
1880
1882
FFFF
ENDCHAR
STARTCHAR 2660
ENCODING 9824
SWIDTH 362 0
DWIDTH 16 0
BBX 16 16 0 -2
BITMAP
0004
FDFE
2046
2046
7C46
6C46
4C46
CFFF
B8C4
18C4
18C4
30C4
30C4
60C4
40CF
8000
ENDCHAR
STARTCHAR 2661
ENCODING 9825
SWIDTH 362 0
DWIDTH 16 0
BBX 16 16 0 -2
BITMAP
0070
FC6C
2066
2062
7C63
6C60
4C62
CC66
B866
1824
183C
3038
3038
606D
40C7
8303
ENDCHAR
STARTCHAR 2662
ENCODING 9826
SWIDTH 362 0
DWIDTH 16 0
BBX 16 16 0 -2
BITMAP
0002
FDFF
2060
2060
7C7E
6CC6
4CC6
CDC4
B92C
1A3C
1808
3018
3030
6060
40C0
8180
ENDCHAR
STARTCHAR 2663
ENCODING 9827
SWIDTH 362 0
DWIDTH 16 0
BBX 16 16 0 -2
BITMAP
0018
FC10
2010
2010
7C10
6D90
4D12
CD10
B910
1910
1910
3110
3110
6110
4333
8000
ENDCHAR
STARTCHAR 2664
ENCODING 9828
SWIDTH 362 0
DWIDTH 16 0
BBX 16 16 0 -2
BITMAP
0040
FC20
6222
6BFF
7F33
4F33
CB3B
DB6B
BB4F
1BCF
1387
3303
2303
6303
431F
8306
ENDCHAR
STARTCHAR 2665
ENCODING 9829
SWIDTH 362 0
DWIDTH 16 0
BBX 16 16 0 -2
BITMAP
0030
FC30
2030
2030
7DB6
6DB3
4D31
CF30
BA30
1830
1B80
30C0
3030
6018
400F
8003
ENDCHAR
STARTCHAR 2666
ENCODING 9830
SWIDTH 362 0
DWIDTH 16 0
BBX 16 16 0 -2
BITMAP
00C0
FCC0
20C0
20FF
7CB3
6DB6
4D30
CC30
B830
1878
1868
304C
30C4
6186
4303
8601
ENDCHAR
STARTCHAR 2667
ENCODING 9831
SWIDTH 362 0
DWIDTH 16 0
BBX 16 16 0 -2
BITMAP
0644
067E
0664
0664
6644
66C7
6080
60FE
7E46
6624
662C
6638
4618
462C
C647
8783
ENDCHAR
STARTCHAR 2668
ENCODING 9832
SWIDTH 362 0
DWIDTH 16 0
BBX 16 16 0 -2
BITMAP
2644
7E7E
6664
7664
6E44
6EC7
6680
FFFE
6646
6624
662C
6638
6618
662C
DE47
8D83
ENDCHAR
STARTCHAR 2669
ENCODING 9833
SWIDTH 362 0
DWIDTH 16 0
BBX 16 16 0 -2
BITMAP
40C0
62FE
7EC0
66C0
78C2
607E
1004
1FFE
1818
1E1C
1A18
11B0
30E0
61F8
461F
BC06
ENDCHAR
STARTCHAR 266a
ENCODING 9834
SWIDTH 362 0
DWIDTH 16 0
BBX 16 16 0 -2
BITMAP
181E
10F0
3620
3020
1022
FFFE
D620
D620
D622
D7FF
D620
D620
DE21
D421
103F
101F
ENDCHAR
STARTCHAR 266b
ENCODING 9835
SWIDTH 362 0
DWIDTH 16 0
BBX 16 16 0 -2
BITMAP
0808
3DFC
7088
3098
30FE
FCA6
30AC
30AC
35B8
FD38
336E
32C7
3481
3001
3FFF
1FFF
ENDCHAR
STARTCHAR 266c
ENCODING 9836
SWIDTH 362 0
DWIDTH 16 0
BBX 16 16 0 -2
BITMAP
0830
3C30
7068
304C
30C7
FDCB
3048
3048
3448
FC48
30C8
3088
3109
3201
3FFF
1FFF
ENDCHAR
STARTCHAR 266d
ENCODING 9837
SWIDTH 362 0
DWIDTH 16 0
BBX 16 16 0 -2
BITMAP
181E
78F0
6C30
6630
6632
43FE
C430
FE30
3632
37FF
3630
2630
6631
4431
FC3F
881F
ENDCHAR
STARTCHAR 266e
ENCODING 9838
SWIDTH 362 0
DWIDTH 16 0
BBX 16 16 0 -2
BITMAP
2060
3020
13FF
0203
8E04
48D8
78D8
1098
3098
3098
6098
E198
6198
6319
661F
2C0F
ENDCHAR
STARTCHAR 266f
ENCODING 9839
SWIDTH 362 0
DWIDTH 16 0
BBX 16 16 0 -2
BITMAP
2002
33FF
1300
0344
8B7E
4B66
7B66
1366
3366
3366
637E
E340
6300
6300
63FF
2000
ENDCHAR
STARTCHAR 2670
ENCODING 9840
SWIDTH 362 0
DWIDTH 16 0
BBX 16 16 0 -2
BITMAP
2006
33FE
1086
00CC
8878
4830
78DC
11AF
3630
3020
61FE
E020
6020
6020
6033
2000
ENDCHAR
STARTCHAR 2671
ENCODING 9841
SWIDTH 362 0
DWIDTH 16 0
BBX 16 16 0 -2
BITMAP
2104
31FE
1106
0106
8906
49FE
7934
1030
3022
37FF
6020
E020
6020
6020
6020
2020
ENDCHAR
STARTCHAR 2672
ENCODING 9842
SWIDTH 362 0
DWIDTH 16 0
BBX 16 16 0 -2
BITMAP
2000
31FE
1106
0106
8906
4906
7906
11FE
3106
3080
60CC
E186
6182
6303
6203
2401
ENDCHAR
STARTCHAR 2673
ENCODING 9843
SWIDTH 362 0
DWIDTH 16 0
BBX 16 16 0 -2
BITMAP
4002
27FF
06C3
06C3
8EC3
D7FB
56DB
16DB
36DB
26DB
66DB
E69F
671F
6603
6603
2603
ENDCHAR
STARTCHAR 2674
ENCODING 9844
SWIDTH 362 0
DWIDTH 16 0
BBX 16 16 0 -2
BITMAP
3030
3030
3020
343F
BC20
F820
7036
3186
3086
308C
304C
2878
6C30
447C
C18F
8703
ENDCHAR
STARTCHAR 2675
ENCODING 9845
SWIDTH 362 0
DWIDTH 16 0
BBX 16 16 0 -2
BITMAP
0180
218C
3998
1B70
0638
0C0C
1807
E681
0C8C
0CDC
1870
3860
6830
C9D8
0F0F
0C07
ENDCHAR
STARTCHAR 2676
ENCODING 9846
SWIDTH 362 0
DWIDTH 16 0
BBX 16 16 0 -2
BITMAP
1806
71FE
5020
5020
FC20
D020
93FF
1030
3C70
F070
D0D8
10C8
108C
1186
1303
1601
ENDCHAR
STARTCHAR 2677
ENCODING 9847
SWIDTH 362 0
DWIDTH 16 0
BBX 16 16 0 -2
BITMAP
1800
71FF
5133
5132
FD32
D132
9132
11FE
3D02
F100
D100
1100
1101
1103
11FF
1000
ENDCHAR
STARTCHAR 2678
ENCODING 9848
SWIDTH 362 0
DWIDTH 16 0
BBX 16 16 0 -2
BITMAP
1802
79FF
7823
7C23
7EE3
D873
99BB
98EB
1C63
F873
D87B
1843
18C3
1983
1B3E
1E0C
ENDCHAR
STARTCHAR 2679
ENCODING 9849
SWIDTH 362 0
DWIDTH 16 0
BBX 16 16 0 -2
BITMAP
1830
7834
7832
7C32
7E33
D830
9830
9830
1C38
F878
D878
18D8
18D9
1999
1B1F
1E0F
ENDCHAR
STARTCHAR 267a
ENCODING 9850
SWIDTH 362 0
DWIDTH 16 0
BBX 16 16 0 -2
BITMAP
1830
7834
7826
7C20
7E33
D830
9820
9870
1C70
F870
D858
18C8
188C
1986
1B03
1E01
ENDCHAR
STARTCHAR 267b
ENCODING 9851
SWIDTH 362 0
DWIDTH 16 0
BBX 16 16 0 -2
BITMAP
1884
71FE
5186
5186
FD86
D3FF
9186
1186
3D86
F3FF
D186
1186
1186
1306
133E
160C
ENDCHAR
STARTCHAR 267c
ENCODING 9852
SWIDTH 362 0
DWIDTH 16 0
BBX 16 16 0 -2
BITMAP
1830
7030
5030
53FF
FC30
D1B7
91B6
11B6
3DB6
F1B6
D1FE
1032
1030
1031
103F
101F
ENDCHAR
STARTCHAR 267d
ENCODING 9853
SWIDTH 362 0
DWIDTH 16 0
BBX 16 16 0 -2
BITMAP
1830
7830
7868
7C4C
7EC6
D887
990F
9A00
1C00
F9FE
D806
1804
180C
1808
1818
1010
ENDCHAR
STARTCHAR 267e
ENCODING 9854
SWIDTH 362 0
DWIDTH 16 0
BBX 16 16 0 -2
BITMAP
1830
7870
7870
7CC8
7ECC
D987
9B8B
9CCC
1C88
F888
D888
1988
1988
1908
1A08
1C08
ENDCHAR
STARTCHAR 2721
ENCODING 10017
SWIDTH 362 0
DWIDTH 16 0
BBX 16 16 0 -2
BITMAP
20C0
60C0
66FC
6080
6482
78FE
60FE
0180
1980
118C
3FFC
6180
FFFF
0180
0180
0180
ENDCHAR
STARTCHAR 2722
ENCODING 10018
SWIDTH 362 0
DWIDTH 16 0
BBX 16 16 0 -2
BITMAP
0660
0C30
180E
3FFF
C218
0618
0CF0
7020
11C0
118C
3FFC
6180
FFFF
0180
0180
0180
ENDCHAR
STARTCHAR 2723
ENCODING 10019
SWIDTH 362 0
DWIDTH 16 0
BBX 16 16 0 -2
BITMAP
1180
118C
3FFC
6180
FFFF
0180
0180
0000
1180
1FFC
3180
6180
FFFF
0180
0180
0180
ENDCHAR
STARTCHAR 2724
ENCODING 10020
SWIDTH 362 0
DWIDTH 16 0
BBX 16 16 0 -2
BITMAP
0820
5830
31FF
3303
5204
98C0
1880
1884
389E
68F0
C880
0880
0881
1883
78FF
307E
ENDCHAR
STARTCHAR 2725
ENCODING 10021
SWIDTH 362 0
DWIDTH 16 0
BBX 16 16 0 -2
BITMAP
0802
59FF
3180
3180
5180
99FE
1986
1986
3986
6986
C9FE
0980
0980
1980
7983
3000
ENDCHAR
STARTCHAR 2726
ENCODING 10022
SWIDTH 362 0
DWIDTH 16 0
BBX 16 16 0 -2
BITMAP
0830
5830
3063
3060
50C0
98C4
1982
1BFB
3959
6858
C8D8
08D8
0898
1999
7B1F
360F
ENDCHAR
STARTCHAR 2727
ENCODING 10023
SWIDTH 362 0
DWIDTH 16 0
BBX 16 16 0 -2
BITMAP
0886
59FE
3186
31B6
5196
9986
1986
1986
39A6
69B6
C996
0986
09FF
1804
787C
3018
ENDCHAR
STARTCHAR 2728
ENCODING 10024
SWIDTH 362 0
DWIDTH 16 0
BBX 16 16 0 -2
BITMAP
0906
59FE
3186
3186
51FE
9800
1BFF
1880
3982
69FF
C802
0802
0802
1806
787C
3018
ENDCHAR
STARTCHAR 2729
ENCODING 10025
SWIDTH 362 0
DWIDTH 16 0
BBX 16 16 0 -2
BITMAP
0830
5830
3030
31FF
5133
9932
1932
1932
3932
6932
C9FE
0930
0830
1830
7830
3030
ENDCHAR
STARTCHAR 272a
ENCODING 10026
SWIDTH 362 0
DWIDTH 16 0
BBX 16 16 0 -2
BITMAP
0800
59FE
3186
3186
5186
9986
1986
19FE
3906
6800
C8CC
08C6
0982
1903
7B03
3601
ENDCHAR
STARTCHAR 272b
ENCODING 10027
SWIDTH 362 0
DWIDTH 16 0
BBX 16 16 0 -2
BITMAP
0830
5A30
31B0
30B0
5033
9BF7
18FC
18F8
38F8
68BC
C9B4
0936
0B33
1A31
7CF0
3060
ENDCHAR
STARTCHAR 272c
ENCODING 10028
SWIDTH 362 0
DWIDTH 16 0
BBX 16 16 0 -2
BITMAP
0830
5830
31B7
31B6
51B6
99B6
19B6
19FE
3830
6832
C9B3
0932
0932
1932
7B32
3102
ENDCHAR
STARTCHAR 272d
ENCODING 10029
SWIDTH 362 0
DWIDTH 16 0
BBX 16 16 0 -2
BITMAP
081E
59F0
3030
3037
51B6
98B4
18B8
1833
3BFF
6830
C830
0830
0830
1830
79F0
3060
ENDCHAR
STARTCHAR 272e
ENCODING 10030
SWIDTH 362 0
DWIDTH 16 0
BBX 16 16 0 -2
BITMAP
08C0
58C4
30FE
31C4
514C
9A28
1830
1838
384E
68E7
CB38
0818
0800
1870
7818
3008
ENDCHAR
STARTCHAR 272f
ENCODING 10031
SWIDTH 362 0
DWIDTH 16 0
BBX 16 16 0 -2
BITMAP
1C30
1830
1A20
1B63
187F
7FDA
18D8
1818
1C18
1C18
343C
3234
2326
6363
C043
8081
ENDCHAR
STARTCHAR 2730
ENCODING 10032
SWIDTH 362 0
DWIDTH 16 0
BBX 16 16 0 -2
BITMAP
0004
0DFE
FC66
3066
3066
33FF
3866
3066
3066
31FE
3064
3C40
F0C0
C080
0100
0600
ENDCHAR
STARTCHAR 2731
ENCODING 10033
SWIDTH 362 0
DWIDTH 16 0
BBX 16 16 0 -2
BITMAP
0488
FCFC
608C
608C
6CEC
6CBC
6C9C
6C8C
7C8C
7D8D
4D8F
4D0F
4E07
5C01
EFFF
C7FF
ENDCHAR
STARTCHAR 2732
ENCODING 10034
SWIDTH 362 0
DWIDTH 16 0
BBX 16 16 0 -2
BITMAP
1002
19FF
10C0
14C0
D6CC
D6CC
D684
D6E4
D6B4
D6BC
D79C
D78C
FF8C
019D
03EF
0107
ENDCHAR
STARTCHAR 2733
ENCODING 10035
SWIDTH 362 0
DWIDTH 16 0
BBX 16 16 0 -2
BITMAP
0330
0318
031E
0300
0180
00E1
003B
000F
1C18
1813
FFFF
1810
1FF0
1810
1830
1830
ENDCHAR
STARTCHAR 2734
ENCODING 10036
SWIDTH 362 0
DWIDTH 16 0
BBX 16 16 0 -2
BITMAP
0818
1990
5990
7990
59FF
5990
5B10
FA10
1810
18FF
1810
1C10
3610
3210
6012
C1FF
ENDCHAR
STARTCHAR 2735
ENCODING 10037
SWIDTH 362 0
DWIDTH 16 0
BBX 16 16 0 -2
BITMAP
0C00
0818
1FF8
3630
43C0
03F8
1C1F
F00E
3FFC
318C
3FF8
3188
3FF8
3188
61F8
C118
ENDCHAR
STARTCHAR 2736
ENCODING 10038
SWIDTH 362 0
DWIDTH 16 0
BBX 16 16 0 -2
BITMAP
2008
3FFC
218C
3FFC
218C
218C
3FFC
000C
3FFC
0180
0183
0180
0180
0180
0180
0100
ENDCHAR
STARTCHAR 2737
ENCODING 10039
SWIDTH 362 0
DWIDTH 16 0
BBX 16 16 0 -2
BITMAP
0080
20C3
3FFF
A018
E010
E012
3FFE
2210
6230
E330
61E0
60C0
60E0
41B8
C31F
9C06
ENDCHAR
STARTCHAR 2738
ENCODING 10040
SWIDTH 362 0
DWIDTH 16 0
BBX 16 16 0 -2
BITMAP
0080
20C3
3FFF
A00C
E7FC
E008
2030
2060
7066
F060
6060
6060
6060
4060
C3E0
80C0
ENDCHAR
STARTCHAR 2739
ENCODING 10041
SWIDTH 362 0
DWIDTH 16 0
BBX 16 16 0 -2
BITMAP
0060
3040
2047
FC46
C446
C446
C446
C446
FC46
C446
C446
C446
FC40
C440
0040
0040
ENDCHAR
STARTCHAR 273a
ENCODING 10042
SWIDTH 362 0
DWIDTH 16 0
BBX 16 16 0 -2
BITMAP
0002
31FE
2030
FC30
CC30
CC30
CC33
CC30
FC30
CC30
CC30
CC30
FC30
C830
0030
0030
ENDCHAR
STARTCHAR 273b
ENCODING 10043
SWIDTH 362 0
DWIDTH 16 0
BBX 16 16 0 -2
BITMAP
0600
0600
3FFC
200C
3FFC
200C
3FFC
0000
180C
11CC
1188
1188
3188
3188
6188
C008
ENDCHAR
STARTCHAR 273c
ENCODING 10044
SWIDTH 362 0
DWIDTH 16 0
BBX 16 16 0 -2
BITMAP
0600
0600
3FFC
200C
3FFC
200C
3FFC
0000
1918
1990
1990
1990
1190
3190
619F
C11F
ENDCHAR
STARTCHAR 273d
ENCODING 10045
SWIDTH 362 0
DWIDTH 16 0
BBX 16 16 0 -2
BITMAP
180C
180C
180C
7E0C
5E0F
581C
581C
7E1C
463C
643C
5C6C
DCCC
968C
A30C
403C
0018
ENDCHAR
STARTCHAR 273e
ENCODING 10046
SWIDTH 362 0
DWIDTH 16 0
BBX 16 16 0 -2
BITMAP
0008
3FFC
0030
01C0
01B8
7F80
7180
0180
0780
0300
2008
3FFC
3648
3648
3648
FFFF
ENDCHAR
STARTCHAR 273f
ENCODING 10047
SWIDTH 362 0
DWIDTH 16 0
BBX 16 16 0 -2
BITMAP
0400
0618
0C3B
0C30
0830
1C60
17C0
01F8
0E0C
7004
3018
36CC
3648
3648
36CF
0000
ENDCHAR
STARTCHAR 2740
ENCODING 10048
SWIDTH 362 0
DWIDTH 16 0
BBX 16 16 0 -2
BITMAP
0000
FDFF
CC30
C830
C830
F830
C830
C830
C830
C830
C830
C830
C830
C830
03FF
0000
ENDCHAR
STARTCHAR 2741
ENCODING 10049
SWIDTH 362 0
DWIDTH 16 0
BBX 16 16 0 -2
BITMAP
0004
FFFE
CC44
C844
C844
F844
C84C
CBFC
C844
C844
C844
C844
C845
C847
0043
0043
ENDCHAR
STARTCHAR 2742
ENCODING 10050
SWIDTH 362 0
DWIDTH 16 0
BBX 16 16 0 -2
BITMAP
0082
FD83
CD92
C992
C992
F992
C992
C992
C992
C992
C992
C912
C912
CB12
0202
0402
ENDCHAR
STARTCHAR 2743
ENCODING 10051
SWIDTH 362 0
DWIDTH 16 0
BBX 16 16 0 -2
BITMAP
3018
300C
3008
3008
3008
3008
3008
3008
0002
FFFF
0460
0460
0C61
1861
307F
C03F
ENDCHAR
STARTCHAR 2744
ENCODING 10052
SWIDTH 362 0
DWIDTH 16 0
BBX 16 16 0 -2
BITMAP
0402
FFFF
0C33
7833
3033
FFB3
36F3
30F3
7063
7023
D063
9043
10C3
1183
F31E
260C
ENDCHAR
STARTCHAR 2745
ENCODING 10053
SWIDTH 362 0
DWIDTH 16 0
BBX 16 16 0 -2
BITMAP
00C0
FCC0
20C2
20FF
6083
6183
7F43
EC63
EC33
EC03
6C03
6C03
7C03
6806
403E
000C
ENDCHAR
STARTCHAR 2746
ENCODING 10054
SWIDTH 362 0
DWIDTH 16 0
BBX 16 16 0 -2
BITMAP
1C02
79FE
1030
1030
7C30
3030
3BFF
3C30
7430
7030
D030
9030
1030
1030
10F0
1060
ENDCHAR
STARTCHAR 2747
ENCODING 10055
SWIDTH 362 0
DWIDTH 16 0
BBX 16 16 0 -2
BITMAP
00F8
3F80
0182
7FFF
07E0
0DB8
1986
7103
8100
0318
07F8
0C38
3370
01C0
0300
3C00
ENDCHAR
STARTCHAR 2748
ENCODING 10056
SWIDTH 362 0
DWIDTH 16 0
BBX 16 16 0 -2
BITMAP
1C20
7830
1010
11FF
7C80
3080
3880
3C80
7480
7080
D080
9080
1080
10FE
10FF
1000
ENDCHAR
STARTCHAR 2749
ENCODING 10057
SWIDTH 362 0
DWIDTH 16 0
BBX 16 16 0 -2
BITMAP
0300
0186
7FFE
0830
0C30
0660
06C3
0000
0006
0C60
0460
0C60
0861
1861
307F
C03F
ENDCHAR
STARTCHAR 274a
ENCODING 10058
SWIDTH 362 0
DWIDTH 16 0
BBX 16 16 0 -2
BITMAP
2060
3040
3042
FEFF
04C3
0583
4503
4C0B
6C7B
6803
2803
1E03
F803
C006
003E
000C
ENDCHAR
STARTCHAR 274b
ENCODING 10059
SWIDTH 362 0
DWIDTH 16 0
BBX 16 16 0 -2
BITMAP
3060
3363
3FFF
6C8C
C50C
0003
FFFF
0180
0180
0180
0180
0180
0180
0180
0F80
0300
ENDCHAR
STARTCHAR 274c
ENCODING 10060
SWIDTH 362 0
DWIDTH 16 0
BBX 16 16 0 -2
BITMAP
3060
3FFF
6CC8
C58C
8000
0030
0830
0C30
0420
0260
03C0
01C0
03E0
0638
180F
E003
ENDCHAR
STARTCHAR 274d
ENCODING 10061
SWIDTH 362 0
DWIDTH 16 0
BBX 16 16 0 -2
BITMAP
3060
3363
3FFF
6C8C
C50C
0000
0700
0600
0600
0C00
0C10
1808
3004
7FFE
7E02
2002
ENDCHAR
STARTCHAR 274e
ENCODING 10062
SWIDTH 362 0
DWIDTH 16 0
BBX 16 16 0 -2
BITMAP
1800
95FF
D610
5410
5810
FE10
1010
7810
5410
5610
D610
9010
1010
1010
10F0
1020
ENDCHAR
STARTCHAR 274f
ENCODING 10063
SWIDTH 362 0
DWIDTH 16 0
BBX 16 16 0 -2
BITMAP
1030
1830
3030
2030
4C30
D830
73FF
3030
6430
FE30
E030
0430
9630
9030
9030
0030
ENDCHAR
STARTCHAR 2750
ENCODING 10064
SWIDTH 362 0
DWIDTH 16 0
BBX 16 16 0 -2
BITMAP
1002
19FF
3006
2008
4C30
D830
7030
3030
6430
FE30
E030
0430
9630
9030
91F0
0060
ENDCHAR
STARTCHAR 2751
ENCODING 10065
SWIDTH 362 0
DWIDTH 16 0
BBX 16 16 0 -2
BITMAP
1000
18FC
308C
208C
4C8C
D88C
708C
308C
648C
FE8C
E08C
058C
978C
930D
930F
0207
ENDCHAR
STARTCHAR 2752
ENCODING 10066
SWIDTH 362 0
DWIDTH 16 0
BBX 16 16 0 -2
BITMAP
300C
306C
346C
33CC
31CC
336C
3C2C
301C
3188
0180
FFFF
0180
1990
318C
6186
C102
ENDCHAR
STARTCHAR 2753
ENCODING 10067
SWIDTH 362 0
DWIDTH 16 0
BBX 16 16 0 -2
BITMAP
0430
6630
2C20
7F20
1820
1820
7E30
1870
1870
7F58
18C8
18C8
108C
3186
2307
4603
ENDCHAR
STARTCHAR 2754
ENCODING 10068
SWIDTH 362 0
DWIDTH 16 0
BBX 16 16 0 -2
BITMAP
0600
0C30
0FF0
1960
20C6
7FFE
0810
0FF0
0810
0810
0FF0
0810
FFFF
0010
0010
0010
ENDCHAR
STARTCHAR 2755
ENCODING 10069
SWIDTH 362 0
DWIDTH 16 0
BBX 16 16 0 -2
BITMAP
0C40
0C20
0838
181C
3007
7FFE
8810
0810
0FF0
0810
0FF0
0810
0C33
0030
0010
0010
ENDCHAR
STARTCHAR 2756
ENCODING 10070
SWIDTH 362 0
DWIDTH 16 0
BBX 16 16 0 -2
BITMAP
0806
7DFE
4826
4826
6826
59FE
4B20
4B20
5BFF
7823
4823
4823
C83F
C826
B820
9820
ENDCHAR
STARTCHAR 2757
ENCODING 10071
SWIDTH 362 0
DWIDTH 16 0
BBX 16 16 0 -2
BITMAP
0806
7D86
488C
4858
6830
587C
498F
4F8A
58FC
7888
4888
4888
C888
C989
B90F
9A07
ENDCHAR
STARTCHAR 2758
ENCODING 10072
SWIDTH 362 0
DWIDTH 16 0
BBX 16 16 0 -2
BITMAP
0830
7C30
4830
48B0
68F6
59B3
49B1
4930
5B36
7836
483C
4808
C810
C860
B8C0
9F00
ENDCHAR
STARTCHAR 2759
ENCODING 10073
SWIDTH 362 0
DWIDTH 16 0
BBX 16 16 0 -2
BITMAP
0860
7C60
49FC
4864
6844
58C5
4987
4B07
5E30
7830
4833
4830
C830
C830
B830
9830
ENDCHAR
STARTCHAR 275a
ENCODING 10074
SWIDTH 362 0
DWIDTH 16 0
BBX 16 16 0 -2
BITMAP
08C0
7CC4
48FE
4886
698C
593C
4E18
4C04
59FE
788C
484C
4878
C830
C87C
B987
9F03
ENDCHAR
STARTCHAR 275b
ENCODING 10075
SWIDTH 362 0
DWIDTH 16 0
BBX 16 16 0 -2
BITMAP
08C0
7CC0
4983
4980
6B00
5F80
4980
4980
599E
79E0
4980
4980
C981
C981
B9FF
98FF
ENDCHAR
STARTCHAR 275c
ENCODING 10076
SWIDTH 362 0
DWIDTH 16 0
BBX 16 16 0 -2
BITMAP
0902
7DFF
4900
4942
697F
5963
4962
4962
5962
7962
497E
4B64
CB60
CA61
BE7F
9C3F
ENDCHAR
STARTCHAR 275d
ENCODING 10077
SWIDTH 362 0
DWIDTH 16 0
BBX 16 16 0 -2
BITMAP
080E
7DF8
4910
4910
6910
5910
49FF
4910
5918
7918
4918
4908
C90C
C945
B987
9903
ENDCHAR
STARTCHAR 275e
ENCODING 10078
SWIDTH 362 0
DWIDTH 16 0
BBX 16 16 0 -2
BITMAP
0902
7DFF
4980
4980
6986
59C6
49C6
49A6
59A4
793C
4918
4B18
CB3C
CA66
BEC3
9F81
ENDCHAR
STARTCHAR 275f
ENCODING 10079
SWIDTH 362 0
DWIDTH 16 0
BBX 16 16 0 -2
BITMAP
1000
31FF
7C10
4C10
7C10
5C10
4C10
FC10
CC10
7C10
5C10
4C10
CC10
CC10
FCF0
9820
ENDCHAR
STARTCHAR 2760
ENCODING 10080
SWIDTH 362 0
DWIDTH 16 0
BBX 16 16 0 -2
BITMAP
1C18
1A13
FE7F
1810
0006
0180
0180
31FE
3186
3186
3FFE
0006
000C
000C
00F8
0030
ENDCHAR
STARTCHAR 2761
ENCODING 10081
SWIDTH 362 0
DWIDTH 16 0
BBX 16 16 0 -2
BITMAP
1C18
1A13
FE7F
1990
0182
FFFF
1990
1990
5996
7996
6186
6186
6186
6186
6186
4104
ENDCHAR
STARTCHAR 2762
ENCODING 10082
SWIDTH 362 0
DWIDTH 16 0
BBX 16 16 0 -2
BITMAP
1C18
1A13
FE7F
1810
0340
0330
0302
7FFF
0308
0118
01B0
00A0
00E0
03F2
0E1E
700E
ENDCHAR
STARTCHAR 2763
ENCODING 10083
SWIDTH 362 0
DWIDTH 16 0
BBX 16 16 0 -2
BITMAP
1C18
1A13
FE7F
1810
1008
1FFC
1008
1008
1008
1008
1FF8
1008
1008
1008
1008
1008
ENDCHAR
STARTCHAR 2764
ENCODING 10084
SWIDTH 362 0
DWIDTH 16 0
BBX 16 16 0 -2
BITMAP
1C18
1810
FF7F
1810
1810
0000
1998
1998
1998
199B
FFFF
1998
1198
3198
2198
4110
ENDCHAR
STARTCHAR 2765
ENCODING 10085
SWIDTH 362 0
DWIDTH 16 0
BBX 16 16 0 -2
BITMAP
0600
0608
3FFC
364C
3648
FFFF
0000
0003
FFFF
0180
0180
0180
0180
0180
0780
0300
ENDCHAR
STARTCHAR 2766
ENCODING 10086
SWIDTH 362 0
DWIDTH 16 0
BBX 16 16 0 -2
BITMAP
2002
31FF
0806
7C08
0810
1810
3410
3C10
7810
FC10
B410
3010
3010
3010
30F0
3020
ENDCHAR
STARTCHAR 2767
ENCODING 10087
SWIDTH 362 0
DWIDTH 16 0
BBX 16 16 0 -2
BITMAP
0300
0200
0418
1FF8
1818
1FF8
1818
1FF8
1818
1818
1FF8
0660
0461
0863
107F
603E
ENDCHAR
STARTCHAR 2768
ENCODING 10088
SWIDTH 362 0
DWIDTH 16 0
BBX 16 16 0 -2
BITMAP
0008
67FC
30CC
10CC
00FC
F0CC
30CC
20CC
7BFC
58CD
18C7
30C6
30C3
7800
CFFF
01FC
ENDCHAR
STARTCHAR 2769
ENCODING 10089
SWIDTH 362 0
DWIDTH 16 0
BBX 16 16 0 -2
BITMAP
0002
63FE
3088
1088
0088
F08A
33FE
2088
7988
5908
1B08
3208
3408
7800
CFFF
01FC
ENDCHAR
STARTCHAR 276a
ENCODING 10090
SWIDTH 362 0
DWIDTH 16 0
BBX 16 16 0 -2
BITMAP
0060
6060
3064
13FE
0064
F064
3064
23FF
78C8
58CC
1986
3303
3603
7C00
CFFF
01FC
ENDCHAR
STARTCHAR 276b
ENCODING 10091
SWIDTH 362 0
DWIDTH 16 0
BBX 16 16 0 -2
BITMAP
0030
6030
3036
1030
0020
F1FE
3086
20CC
7848
5838
1830
30FE
3386
7800
CFFF
01FC
ENDCHAR
STARTCHAR 276c
ENCODING 10092
SWIDTH 362 0
DWIDTH 16 0
BBX 16 16 0 -2
BITMAP
0030
6030
3020
1022
03FE
F020
3124
21A6
7926
5926
1926
3126
33FE
7800
CFFF
01FC
ENDCHAR
STARTCHAR 276d
ENCODING 10093
SWIDTH 362 0
DWIDTH 16 0
BBX 16 16 0 -2
BITMAP
0030
603C
3026
1022
03FE
F020
3070
2070
78D0
5891
1913
321F
340E
7800
CFFF
01FC
ENDCHAR
STARTCHAR 276e
ENCODING 10094
SWIDTH 362 0
DWIDTH 16 0
BBX 16 16 0 -2
BITMAP
0002
63FF
3060
1060
00CC
F08C
31D8
2070
7820
586C
18CE
31FE
3382
7800
CFFF
01FC
ENDCHAR
STARTCHAR 276f
ENCODING 10095
SWIDTH 362 0
DWIDTH 16 0
BBX 16 16 0 -2
BITMAP
0000
6104
31FE
1106
0106
F106
31FE
2106
7906
5906
1906
3106
3104
7800
CFFF
01FC
ENDCHAR
STARTCHAR 2770
ENCODING 10096
SWIDTH 362 0
DWIDTH 16 0
BBX 16 16 0 -2
BITMAP
0000
61C0
3180
11FF
017B
F37A
325A
20DA
78B2
59B2
1B62
36DE
318C
7800
CFFF
01FC
ENDCHAR
STARTCHAR 2771
ENCODING 10097
SWIDTH 362 0
DWIDTH 16 0
BBX 16 16 0 -2
BITMAP
0010
6098
3088
118C
018C
F166
3363
2243
78C0
5888
1984
33FE
3382
7800
CFFF
01FC
ENDCHAR
STARTCHAR 2772
ENCODING 10098
SWIDTH 362 0
DWIDTH 16 0
BBX 16 16 0 -2
BITMAP
0C22
0C3F
0826
7F24
082C
0828
0924
7FA2
1C23
1E23
3B23
29BF
69A6
C820
8820
0820
ENDCHAR
STARTCHAR 2773
ENCODING 10099
SWIDTH 362 0
DWIDTH 16 0
BBX 16 16 0 -2
BITMAP
2222
7F3F
6326
6324
7F2C
2028
01A4
3022
2023
7F23
0323
033F
0326
0320
1E20
0C20
ENDCHAR
STARTCHAR 2774
ENCODING 10100
SWIDTH 362 0
DWIDTH 16 0
BBX 16 16 0 -2
BITMAP
0822
083F
1826
7F24
612C
6128
6124
6122
6323
6323
6123
613F
6126
6120
7F20
4020
ENDCHAR
STARTCHAR 2775
ENCODING 10101
SWIDTH 362 0
DWIDTH 16 0
BBX 16 16 0 -2
BITMAP
9840
F820
D822
D7FF
F060
E040
D0CC
D998
C9B0
C8F0
C860
F8C0
D184
C33E
C3E3
C102
ENDCHAR
STARTCHAR 2776
ENCODING 10102
SWIDTH 362 0
DWIDTH 16 0
BBX 16 16 0 -2
BITMAP
9A02
FBFF
DB00
D300
F34C
E36C
D364
DB64
CB64
CB7C
CB64
FB40
D300
C300
C3FF
C000
ENDCHAR
STARTCHAR 2777
ENCODING 10103
SWIDTH 362 0
DWIDTH 16 0
BBX 16 16 0 -2
BITMAP
9830
F830
D9B6
D1B6
F1B6
E1B6
D1FE
D9B6
C9B6
C9B6
CFFF
F986
D186
C186
C19E
C104
ENDCHAR
STARTCHAR 2778
ENCODING 10104
SWIDTH 362 0
DWIDTH 16 0
BBX 16 16 0 -2
BITMAP
98D0
F8D0
D8D8
D088
F18C
E186
D107
DB03
CA04
CDFE
C904
F904
D104
C104
C1FC
C104
ENDCHAR
STARTCHAR 2779
ENCODING 10105
SWIDTH 362 0
DWIDTH 16 0
BBX 16 16 0 -2
BITMAP
980E
F9FC
D96C
D16C
F16C
E16C
D16C
D96C
C96C
C964
CB64
FB46
D2DE
C2BF
C7EF
C480
ENDCHAR
STARTCHAR 277a
ENCODING 10106
SWIDTH 362 0
DWIDTH 16 0
BBX 16 16 0 -2
BITMAP
0180
03C0
0760
0DBC
318F
E183
0180
1998
1D18
363E
7B7B
D999
1818
1818
1818
1818
ENDCHAR
STARTCHAR 277b
ENCODING 10107
SWIDTH 362 0
DWIDTH 16 0
BBX 16 16 0 -2
BITMAP
000C
0000
0000
FFFF
0000
6002
67FE
6460
646E
6406
6406
67FE
6464
6460
6C63
4400
ENDCHAR
STARTCHAR 277c
ENCODING 10108
SWIDTH 362 0
DWIDTH 16 0
BBX 16 16 0 -2
BITMAP
1C60
1A23
1BFF
3632
35B0
71B2
71FE
B330
3230
3033
33FF
3030
3030
3030
3030
3030
ENDCHAR
STARTCHAR 277d
ENCODING 10109
SWIDTH 362 0
DWIDTH 16 0
BBX 16 16 0 -2
BITMAP
1430
3230
3020
2060
697F
6D66
E5E6
E3A4
6234
621C
6618
6C18
641C
6626
6647
6183
ENDCHAR
STARTCHAR 277e
ENCODING 10110
SWIDTH 362 0
DWIDTH 16 0
BBX 16 16 0 -2
BITMAP
1818
301B
301B
2018
6FFF
6018
E118
E198
6298
6608
6E28
7E7C
67CD
63C7
6007
6003
ENDCHAR
STARTCHAR 2821
ENCODING 10273
SWIDTH 362 0
DWIDTH 16 0
BBX 16 16 0 -2
BITMAP
1C30
1830
1FFF
3020
3336
7333
7222
B222
33FE
3272
3078
30BC
3127
3223
3C20
3020
ENDCHAR
STARTCHAR 2822
ENCODING 10274
SWIDTH 362 0
DWIDTH 16 0
BBX 16 16 0 -2
BITMAP
1E18
1B18
1A58
33FF
3218
7259
739F
B30F
3030
3030
3036
3030
3020
3020
3033
3000
ENDCHAR
STARTCHAR 2823
ENCODING 10275
SWIDTH 362 0
DWIDTH 16 0
BBX 16 16 0 -2
BITMAP
1D80
1998
1988
37FF
3184
718C
7198
B1D6
314C
335A
3346
324C
3659
3441
3C7F
387F
ENDCHAR
STARTCHAR 2824
ENCODING 10276
SWIDTH 362 0
DWIDTH 16 0
BBX 16 16 0 -2
BITMAP
1802
37FF
3603
2633
6623
67AF
E6BB
E6B3
66BB
67AF
6727
66E3
6663
6603
67FF
6402
ENDCHAR
STARTCHAR 2825
ENCODING 10277
SWIDTH 362 0
DWIDTH 16 0
BBX 16 16 0 -2
BITMAP
0300
03C0
0660
0DB8
198F
7187
8180
0180
1918
3E3C
7B7F
D9DB
1818
1818
1818
1818
ENDCHAR
STARTCHAR 2826
ENCODING 10278
SWIDTH 362 0
DWIDTH 16 0
BBX 16 16 0 -2
BITMAP
0300
0180
03C0
0630
0C3E
33FF
DE00
1808
1FF8
1820
1820
7FFE
0800
1818
300E
C006
ENDCHAR
STARTCHAR 2827
ENCODING 10279
SWIDTH 362 0
DWIDTH 16 0
BBX 16 16 0 -2
BITMAP
0460
0C30
301E
7FFF
8618
0C10
19F0
7060
000C
666C
6664
7FFC
6664
6664
667C
644C
ENDCHAR
STARTCHAR 2828
ENCODING 10280
SWIDTH 362 0
DWIDTH 16 0
BBX 16 16 0 -2
BITMAP
0030
C030
67FF
2020
0B36
0B06
1306
1306
3306
23DE
E0D8
C0D8
6198
6319
661F
0C0F
ENDCHAR
STARTCHAR 2829
ENCODING 10281
SWIDTH 362 0
DWIDTH 16 0
BBX 16 16 0 -2
BITMAP
0030
C036
6022
27FF
0820
0A22
1327
11AC
30A8
2070
E0F8
C32E
6627
6423
61E0
0060
ENDCHAR
STARTCHAR 282a
ENCODING 10282
SWIDTH 362 0
DWIDTH 16 0
BBX 16 16 0 -2
BITMAP
0002
C3FF
6060
20C2
0BFF
0B02
1302
13FE
3302
2302
E302
C302
6302
6302
63FE
0302
ENDCHAR
STARTCHAR 282b
ENCODING 10283
SWIDTH 362 0
DWIDTH 16 0
BBX 16 16 0 -2
BITMAP
0060
C043
67FF
2080
0906
0A0F
17F3
1231
3030
27FF
E020
C324
6322
6623
6421
0020
ENDCHAR
STARTCHAR 282c
ENCODING 10284
SWIDTH 362 0
DWIDTH 16 0
BBX 16 16 0 -2
BITMAP
0002
C3FF
6062
2362
0942
08C2
1186
133E
360C
2020
E130
C192
6583
6D85
6DFD
00F8
ENDCHAR
STARTCHAR 282d
ENCODING 10285
SWIDTH 362 0
DWIDTH 16 0
BBX 16 16 0 -2
BITMAP
1603
3303
21B2
41B2
FFB2
61B2
61B2
61B2
7FB2
1632
1632
3632
3602
2782
471E
8206
ENDCHAR
STARTCHAR 282e
ENCODING 10286
SWIDTH 362 0
DWIDTH 16 0
BBX 16 16 0 -2
BITMAP
000C
060C
0404
080C
307C
601C
7FFE
6186
61B6
6186
6DE6
6C36
6C26
6C26
603E
400C
ENDCHAR
STARTCHAR 282f
ENCODING 10287
SWIDTH 362 0
DWIDTH 16 0
BBX 16 16 0 -2
BITMAP
6D30
5B30
9230
DB30
697F
0033
FF33
2033
3333
6333
7223
9E63
0C63
18C3
309E
C10C
ENDCHAR
STARTCHAR 2830
ENCODING 10288
SWIDTH 362 0
DWIDTH 16 0
BBX 16 16 0 -2
BITMAP
1830
1230
FF32
C3FF
C232
C232
C232
FE32
2C22
2C62
2C46
2CBE
6D0C
4C01
CFFF
87FF
ENDCHAR
STARTCHAR 2831
ENCODING 10289
SWIDTH 362 0
DWIDTH 16 0
BBX 16 16 0 -2
BITMAP
0C06
6F7E
6F26
633C
7618
9C3C
1867
7183
8300
0304
7FFE
0206
0406
0804
307C
E018
ENDCHAR
STARTCHAR 2832
ENCODING 10290
SWIDTH 362 0
DWIDTH 16 0
BBX 16 16 0 -2
BITMAP
4002
7FFF
4100
4B08
4FFC
4808
4FF8
4808
4C08
4C08
4618
4C0C
580C
5004
C003
4000
ENDCHAR
STARTCHAR 2833
ENCODING 10291
SWIDTH 362 0
DWIDTH 16 0
BBX 16 16 0 -2
BITMAP
4002
7FFF
40C0
41C0
4330
47FE
5836
4030
4020
47F8
4418
4418
4418
4418
C003
4000
ENDCHAR
STARTCHAR 2834
ENCODING 10292
SWIDTH 362 0
DWIDTH 16 0
BBX 16 16 0 -2
BITMAP
0002
FFFF
4080
5FFE
4000
4FFC
4000
4FFC
4000
4FFC
4804
4804
4FFC
6000
7FFF
0000
ENDCHAR
STARTCHAR 2835
ENCODING 10293
SWIDTH 362 0
DWIDTH 16 0
BBX 16 16 0 -2
BITMAP
0C60
6C42
6F7F
6841
6841
7E7F
F03E
40F8
3FF8
0180
0183
0180
0180
0180
0180
0100
ENDCHAR
STARTCHAR 2836
ENCODING 10294
SWIDTH 362 0
DWIDTH 16 0
BBX 16 16 0 -2
BITMAP
1800
1B7F
1F43
1A42
FF66
DA26
DA24
FE2C
DA3C
DA18
FE18
DA38
DA3C
DA66
DAC3
C781
ENDCHAR
STARTCHAR 2837
ENCODING 10295
SWIDTH 362 0
DWIDTH 16 0
BBX 16 16 0 -2
BITMAP
0180
0184
01FE
3FFC
300C
3FFC
300C
3FFC
0C00
3FFC
1818
3630
61E0
01F0
0E1F
F007
ENDCHAR
STARTCHAR 2838
ENCODING 10296
SWIDTH 362 0
DWIDTH 16 0
BBX 16 16 0 -2
BITMAP
4192
3F1F
0F13
3393
DC93
18D3
FFD3
3613
3D93
6CD3
E493
E49F
6496
6590
6590
0410
ENDCHAR
STARTCHAR 2839
ENCODING 10297
SWIDTH 362 0
DWIDTH 16 0
BBX 16 16 0 -2
BITMAP
4002
7FFF
60C0
6CC0
64C2
60FF
7AB2
6F30
6430
6430
6830
5868
58CC
D886
9907
8603
ENDCHAR
STARTCHAR 283a
ENCODING 10298
SWIDTH 362 0
DWIDTH 16 0
BBX 16 16 0 -2
BITMAP
0300
0184
7FFE
1018
0830
0C20
FFFF
0180
0180
218C
3FFC
200C
200C
200C
3FFC
2008
ENDCHAR
STARTCHAR 283b
ENCODING 10299
SWIDTH 362 0
DWIDTH 16 0
BBX 16 16 0 -2
BITMAP
0300
0183
FFFF
0818
180E
6186
C180
0182
7FFE
0180
3198
300C
3008
3008
3FF8
3008
ENDCHAR
STARTCHAR 283c
ENCODING 10300
SWIDTH 362 0
DWIDTH 16 0
BBX 16 16 0 -2
BITMAP
0020
0030
DBFF
DE03
D80C
D80C
D80F
D80C
D908
D888
D888
F808
C008
0008
0078
0018
ENDCHAR
STARTCHAR 283d
ENCODING 10301
SWIDTH 362 0
DWIDTH 16 0
BBX 16 16 0 -2
BITMAP
0202
033F
F908
D808
DE88
DA88
D9FF
D908
D908
DB08
DA08
FE08
D608
0308
0308
0208
ENDCHAR
STARTCHAR 283e
ENCODING 10302
SWIDTH 362 0
DWIDTH 16 0
BBX 16 16 0 -2
BITMAP
001E
03E0
DB03
DB03
DB03
DBFF
DB00
DBFF
DBC3
DBC2
DBC2
FBDE
C2C4
06C1
04FF
087F
ENDCHAR
STARTCHAR 283f
ENCODING 10303
SWIDTH 362 0
DWIDTH 16 0
BBX 16 16 0 -2
BITMAP
010C
008C
D8DB
D830
DB22
DB26
DB26
DB26
DB26
DBFE
D860
F860
C0C0
0080
0100
0600
ENDCHAR
STARTCHAR 2840
ENCODING 10304
SWIDTH 362 0
DWIDTH 16 0
BBX 16 16 0 -2
BITMAP
0006
01FE
D806
D806
D9FE
D806
D806
D800
D806
D9FE
D806
F806
C1FE
0006
0006
0000
ENDCHAR
STARTCHAR 2841
ENCODING 10305
SWIDTH 362 0
DWIDTH 16 0
BBX 16 16 0 -2
BITMAP
0002
03FF
D802
D802
D9FE
DB00
DB03
DBC3
D843
DBFB
D843
F843
C3FB
0006
00FC
0018
ENDCHAR
STARTCHAR 2842
ENCODING 10306
SWIDTH 362 0
DWIDTH 16 0
BBX 16 16 0 -2
BITMAP
0042
07FF
F843
D843
DACB
DBDA
DA18
DEDB
DFFF
D843
D843
F843
D043
00C3
07DE
018C
ENDCHAR
STARTCHAR 2843
ENCODING 10307
SWIDTH 362 0
DWIDTH 16 0
BBX 16 16 0 -2
BITMAP
0030
0030
DBFF
D830
D936
D933
D932
D932
D932
D936
D878
F8FC
C1B7
0333
0630
0030
ENDCHAR
STARTCHAR 2844
ENCODING 10308
SWIDTH 362 0
DWIDTH 16 0
BBX 16 16 0 -2
BITMAP
0018
001B
D81B
DBFF
DA18
DA18
DA1B
DB9B
DADA
DA5E
DA1C
FA0C
C61C
0437
0C63
08C1
ENDCHAR
STARTCHAR 2845
ENCODING 10309
SWIDTH 362 0
DWIDTH 16 0
BBX 16 16 0 -2
BITMAP
00C0
00C0
FFFF
D8C0
D882
D9FF
D906
DB0C
DB08
DF08
D97F
F908
D108
0108
0138
0118
ENDCHAR
STARTCHAR 2846
ENCODING 10310
SWIDTH 362 0
DWIDTH 16 0
BBX 16 16 0 -2
BITMAP
2008
3FFC
200C
200C
3FFC
2300
0706
0C30
1818
300F
700F
D00C
1008
1008
1FF8
1008
ENDCHAR
STARTCHAR 2847
ENCODING 10311
SWIDTH 362 0
DWIDTH 16 0
BBX 16 16 0 -2
BITMAP
0186
03CF
D986
D882
D9FF
D806
D808
D810
D810
D810
D810
F810
C010
0010
00F0
0020
ENDCHAR
STARTCHAR 2848
ENCODING 10312
SWIDTH 362 0
DWIDTH 16 0
BBX 16 16 0 -2
BITMAP
0000
DAD3
FBFF
DA5B
DA5B
DA5B
DA5B
DA5B
DA5B
DA5B
DA5B
DA5B
DBDB
DBDB
C210
0000
ENDCHAR
STARTCHAR 2849
ENCODING 10313
SWIDTH 362 0
DWIDTH 16 0
BBX 16 16 0 -2
BITMAP
0006
03FE
DB5E
DB5E
DB5E
DFFF
DB5E
DB5E
DB5E
DFFF
DB5E
FB5E
C35E
035E
035E
0306
ENDCHAR
STARTCHAR 284a
ENCODING 10314
SWIDTH 362 0
DWIDTH 16 0
BBX 16 16 0 -2
BITMAP
0060
0060
D9FC
D844
D8C5
D885
D907
DA30
D830
DBFF
D830
F9B4
C132
0333
0631
0030
ENDCHAR
STARTCHAR 284b
ENCODING 10315
SWIDTH 362 0
DWIDTH 16 0
BBX 16 16 0 -2
BITMAP
0060
00C4
D882
D90F
DBF9
D902
D9FF
D983
D982
D982
D982
F9FE
C102
0302
021E
0406
ENDCHAR
STARTCHAR 284c
ENCODING 10316
SWIDTH 362 0
DWIDTH 16 0
BBX 16 16 0 -2
BITMAP
0030
003C
D8FE
D820
D822
DBFE
D820
D823
DFFF
D870
D8F8
F9AC
C327
0623
0020
0020
ENDCHAR
STARTCHAR 284d
ENCODING 10317
SWIDTH 362 0
DWIDTH 16 0
BBX 16 16 0 -2
BITMAP
01C0
018C
D9FE
D908
DB1B
DB00
DB46
DB46
DB46
DB46
DB46
FA4E
C240
0641
047F
087F
ENDCHAR
STARTCHAR 284e
ENCODING 10318
SWIDTH 362 0
DWIDTH 16 0
BBX 16 16 0 -2
BITMAP
0180
0100
D9FE
D900
D900
D9FE
D9FF
D830
D830
DBFF
D830
F9B4
C132
0333
0631
0030
ENDCHAR
STARTCHAR 284f
ENCODING 10319
SWIDTH 362 0
DWIDTH 16 0
BBX 16 16 0 -2
BITMAP
0004
7FFE
0C04
180C
307C
601C
FFFE
6666
6C66
683E
7C26
6C36
6C26
6FE6
600E
400C
ENDCHAR
STARTCHAR 2850
ENCODING 10320
SWIDTH 362 0
DWIDTH 16 0
BBX 16 16 0 -2
BITMAP
200C
300C
200C
3FFC
2E10
1818
3FFC
3004
0818
1818
1BD8
18D8
19F8
1718
2078
4030
ENDCHAR
STARTCHAR 2851
ENCODING 10321
SWIDTH 362 0
DWIDTH 16 0
BBX 16 16 0 -2
BITMAP
0098
00CC
D986
D967
DA63
DCCC
D9BE
D9C2
D880
D8CC
D888
F888
C188
0109
030F
0607
ENDCHAR
STARTCHAR 2852
ENCODING 10322
SWIDTH 362 0
DWIDTH 16 0
BBX 16 16 0 -2
BITMAP
1180
1180
3FFC
2180
4186
7FFE
07C0
0DB0
199F
718F
BFF8
3018
3018
3018
3FF8
3008
ENDCHAR
STARTCHAR 2853
ENCODING 10323
SWIDTH 362 0
DWIDTH 16 0
BBX 16 16 0 -2
BITMAP
0006
03FE
D866
D856
DB5E
DB5E
DBFE
D846
DB56
DB5E
DB5E
FBF6
C043
0043
0041
0001
ENDCHAR
STARTCHAR 2854
ENCODING 10324
SWIDTH 362 0
DWIDTH 16 0
BBX 16 16 0 -2
BITMAP
4006
7FFE
4006
4196
49B6
4DA6
419E
4186
4DA6
4DB6
499E
518E
4186
4006
7FFE
4002
ENDCHAR
STARTCHAR 2855
ENCODING 10325
SWIDTH 362 0
DWIDTH 16 0
BBX 16 16 0 -2
BITMAP
4006
7FFE
4016
5FF6
5986
59B6
5FF6
5836
5836
59A6
5986
5996
5FFE
4006
7FFE
4002
ENDCHAR
STARTCHAR 2856
ENCODING 10326
SWIDTH 362 0
DWIDTH 16 0
BBX 16 16 0 -2
BITMAP
4006
7FFE
4016
5FFE
4606
4C36
5FF6
5996
4186
4FF6
4186
418E
5FFE
4006
7FFE
4002
ENDCHAR
STARTCHAR 2857
ENCODING 10327
SWIDTH 362 0
DWIDTH 16 0
BBX 16 16 0 -2
BITMAP
201A
301B
2018
23FF
F818
2198
219B
219B
23FA
219E
218E
390C
731C
C237
0463
0183
ENDCHAR
STARTCHAR 2858
ENCODING 10328
SWIDTH 362 0
DWIDTH 16 0
BBX 16 16 0 -2
BITMAP
2023
37F3
219F
211B
F9FB
237B
227B
277B
25DB
20DB
20DB
389B
7183
C303
020F
0406
ENDCHAR
STARTCHAR 2859
ENCODING 10329
SWIDTH 362 0
DWIDTH 16 0
BBX 16 16 0 -2
BITMAP
2002
33FF
2040
22E3
FB5F
225B
225B
225B
225B
22DB
23DB
3B5B
70DF
C098
0118
0618
ENDCHAR
STARTCHAR 285a
ENCODING 10330
SWIDTH 362 0
DWIDTH 16 0
BBX 16 16 0 -2
BITMAP
2006
31FF
2030
2030
F830
23FF
2030
2030
21B0
213F
2130
3930
7130
C130
0333
0000
ENDCHAR
STARTCHAR 285b
ENCODING 10331
SWIDTH 362 0
DWIDTH 16 0
BBX 16 16 0 -2
BITMAP
2040
32C3
231F
2213
FA13
2213
23D3
2213
2213
2213
2213
3AF3
779F
C612
0010
0010
ENDCHAR
STARTCHAR 285c
ENCODING 10332
SWIDTH 362 0
DWIDTH 16 0
BBX 16 16 0 -2
BITMAP
0180
01FE
0180
7FFE
6FE6
6666
63C6
67FE
7816
611C
4184
3FFC
0180
0180
0183
0000
ENDCHAR
STARTCHAR 285d
ENCODING 10333
SWIDTH 362 0
DWIDTH 16 0
BBX 16 16 0 -2
BITMAP
00FC
3FC0
010C
1988
0890
4003
7FFF
C182
8180
0180
3FFC
0180
0180
0180
0183
0000
ENDCHAR
STARTCHAR 285e
ENCODING 10334
SWIDTH 362 0
DWIDTH 16 0
BBX 16 16 0 -2
BITMAP
3030
2030
5820
9FFF
3020
7020
F020
33FF
3000
0180
0184
3FFC
0180
0180
0183
0000
ENDCHAR
STARTCHAR 285f
ENCODING 10335
SWIDTH 362 0
DWIDTH 16 0
BBX 16 16 0 -2
BITMAP
3060
2440
7EC2
C4FF
BC83
3983
3103
7863
BE33
3313
6203
D603
8C03
1806
303E
C00C
ENDCHAR
STARTCHAR 2860
ENCODING 10336
SWIDTH 362 0
DWIDTH 16 0
BBX 16 16 0 -2
BITMAP
0300
0302
7FFE
0C30
181C
3007
C100
7FFE
0000
3FFC
200C
200C
3FFC
200C
3FFC
2008
ENDCHAR
STARTCHAR 2861
ENCODING 10337
SWIDTH 362 0
DWIDTH 16 0
BBX 16 16 0 -2
BITMAP
0300
0302
7FFE
0C30
185C
31E7
C700
390C
0798
1F60
3120
C510
0F0C
3127
E1C3
0180
ENDCHAR
STARTCHAR 2862
ENCODING 10338
SWIDTH 362 0
DWIDTH 16 0
BBX 16 16 0 -2
BITMAP
0300
0302
7FFE
0C30
181C
3007
F00E
360C
FE18
7610
2632
6430
7C10
1C10
3670
6220
ENDCHAR
STARTCHAR 2863
ENCODING 10339
SWIDTH 362 0
DWIDTH 16 0
BBX 16 16 0 -2
BITMAP
2020
6033
63FF
6980
FD80
E980
69FE
6800
48B4
D9B6
F9B6
31B6
39B6
6D36
C337
0223
ENDCHAR
STARTCHAR 2864
ENCODING 10340
SWIDTH 362 0
DWIDTH 16 0
BBX 16 16 0 -2
BITMAP
2102
61FF
6133
6933
FD2B
E94F
6987
6933
4933
D93B
F94F
3187
3903
6D03
C11F
0106
ENDCHAR
STARTCHAR 2865
ENCODING 10341
SWIDTH 362 0
DWIDTH 16 0
BBX 16 16 0 -2
BITMAP
2030
6064
60C2
69FF
FFC1
E802
69FF
69A3
49B2
D992
F9FF
3182
3982
6D82
C18E
0106
ENDCHAR
STARTCHAR 2866
ENCODING 10342
SWIDTH 362 0
DWIDTH 16 0
BBX 16 16 0 -2
BITMAP
2060
6060
61FC
6844
FCC5
E885
6907
6E30
4830
DBFF
F830
31B4
3932
6F33
C631
0030
ENDCHAR
STARTCHAR 2867
ENCODING 10343
SWIDTH 362 0
DWIDTH 16 0
BBX 16 16 0 -2
BITMAP
41DC
6198
6198
7918
FB7F
FB18
7B18
5F1C
DF3C
D33E
F37B
335B
3B98
4B18
C318
0318
ENDCHAR
STARTCHAR 2868
ENCODING 10344
SWIDTH 362 0
DWIDTH 16 0
BBX 16 16 0 -2
BITMAP
4182
61FF
6192
7912
FBFF
FB12
7B12
5F7E
DF12
D330
F330
3330
3B20
4B60
C340
0380
ENDCHAR
STARTCHAR 2869
ENCODING 10345
SWIDTH 362 0
DWIDTH 16 0
BBX 16 16 0 -2
BITMAP
2030
6022
61FF
6D83
FD82
ED82
6D82
6D82
4D82
C9FF
F983
3183
3D83
6783
C1FF
0182
ENDCHAR
STARTCHAR 286a
ENCODING 10346
SWIDTH 362 0
DWIDTH 16 0
BBX 16 16 0 -2
BITMAP
2030
6060
61FF
6903
FD0F
E9CF
696B
693B
491B
D93B
F96F
31C7
3983
6D03
C1FF
0102
ENDCHAR
STARTCHAR 286b
ENCODING 10347
SWIDTH 362 0
DWIDTH 16 0
BBX 16 16 0 -2
BITMAP
2193
61B6
6324
6936
FD92
E800
69FF
68C0
48FE
D986
F986
31FC
3818
6C30
C0C0
0380
ENDCHAR
STARTCHAR 286c
ENCODING 10348
SWIDTH 362 0
DWIDTH 16 0
BBX 16 16 0 -2
BITMAP
0180
4083
7FFF
C182
8180
3FFC
0180
0180
7FFE
0180
0180
3FFC
0180
0180
0183
0000
ENDCHAR
STARTCHAR 286d
ENCODING 10349
SWIDTH 362 0
DWIDTH 16 0
BBX 16 16 0 -2
BITMAP
0180
4083
7FFF
C41A
B3B0
30F0
3718
3000
3FFC
0000
199C
1198
1198
3198
619F
C10F
ENDCHAR
STARTCHAR 286e
ENCODING 10350
SWIDTH 362 0
DWIDTH 16 0
BBX 16 16 0 -2
BITMAP
0180
4083
7FFF
C182
8380
0640
0C30
183C
37EF
C003
1038
1818
1818
1818
1818
1810
ENDCHAR
STARTCHAR 286f
ENCODING 10351
SWIDTH 362 0
DWIDTH 16 0
BBX 16 16 0 -2
BITMAP
1C06
1806
1A06
187F
1806
FF06
1866
5836
7A36
5B06
5906
D986
9806
1806
783E
300C
ENDCHAR
STARTCHAR 2870
ENCODING 10352
SWIDTH 362 0
DWIDTH 16 0
BBX 16 16 0 -2
BITMAP
200E
3180
318C
3180
318C
3180
3183
2003
0183
010F
3112
3108
610C
C106
8F00
0200
ENDCHAR
STARTCHAR 2871
ENCODING 10353
SWIDTH 362 0
DWIDTH 16 0
BBX 16 16 0 -2
BITMAP
3006
30FE
3018
3018
FEFF
3C18
3C18
3CFF
3CC3
2CC2
2CC2
6CFE
6C02
4C01
CFFF
87FF
ENDCHAR
STARTCHAR 2872
ENCODING 10354
SWIDTH 362 0
DWIDTH 16 0
BBX 16 16 0 -2
BITMAP
3004
307E
3044
30C4
FE87
3D18
3C10
3DFF
3C90
2CD6
2D93
6F11
6C10
4C01
CFFF
87FF
ENDCHAR
STARTCHAR 2873
ENCODING 10355
SWIDTH 362 0
DWIDTH 16 0
BBX 16 16 0 -2
BITMAP
3006
30FE
3086
30FE
FE86
3CFE
3C80
3CC2
3CFE
2C80
2CC0
6CFF
6C00
4C01
CFFF
87FF
ENDCHAR
STARTCHAR 2874
ENCODING 10356
SWIDTH 362 0
DWIDTH 16 0
BBX 16 16 0 -2
BITMAP
4006
7FFE
6006
7FFE
6000
7FFF
640C
640C
67FC
640C
47FC
440C
CC0F
C00C
800C
800C
ENDCHAR
STARTCHAR 2875
ENCODING 10357
SWIDTH 362 0
DWIDTH 16 0
BBX 16 16 0 -2
BITMAP
4006
7FFE
6006
7FFE
6300
6618
6C3E
7F86
6C00
6C0C
4FFC
4C04
CFFC
C804
983C
B008
ENDCHAR
STARTCHAR 2876
ENCODING 10358
SWIDTH 362 0
DWIDTH 16 0
BBX 16 16 0 -2
BITMAP
2184
6186
618C
630C
0602
FFFF
0180
0360
0C3C
1FFF
E00A
1FFC
0108
0108
0178
0110
ENDCHAR
STARTCHAR 2877
ENCODING 10359
SWIDTH 362 0
DWIDTH 16 0
BBX 16 16 0 -2
BITMAP
218C
318C
210C
3FFC
0680
0D88
1FFC
380C
E808
0FF8
0804
0FFE
0804
0804
0C0C
0C0C
ENDCHAR
STARTCHAR 2878
ENCODING 10360
SWIDTH 362 0
DWIDTH 16 0
BBX 16 16 0 -2
BITMAP
2023
33F3
216F
A16B
A96B
A96B
AF7B
AF6B
A96B
A96B
AB6B
AB6B
FA6B
0263
066F
0C46
ENDCHAR
STARTCHAR 2879
ENCODING 10361
SWIDTH 362 0
DWIDTH 16 0
BBX 16 16 0 -2
BITMAP
2060
3060
21FF
A103
AD0F
ADCF
AD6B
AD3B
AD13
AD3B
AD6F
ADC7
FD83
0103
01FF
0100
ENDCHAR
STARTCHAR 287a
ENCODING 10362
SWIDTH 362 0
DWIDTH 16 0
BBX 16 16 0 -2
BITMAP
2106
30EC
2038
A07E
AD87
AC60
AC60
AFFF
AC40
ACD8
ACB0
ADB0
FD64
0242
04FF
00C1
ENDCHAR
STARTCHAR 287b
ENCODING 10363
SWIDTH 362 0
DWIDTH 16 0
BBX 16 16 0 -2
BITMAP
0180
7186
6184
7FFC
0300
7FFF
0420
0818
3C3F
6C37
8C30
7FFE
0830
1830
3030
6030
ENDCHAR
STARTCHAR 287c
ENCODING 10364
SWIDTH 362 0
DWIDTH 16 0
BBX 16 16 0 -2
BITMAP
306C
304C
344C
FE4C
B5FF
B44C
B44C
B44C
B44C
B5FF
B400
BCC4
30C6
3183
3103
3201
ENDCHAR
STARTCHAR 287d
ENCODING 10365
SWIDTH 362 0
DWIDTH 16 0
BBX 16 16 0 -2
BITMAP
3018
3010
35FF
FE12
B5FF
B413
B4B2
B5B2
B592
B5FF
B433
BC37
306A
30CC
3187
3703
ENDCHAR
STARTCHAR 287e
ENCODING 10366
SWIDTH 362 0
DWIDTH 16 0
BBX 16 16 0 -2
BITMAP
3070
3060
23FE
FC66
A8C6
A886
A93C
AE08
AB08
ABCF
AFFF
BB4B
AB4B
225B
25D3
28A6
ENDCHAR
STARTCHAR 2921
ENCODING 10529
SWIDTH 362 0
DWIDTH 16 0
BBX 16 16 0 -2
BITMAP
3030
3030
3536
FF33
B532
B5FE
B532
B532
B5FE
B532
B436
BC1C
3018
306D
30C7
3303
ENDCHAR
STARTCHAR 2922
ENCODING 10530
SWIDTH 362 0
DWIDTH 16 0
BBX 16 16 0 -2
BITMAP
3002
31FF
3503
FF0F
B57F
B503
B55B
B56F
B56B
B56B
B57B
BD4B
3103
3103
311F
3106
ENDCHAR
STARTCHAR 2923
ENCODING 10531
SWIDTH 362 0
DWIDTH 16 0
BBX 16 16 0 -2
BITMAP
3060
3044
34FE
FE8C
B59B
B580
B5A6
B5B3
B5A2
B5A2
B5B6
BDB6
3124
3121
333F
361F
ENDCHAR
STARTCHAR 2924
ENCODING 10532
SWIDTH 362 0
DWIDTH 16 0
BBX 16 16 0 -2
BITMAP
3020
3030
3478
FE4C
B4C6
B587
B703
B5FE
B430
B430
B436
BC30
3030
3030
3033
3000
ENDCHAR
STARTCHAR 2925
ENCODING 10533
SWIDTH 362 0
DWIDTH 16 0
BBX 16 16 0 -2
BITMAP
0E46
7043
4042
7E42
4042
4242
FC5E
C144
0180
7FFC
6184
6184
6184
6184
619C
0100
ENDCHAR
STARTCHAR 2926
ENCODING 10534
SWIDTH 362 0
DWIDTH 16 0
BBX 16 16 0 -2
BITMAP
0180
4083
7FFF
6060
60C2
60C0
68C6
6CC6
6846
6846
68EE
41F0
4358
C64E
9847
B043
ENDCHAR
STARTCHAR 2927
ENCODING 10535
SWIDTH 362 0
DWIDTH 16 0
BBX 16 16 0 -2
BITMAP
0180
4083
7FFF
6060
6CCE
6CC6
6C46
6FFE
6C46
6FFE
6C46
406E
4078
C0F9
830F
BC07
ENDCHAR
STARTCHAR 2928
ENCODING 10536
SWIDTH 362 0
DWIDTH 16 0
BBX 16 16 0 -2
BITMAP
0180
4083
7FFF
6060
6440
67FE
6C40
6840
7042
7FFF
61B0
4330
4330
C631
8C3F
B01E
ENDCHAR
STARTCHAR 2929
ENCODING 10537
SWIDTH 362 0
DWIDTH 16 0
BBX 16 16 0 -2
BITMAP
0180
4083
7FFF
6300
6308
6604
7FFE
7C02
67FC
6584
6464
4434
4CFC
CF84
983C
B008
ENDCHAR
STARTCHAR 292a
ENCODING 10538
SWIDTH 362 0
DWIDTH 16 0
BBX 16 16 0 -2
BITMAP
0180
4083
7FFF
60C0
61E0
6330
661C
6C0F
7BFB
6000
67FC
440C
440C
C40C
87FC
8408
ENDCHAR
STARTCHAR 292b
ENCODING 10539
SWIDTH 362 0
DWIDTH 16 0
BBX 16 16 0 -2
BITMAP
0886
FCC6
086C
09FF
4810
4810
C032
CC30
FC10
0C10
0DFF
0C10
0C10
0C10
F810
3010
ENDCHAR
STARTCHAR 292c
ENCODING 10540
SWIDTH 362 0
DWIDTH 16 0
BBX 16 16 0 -2
BITMAP
0802
FDFF
0903
090F
497F
4903
C15B
CD6F
FD6B
0D6B
0D7B
0D4B
0D03
0D03
F91F
3106
ENDCHAR
STARTCHAR 292d
ENCODING 10541
SWIDTH 362 0
DWIDTH 16 0
BBX 16 16 0 -2
BITMAP
181C
18D8
30D8
20D8
4CD8
1BD8
32FF
32D8
72D8
F2D8
B2D8
32D8
32D8
32F9
37DF
360F
ENDCHAR
STARTCHAR 292e
ENCODING 10542
SWIDTH 362 0
DWIDTH 16 0
BBX 16 16 0 -2
BITMAP
1902
19B3
3132
2132
4D32
1932
3332
3332
7132
F132
B132
3332
3332
3332
3232
3402
ENDCHAR
STARTCHAR 292f
ENCODING 10543
SWIDTH 362 0
DWIDTH 16 0
BBX 16 16 0 -2
BITMAP
181A
181B
3018
23FF
4C18
0998
199B
319B
33FA
719E
918E
110C
131C
1237
1463
1183
ENDCHAR
STARTCHAR 2930
ENCODING 10544
SWIDTH 362 0
DWIDTH 16 0
BBX 16 16 0 -2
BITMAP
1806
19FE
300C
2018
4C10
08D3
1BDC
30D8
309C
7194
9197
1313
1670
1020
1003
1000
ENDCHAR
STARTCHAR 2931
ENCODING 10545
SWIDTH 362 0
DWIDTH 16 0
BBX 16 16 0 -2
BITMAP
1830
1830
33FF
2030
4D36
0933
1932
3132
3132
7136
9078
10FC
11B7
1333
1630
1030
ENDCHAR
STARTCHAR 2932
ENCODING 10546
SWIDTH 362 0
DWIDTH 16 0
BBX 16 16 0 -2
BITMAP
1870
1860
33FF
20CC
4D86
0BFF
1E00
3002
33FE
7080
91FE
1006
1006
1006
107C
1018
ENDCHAR
STARTCHAR 2933
ENCODING 10547
SWIDTH 362 0
DWIDTH 16 0
BBX 16 16 0 -2
BITMAP
18D8
18CC
3086
21E7
4F63
1ACC
19BE
31C2
3080
70CC
9088
1088
1088
1189
130F
1607
ENDCHAR
STARTCHAR 2934
ENCODING 10548
SWIDTH 362 0
DWIDTH 16 0
BBX 16 16 0 -2
BITMAP
3040
3020
3033
3060
7860
FC60
F0E6
B096
319C
3398
3398
358C
318E
31B7
31C3
3080
ENDCHAR
STARTCHAR 2935
ENCODING 10549
SWIDTH 362 0
DWIDTH 16 0
BBX 16 16 0 -2
BITMAP
3060
3040
30C3
30C0
7880
FDFE
F186
B386
32FE
3486
3086
30FE
3186
3106
331E
320C
ENDCHAR
STARTCHAR 2936
ENCODING 10550
SWIDTH 362 0
DWIDTH 16 0
BBX 16 16 0 -2
BITMAP
3030
3030
2336
3333
3A22
BBFE
A222
A222
23FE
2222
2036
203C
2018
207D
2187
2603
ENDCHAR
STARTCHAR 2937
ENCODING 10551
SWIDTH 362 0
DWIDTH 16 0
BBX 16 16 0 -2
BITMAP
30C0
30C4
30FE
31CC
7938
FE38
F0EF
B1B3
3632
31FE
3130
3130
33FF
3030
3030
3030
ENDCHAR
STARTCHAR 2938
ENCODING 10552
SWIDTH 362 0
DWIDTH 16 0
BBX 16 16 0 -2
BITMAP
00FE
7F00
6006
6003
6002
7FFE
6818
6810
6210
75FF
6C10
4C10
5810
D810
9810
8810
ENDCHAR
STARTCHAR 2939
ENCODING 10553
SWIDTH 362 0
DWIDTH 16 0
BBX 16 16 0 -2
BITMAP
00FE
7F00
6006
6003
6002
6100
6FA6
7933
79A2
79A2
79A2
5FA2
5B3E
C324
8620
8C20
ENDCHAR
STARTCHAR 293a
ENCODING 10554
SWIDTH 362 0
DWIDTH 16 0
BBX 16 16 0 -2
BITMAP
3006
3F7E
2346
765E
DC45
187F
307F
C0F8
1FF8
0184
7FFE
0183
FFFF
0180
0780
0300
ENDCHAR
STARTCHAR 293b
ENCODING 10555
SWIDTH 362 0
DWIDTH 16 0
BBX 16 16 0 -2
BITMAP
3060
3030
31FF
3030
F933
31B6
30B4
3830
73FF
F030
3030
3030
3030
3030
F030
6030
ENDCHAR
STARTCHAR 293c
ENCODING 10556
SWIDTH 362 0
DWIDTH 16 0
BBX 16 16 0 -2
BITMAP
3180
3102
213E
2108
F7C8
2108
2108
3188
7308
E708
2308
2108
2108
2108
E77F
6300
ENDCHAR
STARTCHAR 293d
ENCODING 10557
SWIDTH 362 0
DWIDTH 16 0
BBX 16 16 0 -2
BITMAP
3000
33FF
3240
3242
FAFE
3398
3218
3A18
73FF
F218
3218
3218
3618
3618
F418
6810
ENDCHAR
STARTCHAR 293e
ENCODING 10558
SWIDTH 362 0
DWIDTH 16 0
BBX 16 16 0 -2
BITMAP
3000
33FF
3218
3230
FA38
3264
32C7
3BFF
7200
F202
32FF
3206
3604
360C
F418
6830
ENDCHAR
STARTCHAR 293f
ENCODING 10559
SWIDTH 362 0
DWIDTH 16 0
BBX 16 16 0 -2
BITMAP
3030
3030
31FE
3026
FC36
3036
3026
39FE
7020
F1FE
3020
3023
37FF
3020
F020
6020
ENDCHAR
STARTCHAR 2940
ENCODING 10560
SWIDTH 362 0
DWIDTH 16 0
BBX 16 16 0 -2
BITMAP
3006
31FE
3084
3068
F838
307E
30C7
3B03
701E
F1F6
3126
3126
3126
3322
F223
6423
ENDCHAR
STARTCHAR 2941
ENCODING 10561
SWIDTH 362 0
DWIDTH 16 0
BBX 16 16 0 -2
BITMAP
3030
3030
3333
3333
FB33
336B
334F
3BB7
7333
F333
332B
334F
3387
3303
F31F
6306
ENDCHAR
STARTCHAR 2942
ENCODING 10562
SWIDTH 362 0
DWIDTH 16 0
BBX 16 16 0 -2
BITMAP
3006
31CC
3078
303C
F8C6
3303
3030
3830
73FF
F030
31B4
3132
3333
3231
F431
6030
ENDCHAR
STARTCHAR 2943
ENCODING 10563
SWIDTH 362 0
DWIDTH 16 0
BBX 16 16 0 -2
BITMAP
3106
30EC
3038
307E
F8C7
3360
3040
3BFF
70C0
F0D8
30B0
31B0
3164
3242
F4FF
60C1
ENDCHAR
STARTCHAR 2944
ENCODING 10564
SWIDTH 362 0
DWIDTH 16 0
BBX 16 16 0 -2
BITMAP
3000
33FF
3030
3030
F836
3030
3030
3830
73FF
F060
30C0
30C4
3182
331F
F7E1
6301
ENDCHAR
STARTCHAR 2945
ENCODING 10565
SWIDTH 362 0
DWIDTH 16 0
BBX 16 16 0 -2
BITMAP
3084
30FE
3084
3084
F884
3187
3133
3A30
7030
F3FF
3030
31B4
3332
3233
F431
6030
ENDCHAR
STARTCHAR 2946
ENCODING 10566
SWIDTH 362 0
DWIDTH 16 0
BBX 16 16 0 -2
BITMAP
30C0
30C2
30FF
31C6
F938
3238
306F
399B
7212
F1FE
3190
3190
31FF
3010
F010
6010
ENDCHAR
STARTCHAR 2947
ENCODING 10567
SWIDTH 362 0
DWIDTH 16 0
BBX 16 16 0 -2
BITMAP
3198
311C
231A
231A
FA18
26FF
2618
3218
7218
E238
2234
2224
2266
2243
E2C3
6381
ENDCHAR
STARTCHAR 2948
ENCODING 10568
SWIDTH 362 0
DWIDTH 16 0
BBX 16 16 0 -2
BITMAP
3002
337F
33C0
3300
FB7F
335B
335B
3B5B
735B
F37F
3340
3340
3240
3641
F47F
687F
ENDCHAR
STARTCHAR 2949
ENCODING 10569
SWIDTH 362 0
DWIDTH 16 0
BBX 16 16 0 -2
BITMAP
0118
FF90
C310
7E1F
6610
6610
6636
7E47
6E46
6624
662C
6618
6698
472C
C247
8183
ENDCHAR
STARTCHAR 294a
ENCODING 10570
SWIDTH 362 0
DWIDTH 16 0
BBX 16 16 0 -2
BITMAP
0230
FF30
4020
4063
407F
7F66
43E6
42A4
4234
421C
7E18
4018
401C
4026
FF47
0183
ENDCHAR
STARTCHAR 294b
ENCODING 10571
SWIDTH 362 0
DWIDTH 16 0
BBX 16 16 0 -2
BITMAP
6018
6010
7F10
C31F
9B10
7B10
5B36
5B47
7B46
4324
5E2C
4418
4318
5E2C
7047
6183
ENDCHAR
STARTCHAR 294c
ENCODING 10572
SWIDTH 362 0
DWIDTH 16 0
BBX 16 16 0 -2
BITMAP
1860
1860
FF60
1843
DEFF
DBC6
DBC4
DB44
DE6C
BA2C
3838
7838
5838
986C
18C7
1303
ENDCHAR
STARTCHAR 294d
ENCODING 10573
SWIDTH 362 0
DWIDTH 16 0
BBX 16 16 0 -2
BITMAP
2018
3010
FE10
61FF
6193
6D92
7F92
6592
6592
65FF
6430
443C
4466
CCC3
FD83
9B01
ENDCHAR
STARTCHAR 294e
ENCODING 10574
SWIDTH 362 0
DWIDTH 16 0
BBX 16 16 0 -2
BITMAP
0400
FFFF
D806
D8F6
D8B6
FEB6
18B6
18F6
1C86
3C06
3C06
2C3E
6C0C
4C01
CFFF
87FF
ENDCHAR
STARTCHAR 294f
ENCODING 10575
SWIDTH 362 0
DWIDTH 16 0
BBX 16 16 0 -2
BITMAP
0102
09FF
FD02
CD02
C902
C902
C902
F97A
C878
C858
C8D8
C8D8
F998
8319
061F
0C0F
ENDCHAR
STARTCHAR 2950
ENCODING 10576
SWIDTH 362 0
DWIDTH 16 0
BBX 16 16 0 -2
BITMAP
001C
1198
FB18
9B18
9A3F
9CDB
9EDB
FB9B
991B
9B9B
9ADB
9FD3
FE73
8026
005E
018C
ENDCHAR
STARTCHAR 2951
ENCODING 10577
SWIDTH 362 0
DWIDTH 16 0
BBX 16 16 0 -2
BITMAP
3018
300C
3008
3008
3008
3008
1018
1018
1018
1018
1FF8
0640
0442
0842
107E
607E
ENDCHAR
STARTCHAR 2952
ENCODING 10578
SWIDTH 362 0
DWIDTH 16 0
BBX 16 16 0 -2
BITMAP
1860
1040
16C3
FEC3
9683
9783
FE7B
9603
9603
FE03
967B
1003
1003
1006
103E
100C
ENDCHAR
STARTCHAR 2953
ENCODING 10579
SWIDTH 362 0
DWIDTH 16 0
BBX 16 16 0 -2
BITMAP
0008
3FFC
264C
264C
FFFF
264C
264C
265C
2008
2000
3FFC
200C
3FFC
200C
300C
300C
ENDCHAR
STARTCHAR 2954
ENCODING 10580
SWIDTH 362 0
DWIDTH 16 0
BBX 16 16 0 -2
BITMAP
0820
7D33
4BFF
4A02
48C8
78CC
48C8
48C8
48C8
78C8
48C8
4888
C988
C909
BB0F
9E07
ENDCHAR
STARTCHAR 2955
ENCODING 10581
SWIDTH 362 0
DWIDTH 16 0
BBX 16 16 0 -2
BITMAP
3002
33FF
3080
FC80
30CC
318C
7984
7DC4
71A4
F1BC
B18C
B18C
318C
319D
33EF
3307
ENDCHAR
STARTCHAR 2956
ENCODING 10582
SWIDTH 362 0
DWIDTH 16 0
BBX 16 16 0 -2
BITMAP
3018
3013
3013
FFFF
3310
3310
7B13
7F13
7312
F31E
B31C
B30C
33DD
33B7
3363
31C1
ENDCHAR
STARTCHAR 2957
ENCODING 10583
SWIDTH 362 0
DWIDTH 16 0
BBX 16 16 0 -2
BITMAP
3030
3030
3063
FC60
30C0
30C4
7986
7FFB
715B
F058
B0D8
B0D8
3098
3199
331F
360F
ENDCHAR
STARTCHAR 2958
ENCODING 10584
SWIDTH 362 0
DWIDTH 16 0
BBX 16 16 0 -2
BITMAP
3102
31FF
3103
FD03
3103
3103
7900
7D02
717E
F100
B300
B300
3300
3200
36FF
3400
ENDCHAR
STARTCHAR 2959
ENCODING 10585
SWIDTH 362 0
DWIDTH 16 0
BBX 16 16 0 -2
BITMAP
3202
33FF
3303
FFFF
334B
334B
7B4B
7F3B
7333
F33B
B36F
B3C7
3303
3303
33FF
3302
ENDCHAR
STARTCHAR 295a
ENCODING 10586
SWIDTH 362 0
DWIDTH 16 0
BBX 16 16 0 -2
BITMAP
3202
33FF
3303
FF03
335B
334F
7B4B
7F4B
734B
F37B
B34B
B303
3303
3303
330F
3306
ENDCHAR
STARTCHAR 295b
ENCODING 10587
SWIDTH 362 0
DWIDTH 16 0
BBX 16 16 0 -2
BITMAP
301E
33F0
3024
FF26
31AC
30E8
7BFF
7C40
70C2
F0FF
B002
B002
3002
3006
303E
300C
ENDCHAR
STARTCHAR 295c
ENCODING 10588
SWIDTH 362 0
DWIDTH 16 0
BBX 16 16 0 -2
BITMAP
0030
1B30
0F20
3363
327F
365A
36D8
7418
7E18
FD18
F9BC
B134
3226
7263
DE43
8081
ENDCHAR
STARTCHAR 295d
ENCODING 10589
SWIDTH 362 0
DWIDTH 16 0
BBX 16 16 0 -2
BITMAP
0670
7E60
4660
4643
7EFF
46D2
4690
7E10
4630
4038
4838
442C
5E6C
7246
40C3
0181
ENDCHAR
STARTCHAR 295e
ENCODING 10590
SWIDTH 362 0
DWIDTH 16 0
BBX 16 16 0 -2
BITMAP
4270
7F60
4260
4243
42FF
42D2
5890
5810
5A30
5F38
5838
D82C
D96C
9F46
8FC3
0181
ENDCHAR
STARTCHAR 295f
ENCODING 10591
SWIDTH 362 0
DWIDTH 16 0
BBX 16 16 0 -2
BITMAP
8270
FF60
DA60
DA43
FEFF
DAD2
DB90
FF10
DA30
1838
1838
182C
186C
1846
18C3
1181
ENDCHAR
STARTCHAR 2960
ENCODING 10592
SWIDTH 362 0
DWIDTH 16 0
BBX 16 16 0 -2
BITMAP
1C70
7860
7860
7A43
7EFF
58D2
D890
9810
7E30
1838
1838
182C
186C
FC46
E0C3
0181
ENDCHAR
STARTCHAR 2961
ENCODING 10593
SWIDTH 362 0
DWIDTH 16 0
BBX 16 16 0 -2
BITMAP
1870
1860
1660
3343
23FF
7ED2
C090
8210
7F30
0638
0C38
382C
186C
0C46
04C3
0181
ENDCHAR
STARTCHAR 2962
ENCODING 10594
SWIDTH 362 0
DWIDTH 16 0
BBX 16 16 0 -2
BITMAP
0E70
7060
6360
6343
63FF
7FD2
6090
7E10
6630
6C38
6838
582C
F16C
BF46
1FC3
0181
ENDCHAR
STARTCHAR 2963
ENCODING 10595
SWIDTH 362 0
DWIDTH 16 0
BBX 16 16 0 -2
BITMAP
1818
1810
1810
19FF
5993
5992
5F90
59FE
59C6
59E4
59AC
5F38
F338
C32E
06C7
0583
ENDCHAR
STARTCHAR 2964
ENCODING 10596
SWIDTH 362 0
DWIDTH 16 0
BBX 16 16 0 -2
BITMAP
0030
FC30
2030
23FF
7C30
6C30
4C32
CDFF
B830
1878
18FC
30B4
3137
6233
4430
8030
ENDCHAR
STARTCHAR 2965
ENCODING 10597
SWIDTH 362 0
DWIDTH 16 0
BBX 16 16 0 -2
BITMAP
0000
FFFF
2006
2126
7DF6
6DB6
4DA6
CDA6
B9A6
19E6
1926
3006
3006
6006
403E
800C
ENDCHAR
STARTCHAR 2966
ENCODING 10598
SWIDTH 362 0
DWIDTH 16 0
BBX 16 16 0 -2
BITMAP
0060
FC60
2063
20F8
7CD0
6CD0
4CFE
CD96
BB96
1B96
1E96
3096
3096
609E
4090
8010
ENDCHAR
STARTCHAR 2967
ENCODING 10599
SWIDTH 362 0
DWIDTH 16 0
BBX 16 16 0 -2
BITMAP
0060
FC4C
2046
2040
7DFF
6CC0
4CC6
CCE6
B8A4
18AC
199C
3198
3118
633C
4667
85C3
ENDCHAR
STARTCHAR 2968
ENCODING 10600
SWIDTH 362 0
DWIDTH 16 0
BBX 16 16 0 -2
BITMAP
0202
FFFF
6303
6B33
7F33
4F33
CB33
DB33
BB3B
1B6F
134F
33C7
2387
6303
43FF
8302
ENDCHAR
STARTCHAR 2969
ENCODING 10601
SWIDTH 362 0
DWIDTH 16 0
BBX 16 16 0 -2
BITMAP
0018
FDD0
2190
2190
7DFF
6D10
4F10
CE10
B810
19FF
1810
3010
3010
6010
4010
81FF
ENDCHAR
STARTCHAR 296a
ENCODING 10602
SWIDTH 362 0
DWIDTH 16 0
BBX 16 16 0 -2
BITMAP
00C0
FCC0
2082
21FF
7D03
6F13
4CFB
CC9B
B89B
189B
18FB
3083
3003
6006
403E
800C
ENDCHAR
STARTCHAR 296b
ENCODING 10603
SWIDTH 362 0
DWIDTH 16 0
BBX 16 16 0 -2
BITMAP
0018
FD98
6318
6318
7A7F
5EDB
DF9B
DB9B
BB1B
3313
32B3
37F3
2663
4066
C0DE
018C
ENDCHAR
STARTCHAR 296c
ENCODING 10604
SWIDTH 362 0
DWIDTH 16 0
BBX 16 16 0 -2
BITMAP
0106
FDFE
21FE
21FE
7DFE
6DFE
4DFE
CFFF
B9FE
19FE
19FE
31FE
31FE
61FE
41FE
8106
ENDCHAR
STARTCHAR 296d
ENCODING 10605
SWIDTH 362 0
DWIDTH 16 0
BBX 16 16 0 -2
BITMAP
1FF8
0070
058C
3FDC
0DB0
199C
378F
C112
0FF8
0104
7FFE
0103
FFFF
0102
01FE
01FE
ENDCHAR
STARTCHAR 296e
ENCODING 10606
SWIDTH 362 0
DWIDTH 16 0
BBX 16 16 0 -2
BITMAP
300E
30F0
3830
2430
6632
7CFE
C030
8430
7E32
05FF
0C30
2830
3031
1831
083F
001F
ENDCHAR
STARTCHAR 296f
ENCODING 10607
SWIDTH 362 0
DWIDTH 16 0
BBX 16 16 0 -2
BITMAP
1C0E
78F0
7830
7A30
7E32
58FE
D830
9830
7E32
19FF
1830
1830
1831
FC31
E03F
001F
ENDCHAR
STARTCHAR 2970
ENCODING 10608
SWIDTH 362 0
DWIDTH 16 0
BBX 16 16 0 -2
BITMAP
0830
3C30
70B4
31FE
31B4
FDB0
31FC
31CC
35A8
FDB8
333C
326F
3583
3001
3FFF
1FFF
ENDCHAR
STARTCHAR 2971
ENCODING 10609
SWIDTH 362 0
DWIDTH 16 0
BBX 16 16 0 -2
BITMAP
0830
3C3C
7036
31FE
31B0
FDB6
31B6
31BC
359C
FD1A
331E
3326
3243
3001
3FFF
1FFF
ENDCHAR
STARTCHAR 2972
ENCODING 10610
SWIDTH 362 0
DWIDTH 16 0
BBX 16 16 0 -2
BITMAP
0800
3CFE
7086
30B6
3096
FDFF
3186
31B6
3596
FDFF
3004
303C
3019
3001
3FFF
1FFF
ENDCHAR
STARTCHAR 2973
ENCODING 10611
SWIDTH 362 0
DWIDTH 16 0
BBX 16 16 0 -2
BITMAP
08C0
3CC0
70C6
31B0
3120
FE24
303E
3020
3424
FC3E
3020
3020
3021
3021
3FFF
1FFF
ENDCHAR
STARTCHAR 2974
ENCODING 10612
SWIDTH 362 0
DWIDTH 16 0
BBX 16 16 0 -2
BITMAP
180C
16CC
FF6C
3638
7C3C
1E6F
60C2
01F8
3FF8
0104
7FFE
0103
FFFF
0102
01FE
01FE
ENDCHAR
STARTCHAR 2975
ENCODING 10613
SWIDTH 362 0
DWIDTH 16 0
BBX 16 16 0 -2
BITMAP
2018
6018
7FF8
6180
7FFC
62C0
7C72
701E
2006
3FFC
218C
3FFC
2000
2001
3FFF
1FFE
ENDCHAR
STARTCHAR 2976
ENCODING 10614
SWIDTH 362 0
DWIDTH 16 0
BBX 16 16 0 -2
BITMAP
000C
0000
0003
0E00
0C30
3FFC
3E0C
3FFC
2008
3FF8
2180
3FFE
20C0
2161
3E1F
300F
ENDCHAR
STARTCHAR 2977
ENCODING 10615
SWIDTH 362 0
DWIDTH 16 0
BBX 16 16 0 -2
BITMAP
3000
3FFE
2000
7FFC
4000
FFF8
8018
0C18
0CD8
0098
20C8
3188
118C
1B05
0A27
7FE3
ENDCHAR
STARTCHAR 2978
ENCODING 10616
SWIDTH 362 0
DWIDTH 16 0
BBX 16 16 0 -2
BITMAP
1886
1983
1982
19FE
1FB2
FFB0
7DB4
7DFE
7DB4
7DB4
5FB4
5BB4
D9A4
9B65
7A47
3087
ENDCHAR
STARTCHAR 2979
ENCODING 10617
SWIDTH 362 0
DWIDTH 16 0
BBX 16 16 0 -2
BITMAP
2070
3060
1060
03FF
887B
48DA
7898
1018
3018
3038
63BC
E02C
6064
6046
60C3
2181
ENDCHAR
STARTCHAR 297a
ENCODING 10618
SWIDTH 362 0
DWIDTH 16 0
BBX 16 16 0 -2
BITMAP
2030
3030
13FF
0078
88F6
49B3
7B31
1020
3030
3030
6033
E030
6030
6030
6030
2030
ENDCHAR
STARTCHAR 297b
ENCODING 10619
SWIDTH 362 0
DWIDTH 16 0
BBX 16 16 0 -2
BITMAP
2018
301B
101B
03FF
8A18
4A18
7A1B
139B
32DA
325E
621C
E20C
621C
6637
6663
2CC1
ENDCHAR
STARTCHAR 297c
ENCODING 10620
SWIDTH 362 0
DWIDTH 16 0
BBX 16 16 0 -2
BITMAP
2030
3030
1222
03FF
8A22
4A22
7BFE
1222
3332
3332
6070
E078
60C8
608E
6107
2602
ENDCHAR
STARTCHAR 297d
ENCODING 10621
SWIDTH 362 0
DWIDTH 16 0
BBX 16 16 0 -2
BITMAP
2202
33FF
121A
02FA
8A1A
4A32
7A22
13FE
3222
3222
6222
E222
62E2
6222
63FE
2202
ENDCHAR
STARTCHAR 297e
ENCODING 10622
SWIDTH 362 0
DWIDTH 16 0
BBX 16 16 0 -2
BITMAP
200E
307E
1382
0066
8936
499C
7888
11FC
308C
308C
6058
E070
6070
60D8
618F
2706
ENDCHAR
STARTCHAR 2a21
ENCODING 10785
SWIDTH 362 0
DWIDTH 16 0
BBX 16 16 0 -2
BITMAP
2180
3180
1186
0130
8B20
4E20
7820
17FF
3020
3020
6327
E326
6326
6326
6336
2306
ENDCHAR
STARTCHAR 2a22
ENCODING 10786
SWIDTH 362 0
DWIDTH 16 0
BBX 16 16 0 -2
BITMAP
2070
3060
1040
03FF
8A03
4A0F
7A8B
125B
3233
3233
627B
E24F
638F
6303
63FF
2202
ENDCHAR
STARTCHAR 2a23
ENCODING 10787
SWIDTH 362 0
DWIDTH 16 0
BBX 16 16 0 -2
BITMAP
2112
31B2
1324
0324
8932
4912
78C0
10C0
30FE
3186
63CE
E66C
6038
6030
60E0
2380
ENDCHAR
STARTCHAR 2a24
ENCODING 10788
SWIDTH 362 0
DWIDTH 16 0
BBX 16 16 0 -2
BITMAP
2044
3066
118C
00C8
8870
4830
785C
11A7
3232
3020
61FE
E020
6020
6020
6033
2000
ENDCHAR
STARTCHAR 2a25
ENCODING 10789
SWIDTH 362 0
DWIDTH 16 0
BBX 16 16 0 -2
BITMAP
3060
3023
33FF
3202
BC00
F803
73FF
3030
3030
3030
3030
7830
6C30
4C30
C1F0
8060
ENDCHAR
STARTCHAR 2a26
ENCODING 10790
SWIDTH 362 0
DWIDTH 16 0
BBX 16 16 0 -2
BITMAP
3102
31FF
3183
3183
BD83
F982
7180
3180
3182
31FE
3100
7900
6F00
4E00
C6FF
8400
ENDCHAR
STARTCHAR 2a27
ENCODING 10791
SWIDTH 362 0
DWIDTH 16 0
BBX 16 16 0 -2
BITMAP
300C
300C
3184
30C4
3084
3F84
3084
3FFC
3180
218C
3998
1BD0
0660
0C38
180F
E003
ENDCHAR
STARTCHAR 2a28
ENCODING 10792
SWIDTH 362 0
DWIDTH 16 0
BBX 16 16 0 -2
BITMAP
0038
07E0
3988
3198
0990
05A2
7FFE
0180
0180
0180
0780
0300
4846
4463
C623
8221
ENDCHAR
STARTCHAR 2a29
ENCODING 10793
SWIDTH 362 0
DWIDTH 16 0
BBX 16 16 0 -2
BITMAP
0E80
7EC0
5EBF
5FFB
5EAB
5FAE
5FA6
5E66
5E7E
5E9B
5B11
5A20
5900
D980
907F
803E
ENDCHAR
STARTCHAR 2a2a
ENCODING 10794
SWIDTH 362 0
DWIDTH 16 0
BBX 16 16 0 -2
BITMAP
00F8
3F88
010C
1998
0830
0030
1FF0
1004
180C
1FFC
1FF8
0C38
0660
03C0
0E7F
F00E
ENDCHAR
STARTCHAR 2a2b
ENCODING 10795
SWIDTH 362 0
DWIDTH 16 0
BBX 16 16 0 -2
BITMAP
00F8
3F80
010C
1988
0890
7FFF
C013
801E
0036
0C30
0430
0360
01C0
03E0
0E1F
F00E
ENDCHAR
STARTCHAR 2a2c
ENCODING 10796
SWIDTH 362 0
DWIDTH 16 0
BBX 16 16 0 -2
BITMAP
0C20
8933
79FF
3B02
6C00
C403
09FF
0C10
0810
D810
7810
3010
3810
6C10
44F0
8020
ENDCHAR
STARTCHAR 2a2d
ENCODING 10797
SWIDTH 362 0
DWIDTH 16 0
BBX 16 16 0 -2
BITMAP
4C02
4DFF
4C10
4D13
4C93
4CD6
4054
4010
7DFF
4C10
4C10
4C10
CC10
CC10
8C10
8C10
ENDCHAR
STARTCHAR 2a2e
ENCODING 10798
SWIDTH 362 0
DWIDTH 16 0
BBX 16 16 0 -2
BITMAP
4C18
4C10
4810
49FF
4993
4992
4190
49FE
7DC6
4DE4
49AC
4938
CB38
CB2E
8EC7
8983
ENDCHAR
STARTCHAR 2a2f
ENCODING 10799
SWIDTH 362 0
DWIDTH 16 0
BBX 16 16 0 -2
BITMAP
1820
7030
51FF
5303
FA04
D0DC
90D8
10D8
3CD8
F0D8
D0D8
1098
1198
1119
131F
160F
ENDCHAR
STARTCHAR 2a30
ENCODING 10800
SWIDTH 362 0
DWIDTH 16 0
BBX 16 16 0 -2
BITMAP
1802
7BFF
7810
7C30
7E30
D870
98F4
98F2
1DB3
FB33
DA31
1830
1830
1830
1803
1000
ENDCHAR
STARTCHAR 2a31
ENCODING 10801
SWIDTH 362 0
DWIDTH 16 0
BBX 16 16 0 -2
BITMAP
1802
79FF
7810
7D13
7E93
D8D6
9854
9810
1DFF
F810
D810
1810
1810
1810
1810
1010
ENDCHAR
STARTCHAR 2a32
ENCODING 10802
SWIDTH 362 0
DWIDTH 16 0
BBX 16 16 0 -2
BITMAP
1830
7133
5132
5132
FFFE
D030
91FE
1086
3C86
F0CC
D068
1038
1038
107C
10CF
1706
ENDCHAR
STARTCHAR 2a33
ENCODING 10803
SWIDTH 362 0
DWIDTH 16 0
BBX 16 16 0 -2
BITMAP
18C0
78C0
78C3
7D83
7F03
DA93
98FB
989B
1C9B
F8FB
D893
1803
1803
1806
183E
100C
ENDCHAR
STARTCHAR 2a34
ENCODING 10804
SWIDTH 362 0
DWIDTH 16 0
BBX 16 16 0 -2
BITMAP
0180
018C
3FFC
0182
7FFE
0610
3C1C
3F8E
11C0
118C
3FFC
2180
FFFF
0180
0180
0180
ENDCHAR
STARTCHAR 2a35
ENCODING 10805
SWIDTH 362 0
DWIDTH 16 0
BBX 16 16 0 -2
BITMAP
1830
1834
FE36
D830
D833
D830
DA30
FF30
3A30
3A78
7A68
5E4C
DECC
9886
1903
1201
ENDCHAR
STARTCHAR 2a36
ENCODING 10806
SWIDTH 362 0
DWIDTH 16 0
BBX 16 16 0 -2
BITMAP
2830
2834
2E36
2E30
2E33
2E30
FC30
A830
A830
FE78
2A68
2A4C
2ACC
4E86
4903
8A01
ENDCHAR
STARTCHAR 2a37
ENCODING 10807
SWIDTH 362 0
DWIDTH 16 0
BBX 16 16 0 -2
BITMAP
1004
DFFE
70C6
62D6
F2D6
12D6
1BF6
38C6
3BD6
5AD6
9BF6
1AF6
18C7
1983
F103
2601
ENDCHAR
STARTCHAR 2a38
ENCODING 10808
SWIDTH 362 0
DWIDTH 16 0
BBX 16 16 0 -2
BITMAP
0802
5BFF
3060
3040
50C4
9986
1BFF
19B1
3830
6830
C836
0830
0830
1830
7830
33FF
ENDCHAR
STARTCHAR 2a39
ENCODING 10809
SWIDTH 362 0
DWIDTH 16 0
BBX 16 16 0 -2
BITMAP
0A02
5BFF
3333
3333
5333
9BFF
1B33
1B33
3B3B
6B6B
CB6F
0B47
0B87
1B03
7BFF
3302
ENDCHAR
STARTCHAR 2a3a
ENCODING 10810
SWIDTH 362 0
DWIDTH 16 0
BBX 16 16 0 -2
BITMAP
1060
D866
70FE
6186
F66C
1038
1860
39F0
3A33
5863
98C3
1B36
1C1C
1830
F0E0
2380
ENDCHAR
STARTCHAR 2a3b
ENCODING 10811
SWIDTH 362 0
DWIDTH 16 0
BBX 16 16 0 -2
BITMAP
0830
59B0
31B0
31FE
5130
9B30
1A32
1BFF
3830
6878
C8FC
08B6
0937
1A33
7C30
3030
ENDCHAR
STARTCHAR 2a3c
ENCODING 10812
SWIDTH 362 0
DWIDTH 16 0
BBX 16 16 0 -2
BITMAP
08C0
58C4
30FE
31CC
5138
9A38
18EF
19B3
3E34
69FE
C9B0
09B2
09FF
1830
7830
3030
ENDCHAR
STARTCHAR 2a3d
ENCODING 10813
SWIDTH 362 0
DWIDTH 16 0
BBX 16 16 0 -2
BITMAP
1180
D9FF
7113
6312
F312
177F
1F12
3B12
3B12
5B7E
9B12
1B30
1B30
1B20
F340
2380
ENDCHAR
STARTCHAR 2a3e
ENCODING 10814
SWIDTH 362 0
DWIDTH 16 0
BBX 16 16 0 -2
BITMAP
1198
F19C
611A
631A
B318
33FF
3718
3F18
7B18
DB38
9B34
1B24
1B26
3343
F3C3
6381
ENDCHAR
STARTCHAR 2a3f
ENCODING 10815
SWIDTH 362 0
DWIDTH 16 0
BBX 16 16 0 -2
BITMAP
119C
F1F8
6378
637A
B27E
3658
36D8
3A98
7A1B
DA18
9A18
1A18
1A18
3218
F218
6218
ENDCHAR
STARTCHAR 2a40
ENCODING 10816
SWIDTH 362 0
DWIDTH 16 0
BBX 16 16 0 -2
BITMAP
09B3
59B6
3364
3364
51B6
99B2
1890
1830
3830
69B3
C932
0932
0932
1932
7B32
3102
ENDCHAR
STARTCHAR 2a41
ENCODING 10817
SWIDTH 362 0
DWIDTH 16 0
BBX 16 16 0 -2
BITMAP
0300
618C
7FFE
61C4
637C
663C
7814
603C
600C
0006
7FFE
0180
3FFC
0198
0188
FFFF
ENDCHAR
STARTCHAR 2a42
ENCODING 10818
SWIDTH 362 0
DWIDTH 16 0
BBX 16 16 0 -2
BITMAP
0012
081F
FC7B
219B
219B
219B
219B
799B
219B
219B
21FB
271F
3A1E
F018
C018
0010
ENDCHAR
STARTCHAR 2a43
ENCODING 10819
SWIDTH 362 0
DWIDTH 16 0
BBX 16 16 0 -2
BITMAP
0000
107C
F9E4
6364
6364
6364
6364
7364
6364
6364
6FE4
6464
7864
E045
C0C7
0080
ENDCHAR
STARTCHAR 2a44
ENCODING 10820
SWIDTH 362 0
DWIDTH 16 0
BBX 16 16 0 -2
BITMAP
0030
0C60
FE42
33FF
3303
33FF
3B4F
334B
337B
3333
333B
3F6F
F3C7
C303
030F
0306
ENDCHAR
STARTCHAR 2a45
ENCODING 10821
SWIDTH 362 0
DWIDTH 16 0
BBX 16 16 0 -2
BITMAP
000E
0DF8
FD80
3180
3183
3198
3998
3198
319E
311B
311B
3F18
F318
C218
0618
0C18
ENDCHAR
STARTCHAR 2a46
ENCODING 10822
SWIDTH 362 0
DWIDTH 16 0
BBX 16 16 0 -2
BITMAP
0E18
7E18
5EFF
5E18
5E1E
5E18
5E18
5EFF
5A18
5B18
5B18
5190
74C0
E660
FF3F
E31E
ENDCHAR
STARTCHAR 2a47
ENCODING 10823
SWIDTH 362 0
DWIDTH 16 0
BBX 16 16 0 -2
BITMAP
080E
6CFC
66B4
62B4
63B4
45B4
FEB4
B6B4
36B4
36B4
36A6
26B6
67AE
7DFA
DB6B
8201
ENDCHAR
STARTCHAR 2a48
ENCODING 10824
SWIDTH 362 0
DWIDTH 16 0
BBX 16 16 0 -2
BITMAP
0802
18FF
1860
9960
DB6E
7A66
7C66
1876
1876
187C
1C44
1244
3344
215D
40E7
80C7
ENDCHAR
STARTCHAR 2a49
ENCODING 10825
SWIDTH 362 0
DWIDTH 16 0
BBX 16 16 0 -2
BITMAP
0002
FFFF
0860
1860
186E
1866
3C66
3A76
7B76
597C
9844
1844
1844
185D
18E7
10C7
ENDCHAR
STARTCHAR 2a4a
ENCODING 10826
SWIDTH 362 0
DWIDTH 16 0
BBX 16 16 0 -2
BITMAP
0002
7FFF
0180
07B8
1D8E
7182
0100
0180
3180
3184
7FFE
4188
9FFC
0180
0182
FFFF
ENDCHAR
STARTCHAR 2a4b
ENCODING 10827
SWIDTH 362 0
DWIDTH 16 0
BBX 16 16 0 -2
BITMAP
0030
0030
FC20
D5FE
D426
D426
D426
FC26
D5FF
D460
D468
D444
FCC6
8083
0103
0601
ENDCHAR
STARTCHAR 2a4c
ENCODING 10828
SWIDTH 362 0
DWIDTH 16 0
BBX 16 16 0 -2
BITMAP
0030
0030
FC30
D4B0
D4F6
D5B3
D5B1
FD30
D736
D436
D43C
D408
FC10
8060
00C0
0700
ENDCHAR
STARTCHAR 2a4d
ENCODING 10829
SWIDTH 362 0
DWIDTH 16 0
BBX 16 16 0 -2
BITMAP
0010
08C8
FCCC
AC84
A986
A903
AB03
FE66
A866
A866
A846
A8C6
F886
818C
037C
0618
ENDCHAR
STARTCHAR 2a4e
ENCODING 10830
SWIDTH 362 0
DWIDTH 16 0
BBX 16 16 0 -2
BITMAP
0008
3FFC
0100
0300
FFFF
0660
0438
080F
3007
DFFC
1988
1988
1FF8
1988
1988
1808
ENDCHAR
STARTCHAR 2a4f
ENCODING 10831
SWIDTH 362 0
DWIDTH 16 0
BBX 16 16 0 -2
BITMAP
0086
FEFE
D686
D686
F6C6
F6C6
D686
D686
FFFF
1086
1086
1086
1086
1086
109E
108C
ENDCHAR
STARTCHAR 2a50
ENCODING 10832
SWIDTH 362 0
DWIDTH 16 0
BBX 16 16 0 -2
BITMAP
0180
03C0
0660
0C38
198F
618F
BFFC
018C
FFFF
3FFC
0180
118C
31FC
3980
6FFF
C3FE
ENDCHAR
STARTCHAR 2a51
ENCODING 10833
SWIDTH 362 0
DWIDTH 16 0
BBX 16 16 0 -2
BITMAP
0080
20C3
3FFF
A000
E060
E030
21B0
2100
6100
E504
6D02
6D03
6909
5998
C0F8
8000
ENDCHAR
STARTCHAR 2a52
ENCODING 10834
SWIDTH 362 0
DWIDTH 16 0
BBX 16 16 0 -2
BITMAP
0080
20C3
3FFF
A000
E068
E04C
2044
2FFF
6040
E0E0
60B0
6190
6118
420E
C407
9802
ENDCHAR
STARTCHAR 2a53
ENCODING 10835
SWIDTH 362 0
DWIDTH 16 0
BBX 16 16 0 -2
BITMAP
0080
20C3
3FFF
A000
E7FC
E604
2604
27FC
6604
E607
6FFF
6604
6604
4604
C63C
8608
ENDCHAR
STARTCHAR 2a54
ENCODING 10836
SWIDTH 362 0
DWIDTH 16 0
BBX 16 16 0 -2
BITMAP
0080
20C3
3FFF
A000
E070
E060
2060
2660
6666
E660
6660
6660
6660
4660
C663
8000
ENDCHAR
STARTCHAR 2a55
ENCODING 10837
SWIDTH 362 0
DWIDTH 16 0
BBX 16 16 0 -2
BITMAP
0080
20C3
3FFF
A060
E760
E660
27FC
2460
6C60
E062
6FFF
6060
6060
4060
C060
8040
ENDCHAR
STARTCHAR 2a56
ENCODING 10838
SWIDTH 362 0
DWIDTH 16 0
BBX 16 16 0 -2
BITMAP
0080
20C3
3FFF
A300
E200
E7FC
26CC
24C8
78C0
F0C0
60A0
61B0
6318
420C
C407
9803
ENDCHAR
STARTCHAR 2a57
ENCODING 10839
SWIDTH 362 0
DWIDTH 16 0
BBX 16 16 0 -2
BITMAP
0030
3030
2033
7830
D830
D9FF
D933
D932
F932
D932
D932
D932
F93E
C936
0030
0030
ENDCHAR
STARTCHAR 2a58
ENCODING 10840
SWIDTH 362 0
DWIDTH 16 0
BBX 16 16 0 -2
BITMAP
0118
3198
6198
FD98
CD98
C998
C9FF
C998
F998
C998
C998
C998
F999
C9F9
01DF
018F
ENDCHAR
STARTCHAR 2a59
ENCODING 10841
SWIDTH 362 0
DWIDTH 16 0
BBX 16 16 0 -2
BITMAP
0010
3068
60CC
FCC4
CC86
C983
C903
CA66
F866
C866
C866
C846
F8C6
C88C
017C
0618
ENDCHAR
STARTCHAR 2a5a
ENCODING 10842
SWIDTH 362 0
DWIDTH 16 0
BBX 16 16 0 -2
BITMAP
0300
1FFC
180C
1FF8
1808
1FF8
1188
7FFF
0300
0620
0C60
30CC
C318
0030
01C0
0600
ENDCHAR
STARTCHAR 2a5b
ENCODING 10843
SWIDTH 362 0
DWIDTH 16 0
BBX 16 16 0 -2
BITMAP
2018
1018
9418
FEFF
D69B
D69A
FE98
FEFE
EEA6
EEA6
EEAC
C698
C798
C736
DF63
CDC1
ENDCHAR
STARTCHAR 2a5c
ENCODING 10844
SWIDTH 362 0
DWIDTH 16 0
BBX 16 16 0 -2
BITMAP
0030
0630
0220
1020
0820
0422
7FFF
0020
0020
0020
2008
3FFC
3648
3648
3648
FFFF
ENDCHAR
STARTCHAR 2a5d
ENCODING 10845
SWIDTH 362 0
DWIDTH 16 0
BBX 16 16 0 -2
BITMAP
0180
0186
7FFE
0198
1FF8
0430
03E0
03C0
0E7F
380E
4008
3FFC
3648
3648
3648
FFFF
ENDCHAR
STARTCHAR 2a5e
ENCODING 10846
SWIDTH 362 0
DWIDTH 16 0
BBX 16 16 0 -2
BITMAP
0000
3FFC
3060
3062
3FFE
01E0
0360
0660
3860
E3C0
20C8
3FFC
3648
3648
3648
FFFF
ENDCHAR
STARTCHAR 2a5f
ENCODING 10847
SWIDTH 362 0
DWIDTH 16 0
BBX 16 16 0 -2
BITMAP
0004
FDFE
CC0C
C8D8
C870
F823
CFFF
C822
C820
C820
C820
C820
C820
C820
01E0
0060
ENDCHAR
STARTCHAR 2a60
ENCODING 10848
SWIDTH 362 0
DWIDTH 16 0
BBX 16 16 0 -2
BITMAP
0030
F830
D820
DBFE
D820
F820
D820
DBFF
D870
D870
D850
D8C8
D88C
D986
0303
0C01
ENDCHAR
STARTCHAR 2a61
ENCODING 10849
SWIDTH 362 0
DWIDTH 16 0
BBX 16 16 0 -2
BITMAP
0030
F830
D833
D830
D830
F9FF
D933
D932
D932
D932
D932
D932
D93E
D936
0030
0030
ENDCHAR
STARTCHAR 2a62
ENCODING 10850
SWIDTH 362 0
DWIDTH 16 0
BBX 16 16 0 -2
BITMAP
0002
F9FF
D830
D830
D830
F832
D9B3
D932
D932
D932
D932
D932
D932
D932
03FE
0000
ENDCHAR
STARTCHAR 2a63
ENCODING 10851
SWIDTH 362 0
DWIDTH 16 0
BBX 16 16 0 -2
BITMAP
0006
FDFE
CC06
C8A6
C8B6
F894
C8CC
C84C
CA48
CB38
C9B0
C830
C858
C88E
0107
0602
ENDCHAR
STARTCHAR 2a64
ENCODING 10852
SWIDTH 362 0
DWIDTH 16 0
BBX 16 16 0 -2
BITMAP
0202
FBFF
DB03
DB0B
DBFF
FB4F
DB4B
DB7B
DB33
DB33
DB6F
DBC7
DB03
DB03
030F
0306
ENDCHAR
STARTCHAR 2a65
ENCODING 10853
SWIDTH 362 0
DWIDTH 16 0
BBX 16 16 0 -2
BITMAP
0040
F820
DA22
DBFF
DB33
FB33
DB3B
DB6B
DB4F
DBCF
DB87
DB03
DB03
DB03
031F
0306
ENDCHAR
STARTCHAR 2a66
ENCODING 10854
SWIDTH 362 0
DWIDTH 16 0
BBX 16 16 0 -2
BITMAP
0040
F860
D8C0
D884
D906
FBF6
DB22
D830
D820
D823
DBFF
D820
D820
D820
0020
0020
ENDCHAR
STARTCHAR 2a67
ENCODING 10855
SWIDTH 362 0
DWIDTH 16 0
BBX 16 16 0 -2
BITMAP
00F0
F8B0
D9B0
D9B0
D9B0
FBB3
DBBF
DFB0
DDB0
D9B0
D9B0
D9B0
D9B1
D9B1
01BF
011F
ENDCHAR
STARTCHAR 2a68
ENCODING 10856
SWIDTH 362 0
DWIDTH 16 0
BBX 16 16 0 -2
BITMAP
0030
F8D0
D898
D988
D90C
FB37
DE33
D820
D822
DBFF
D820
D820
D820
D820
0020
0020
ENDCHAR
STARTCHAR 2a69
ENCODING 10857
SWIDTH 362 0
DWIDTH 16 0
BBX 16 16 0 -2
BITMAP
0030
F870
D870
D8C8
D8CC
F987
DB8B
DCCC
D888
D888
D888
D988
D988
D908
0208
0408
ENDCHAR
STARTCHAR 2a6a
ENCODING 10858
SWIDTH 362 0
DWIDTH 16 0
BBX 16 16 0 -2
BITMAP
0460
0463
FC7F
0460
0008
3FFC
3008
3008
3FF8
3008
3008
3FF8
3008
3008
3008
3008
ENDCHAR
STARTCHAR 2a6b
ENCODING 10859
SWIDTH 362 0
DWIDTH 16 0
BBX 16 16 0 -2
BITMAP
0002
7FFF
01C0
03A0
0798
1D8C
7186
0180
1198
1018
1018
1018
1018
1018
1018
1018
ENDCHAR
STARTCHAR 2a6c
ENCODING 10860
SWIDTH 362 0
DWIDTH 16 0
BBX 16 16 0 -2
BITMAP
0460
0C10
1A0C
3237
67FA
0C10
0030
00E0
1078
1818
1818
1818
1818
1818
1818
1810
ENDCHAR
STARTCHAR 2a6d
ENCODING 10861
SWIDTH 362 0
DWIDTH 16 0
BBX 16 16 0 -2
BITMAP
1018
100C
1FF8
1008
1FF8
1FF8
1008
07C6
78FE
60C6
60C6
60C6
6EC6
70DE
60C4
00C0
ENDCHAR
STARTCHAR 2a6e
ENCODING 10862
SWIDTH 362 0
DWIDTH 16 0
BBX 16 16 0 -2
BITMAP
6118
6198
6118
7D18
F118
B118
31FF
FF18
3118
3118
3918
2D18
6D19
4579
C19F
810F
ENDCHAR
STARTCHAR 2a6f
ENCODING 10863
SWIDTH 362 0
DWIDTH 16 0
BBX 16 16 0 -2
BITMAP
0030
FC30
2033
2030
6030
61FE
7C00
ECFC
EC0C
EC18
6C60
6CC0
7D81
6983
41FF
0000
ENDCHAR
STARTCHAR 2a70
ENCODING 10864
SWIDTH 362 0
DWIDTH 16 0
BBX 16 16 0 -2
BITMAP
00C0
FCC0
21FF
2100
6306
6200
7C04
EDFE
EC1C
EC30
6C60
6CC0
7D01
6B01
43FF
01FF
ENDCHAR
STARTCHAR 2a71
ENCODING 10865
SWIDTH 362 0
DWIDTH 16 0
BBX 16 16 0 -2
BITMAP
00C0
FCC0
21FF
2100
6360
6240
7C48
EDFC
EC4C
EC4C
6CCC
6CCC
7C8C
698D
430F
0607
ENDCHAR
STARTCHAR 2a72
ENCODING 10866
SWIDTH 362 0
DWIDTH 16 0
BBX 16 16 0 -2
BITMAP
1C04
79FE
1066
1066
7C66
3066
3866
3DFF
7444
7044
D044
9044
1044
1044
10CF
1000
ENDCHAR
STARTCHAR 2a73
ENCODING 10867
SWIDTH 362 0
DWIDTH 16 0
BBX 16 16 0 -2
BITMAP
1C00
7BFF
1030
1030
7C60
30C6
3986
3CCC
7438
7030
D060
90C0
1186
131F
13F3
1101
ENDCHAR
STARTCHAR 2a74
ENCODING 10868
SWIDTH 362 0
DWIDTH 16 0
BBX 16 16 0 -2
BITMAP
1C04
7BFE
1084
108C
7C8C
308E
38FF
3CA2
74A6
71B6
D19C
911C
131C
1336
1663
1D81
ENDCHAR
STARTCHAR 2a75
ENCODING 10869
SWIDTH 362 0
DWIDTH 16 0
BBX 16 16 0 -2
BITMAP
1C30
7830
1070
1048
7CC8
30CC
3987
3D63
7630
7018
D008
9080
1060
1030
1018
100C
ENDCHAR
STARTCHAR 2a76
ENCODING 10870
SWIDTH 362 0
DWIDTH 16 0
BBX 16 16 0 -2
BITMAP
1DC7
7986
1186
1186
7D86
3186
3980
3D82
75FF
7183
D182
9182
1102
1302
1202
1602
ENDCHAR
STARTCHAR 2a77
ENCODING 10871
SWIDTH 362 0
DWIDTH 16 0
BBX 16 16 0 -2
BITMAP
0180
4083
7FFF
CC62
9874
303E
4008
1FF8
0000
0002
7FFE
0660
0C60
0861
307F
603E
ENDCHAR
STARTCHAR 2a78
ENCODING 10872
SWIDTH 362 0
DWIDTH 16 0
BBX 16 16 0 -2
BITMAP
0100
7FFF
C663
8C7E
183E
6000
70C0
60C0
60C2
7EFE
60C0
60C0
60C1
6EC1
78FF
207F
ENDCHAR
STARTCHAR 2a79
ENCODING 10873
SWIDTH 362 0
DWIDTH 16 0
BBX 16 16 0 -2
BITMAP
0180
4083
7FFF
CC62
9874
303E
4000
01F8
1F80
0184
7FFE
0182
7FFE
0180
0780
0300
ENDCHAR
STARTCHAR 2a7a
ENCODING 10874
SWIDTH 362 0
DWIDTH 16 0
BBX 16 16 0 -2
BITMAP
0100
7FFF
C663
8C7E
3A3E
6600
3FF8
0411
0C13
191F
618E
0182
7FFE
0180
0180
0100
ENDCHAR
STARTCHAR 2a7b
ENCODING 10875
SWIDTH 362 0
DWIDTH 16 0
BBX 16 16 0 -2
BITMAP
3060
3FFF
6CC8
C58C
8000
7FFC
000C
0008
0008
7FF8
6008
6000
6002
6002
7FFE
3FFE
ENDCHAR
STARTCHAR 2a7c
ENCODING 10876
SWIDTH 362 0
DWIDTH 16 0
BBX 16 16 0 -2
BITMAP
3060
3FFF
6CC8
C58C
8200
0330
0210
0202
7FFF
0200
0300
0100
0080
0061
003B
000F
ENDCHAR
STARTCHAR 2a7d
ENCODING 10877
SWIDTH 362 0
DWIDTH 16 0
BBX 16 16 0 -2
BITMAP
3060
3FFF
6CC8
C58C
8008
3FFC
0038
00C0
0182
FFFF
0180
0180
0180
0180
0780
0300
ENDCHAR
STARTCHAR 2a7e
ENCODING 10878
SWIDTH 362 0
DWIDTH 16 0
BBX 16 16 0 -2
BITMAP
3060
3FFF
6CC8
C58C
8000
3FFC
080C
0918
04B0
0660
03C0
01C0
03E0
0E38
380F
E002
ENDCHAR
STARTCHAR 2b21
ENCODING 11041
SWIDTH 362 0
DWIDTH 16 0
BBX 16 16 0 -2
BITMAP
3060
3FFF
6CC8
C58C
8800
1800
1806
3186
2186
4106
0306
0206
0406
0806
107C
6018
ENDCHAR
STARTCHAR 2b22
ENCODING 11042
SWIDTH 362 0
DWIDTH 16 0
BBX 16 16 0 -2
BITMAP
0C22
0D3F
4B26
6A24
282C
7F28
0824
6A22
6B23
6923
4923
883F
0826
0820
0820
0820
ENDCHAR
STARTCHAR 2b23
ENCODING 11043
SWIDTH 362 0
DWIDTH 16 0
BBX 16 16 0 -2
BITMAP
1802
17FF
5440
7C40
3040
FE7E
1046
7846
74C6
76C6
D6C6
9086
1186
1306
127C
1418
ENDCHAR
STARTCHAR 2b24
ENCODING 11044
SWIDTH 362 0
DWIDTH 16 0
BBX 16 16 0 -2
BITMAP
100E
1806
3006
2006
4C86
D984
7180
3102
67FF
FE03
E002
0406
9606
9004
903C
0018
ENDCHAR
STARTCHAR 2b25
ENCODING 11045
SWIDTH 362 0
DWIDTH 16 0
BBX 16 16 0 -2
BITMAP
1060
186C
3066
2062
4C60
DBFF
7060
3060
6460
FE20
E030
0430
9619
900D
9007
0003
ENDCHAR
STARTCHAR 2b26
ENCODING 11046
SWIDTH 362 0
DWIDTH 16 0
BBX 16 16 0 -2
BITMAP
1002
19FF
3006
200C
4C18
D810
7013
303E
65F0
FF90
E010
0410
9610
9010
90F0
0020
ENDCHAR
STARTCHAR 2b27
ENCODING 11047
SWIDTH 362 0
DWIDTH 16 0
BBX 16 16 0 -2
BITMAP
1030
1870
3070
20C8
4C8C
D9B7
7333
3220
6420
FE20
E020
0420
9620
9020
9020
0020
ENDCHAR
STARTCHAR 2b28
ENCODING 11048
SWIDTH 362 0
DWIDTH 16 0
BBX 16 16 0 -2
BITMAP
6002
60FE
6600
5800
9800
1800
1FFF
1810
1810
5E10
5E10
5E10
5E10
5E10
FEF0
0020
ENDCHAR
STARTCHAR 2b29
ENCODING 11049
SWIDTH 362 0
DWIDTH 16 0
BBX 16 16 0 -2
BITMAP
4004
7FFE
6666
6666
7FFC
0000
1FF8
1818
1B98
18D8
1818
17D8
1618
3018
2078
4030
ENDCHAR
STARTCHAR 2b2a
ENCODING 11050
SWIDTH 362 0
DWIDTH 16 0
BBX 16 16 0 -2
BITMAP
300C
300C
37EC
366C
31CC
33EC
362C
3FFC
3100
0180
FFFF
0980
1998
3186
C182
0100
ENDCHAR
STARTCHAR 2b2b
ENCODING 11051
SWIDTH 362 0
DWIDTH 16 0
BBX 16 16 0 -2
BITMAP
0300
0302
7FFE
0C30
181C
300F
E30E
030C
33E4
1B64
030C
1F7C
73C4
2384
0F3C
0608
ENDCHAR
STARTCHAR 2b2c
ENCODING 11052
SWIDTH 362 0
DWIDTH 16 0
BBX 16 16 0 -2
BITMAP
0180
0104
036C
0338
0130
FFFF
0180
03C0
0786
19FE
6180
DFFC
180C
1808
1808
1808
ENDCHAR
STARTCHAR 2b2d
ENCODING 11053
SWIDTH 362 0
DWIDTH 16 0
BBX 16 16 0 -2
BITMAP
0200
FE00
6DFF
6C30
6C30
6C30
6C30
6C30
7C30
6C30
6C30
6C30
FC30
CC30
0FFF
0C00
ENDCHAR
STARTCHAR 2b2e
ENCODING 11054
SWIDTH 362 0
DWIDTH 16 0
BBX 16 16 0 -2
BITMAP
0200
FFFF
6C03
6CB2
6C96
6C56
6C46
6C44
7C6C
6C38
6C38
6C38
FC6C
CCC6
0D83
0F01
ENDCHAR
STARTCHAR 2b2f
ENCODING 11055
SWIDTH 362 0
DWIDTH 16 0
BBX 16 16 0 -2
BITMAP
0200
FE30
6C20
6C60
6CCC
6C8C
6D08
6D98
7C70
6C30
6C60
6CC4
FD86
CFFF
0FC3
0C00
ENDCHAR
STARTCHAR 2b30
ENCODING 11056
SWIDTH 362 0
DWIDTH 16 0
BBX 16 16 0 -2
BITMAP
0180
018C
3FFC
018C
FFFF
018C
3FFC
0180
FFFF
1F80
6D80
DB80
6780
1D80
6180
0100
ENDCHAR
STARTCHAR 2b31
ENCODING 11057
SWIDTH 362 0
DWIDTH 16 0
BBX 16 16 0 -2
BITMAP
0860
7C20
4BFF
4E03
6E34
5810
48D0
48D8
58D8
7888
488C
498C
C906
CB07
BA03
9C01
ENDCHAR
STARTCHAR 2b32
ENCODING 11058
SWIDTH 362 0
DWIDTH 16 0
BBX 16 16 0 -2
BITMAP
0802
7FFF
4830
4830
6822
5B26
4926
49AC
5830
7870
4878
48C8
C8CC
C986
BB07
9C02
ENDCHAR
STARTCHAR 2b33
ENCODING 11059
SWIDTH 362 0
DWIDTH 16 0
BBX 16 16 0 -2
BITMAP
0830
7C30
4832
49FE
6830
5830
4832
4BFF
5830
7878
48FC
48B4
C937
CE33
BC30
9830
ENDCHAR
STARTCHAR 2b34
ENCODING 11060
SWIDTH 362 0
DWIDTH 16 0
BBX 16 16 0 -2
BITMAP
0802
7FFF
4832
4834
69B0
59B0
49B0
49BF
59B0
79B0
4930
4BB0
CBB0
CA70
BE3F
9C0E
ENDCHAR
STARTCHAR 2b35
ENCODING 11061
SWIDTH 362 0
DWIDTH 16 0
BBX 16 16 0 -2
BITMAP
0902
7DFF
4902
4902
6902
5902
49FE
4978
5878
7858
48D8
48D8
C998
C919
BB1F
9E0F
ENDCHAR
STARTCHAR 2b36
ENCODING 11062
SWIDTH 362 0
DWIDTH 16 0
BBX 16 16 0 -2
BITMAP
0902
7DFF
4932
4932
6932
59FE
4932
4932
5932
79FE
4932
4932
CB32
CB32
BA3E
9C26
ENDCHAR
STARTCHAR 2b37
ENCODING 11063
SWIDTH 362 0
DWIDTH 16 0
BBX 16 16 0 -2
BITMAP
1800
1806
7F7E
1166
3366
377E
6766
D018
1FF8
1B98
18D8
1878
17D8
3618
2078
4030
ENDCHAR
STARTCHAR 2b38
ENCODING 11064
SWIDTH 362 0
DWIDTH 16 0
BBX 16 16 0 -2
BITMAP
1CF0
1898
37FE
70C0
D060
1033
101F
100E
1FF8
1B98
18D8
1878
17D8
3618
2078
4030
ENDCHAR
STARTCHAR 2b39
ENCODING 11065
SWIDTH 362 0
DWIDTH 16 0
BBX 16 16 0 -2
BITMAP
0830
7C30
49B6
49B6
69B6
59B6
49FE
49B6
59B6
79B6
4FFF
4986
C986
C986
B99E
9904
ENDCHAR
STARTCHAR 2b3a
ENCODING 11066
SWIDTH 362 0
DWIDTH 16 0
BBX 16 16 0 -2
BITMAP
0300
1FFC
100C
1FF8
1008
1FF8
1008
1FF8
1008
7FFF
0660
0460
0C60
0861
307F
603F
ENDCHAR
STARTCHAR 2b3b
ENCODING 11067
SWIDTH 362 0
DWIDTH 16 0
BBX 16 16 0 -2
BITMAP
1C18
1A13
FE7F
1810
0006
0C00
0C00
0FF0
0830
0B30
09B0
18B0
1821
1BA3
7C3F
601E
ENDCHAR
STARTCHAR 2b3c
ENCODING 11068
SWIDTH 362 0
DWIDTH 16 0
BBX 16 16 0 -2
BITMAP
1C18
1A13
FE7F
1810
1830
1830
1B24
3CFE
1426
3466
3466
34DD
248D
6403
47FF
8000
ENDCHAR
STARTCHAR 2b3d
ENCODING 11069
SWIDTH 362 0
DWIDTH 16 0
BBX 16 16 0 -2
BITMAP
1C18
1A13
FE7F
0810
7FFE
6006
6FF6
6436
6266
63C6
61C6
63E6
663E
7C16
6006
6006
ENDCHAR
STARTCHAR 2b3e
ENCODING 11070
SWIDTH 362 0
DWIDTH 16 0
BBX 16 16 0 -2
BITMAP
1C18
1A13
FE7F
1810
7FFE
4606
4606
5FE6
4666
4666
4466
4C6E
587E
703E
4006
4006
ENDCHAR
STARTCHAR 2b3f
ENCODING 11071
SWIDTH 362 0
DWIDTH 16 0
BBX 16 16 0 -2
BITMAP
1C18
1A13
FE7F
1810
1800
11FE
1686
FE8C
36C8
3658
2C70
7C70
1E58
368C
6107
8603
ENDCHAR
STARTCHAR 2b40
ENCODING 11072
SWIDTH 362 0
DWIDTH 16 0
BBX 16 16 0 -2
BITMAP
3002
33FF
3048
3448
FE48
B448
B448
B448
FC48
FCC8
30C8
3888
3D88
FD09
C70F
0607
ENDCHAR
STARTCHAR 2b41
ENCODING 11073
SWIDTH 362 0
DWIDTH 16 0
BBX 16 16 0 -2
BITMAP
3102
318F
6180
45E0
DDE3
B5E6
25E6
65E6
E5E6
E5E6
65E6
65E6
6DE6
6466
601E
600C
ENDCHAR
STARTCHAR 2b42
ENCODING 11074
SWIDTH 362 0
DWIDTH 16 0
BBX 16 16 0 -2
BITMAP
2002
31FE
0800
7C00
0803
18C0
34C0
3C80
79FE
FC06
B406
3006
3006
3004
307C
3018
ENDCHAR
STARTCHAR 2b43
ENCODING 11075
SWIDTH 362 0
DWIDTH 16 0
BBX 16 16 0 -2
BITMAP
2000
3000
09FF
7C30
0830
1830
3430
3C30
7830
FC30
B430
3030
3030
3030
33FF
3000
ENDCHAR
STARTCHAR 2b44
ENCODING 11076
SWIDTH 362 0
DWIDTH 16 0
BBX 16 16 0 -2
BITMAP
201C
3018
0818
7C18
081A
1818
3418
3C98
78D8
FC50
B470
3030
3078
30DC
318F
3702
ENDCHAR
STARTCHAR 2b45
ENCODING 11077
SWIDTH 362 0
DWIDTH 16 0
BBX 16 16 0 -2
BITMAP
21C0
3180
0982
7DFF
0902
1B02
3E02
38C2
7862
FC22
B402
3002
3006
3006
307C
3008
ENDCHAR
STARTCHAR 2b46
ENCODING 11078
SWIDTH 362 0
DWIDTH 16 0
BBX 16 16 0 -2
BITMAP
200E
3078
0990
7C10
0810
1810
35FF
3C10
7810
FC10
B410
3010
3010
3010
3010
3010
ENDCHAR
STARTCHAR 2b47
ENCODING 11079
SWIDTH 362 0
DWIDTH 16 0
BBX 16 16 0 -2
BITMAP
0002
7FFF
0660
7FFC
6664
6664
6664
7FFC
0180
0182
7FFE
0340
0630
0C1C
300F
6002
ENDCHAR
STARTCHAR 2b48
ENCODING 11080
SWIDTH 362 0
DWIDTH 16 0
BBX 16 16 0 -2
BITMAP
3002
2DFF
7C60
C840
FEC0
56C2
56FF
5603
5602
7E02
4602
4606
4606
C60C
9EFC
8C38
ENDCHAR
STARTCHAR 2b49
ENCODING 11081
SWIDTH 362 0
DWIDTH 16 0
BBX 16 16 0 -2
BITMAP
3006
1006
0666
0066
0066
7C66
0066
7C66
0066
0466
7E66
6646
6606
6606
7E1E
400C
ENDCHAR
STARTCHAR 2b4a
ENCODING 11082
SWIDTH 362 0
DWIDTH 16 0
BBX 16 16 0 -2
BITMAP
0002
FFFF
3010
3010
6010
D610
3C10
3810
D810
1C10
3E10
7A10
9810
1810
F0F0
2020
ENDCHAR
STARTCHAR 2b4b
ENCODING 11083
SWIDTH 362 0
DWIDTH 16 0
BBX 16 16 0 -2
BITMAP
1830
3030
6420
DC20
79FF
3023
7823
D823
3C63
6C63
9C63
3CC3
ECC3
0D83
7B3E
1E0C
ENDCHAR
STARTCHAR 2b4c
ENCODING 11084
SWIDTH 362 0
DWIDTH 16 0
BBX 16 16 0 -2
BITMAP
4630
7E30
6620
6620
7E20
6638
662C
7E26
6623
6623
6620
0620
3420
6220
4220
C020
ENDCHAR
STARTCHAR 2b4d
ENCODING 11085
SWIDTH 362 0
DWIDTH 16 0
BBX 16 16 0 -2
BITMAP
0007
7EC6
46C6
46C6
46C6
7EC6
1CC6
18C6
58C6
5EC6
58FE
5806
5806
FC06
E006
0006
ENDCHAR
STARTCHAR 2b4e
ENCODING 11086
SWIDTH 362 0
DWIDTH 16 0
BBX 16 16 0 -2
BITMAP
1800
11FF
FE10
1010
FE10
D610
F610
F610
D610
FC10
1210
FE10
1010
1010
10F0
1020
ENDCHAR
STARTCHAR 2b4f
ENCODING 11087
SWIDTH 362 0
DWIDTH 16 0
BBX 16 16 0 -2
BITMAP
0030
6036
3126
11AC
00A8
F1FE
3020
2020
7832
5830
1820
3020
3020
7820
CFFF
01FC
ENDCHAR
STARTCHAR 2b50
ENCODING 11088
SWIDTH 362 0
DWIDTH 16 0
BBX 16 16 0 -2
BITMAP
0030
6030
3032
1030
00B4
F0F6
3084
23FF
7884
5884
1984
3104
3304
7A04
CFFF
01FC
ENDCHAR
STARTCHAR 2b51
ENCODING 11089
SWIDTH 362 0
DWIDTH 16 0
BBX 16 16 0 -2
BITMAP
0000
61FF
3133
1132
01FE
F132
3132
21FE
7932
5830
1830
3030
3030
7820
CFFF
01FC
ENDCHAR
STARTCHAR 2b52
ENCODING 11090
SWIDTH 362 0
DWIDTH 16 0
BBX 16 16 0 -2
BITMAP
0000
61FE
3186
1186
0186
F186
31FE
2104
78C8
58CC
1886
3183
3303
7A00
CFFF
01FC
ENDCHAR
STARTCHAR 2b53
ENCODING 11091
SWIDTH 362 0
DWIDTH 16 0
BBX 16 16 0 -2
BITMAP
0202
63FF
3322
1332
0322
F372
3372
234A
7BCE
5B8E
1B02
3302
33FE
7A00
CFFF
01FC
ENDCHAR
STARTCHAR 2b54
ENCODING 11092
SWIDTH 362 0
DWIDTH 16 0
BBX 16 16 0 -2
BITMAP
00C0
60C0
3186
1300
0206
F1FE
300C
2018
7833
5830
1810
3010
30F0
7820
CFFF
01FC
ENDCHAR
STARTCHAR 2b55
ENCODING 11093
SWIDTH 362 0
DWIDTH 16 0
BBX 16 16 0 -2
BITMAP
0030
6034
317E
1130
0130
F132
33FF
2073
7872
58F2
19BE
3334
3630
7830
CFFF
01FC
ENDCHAR
STARTCHAR 2b56
ENCODING 11094
SWIDTH 362 0
DWIDTH 16 0
BBX 16 16 0 -2
BITMAP
0020
6010
3190
1188
018C
F30C
3206
27FF
7D8C
5988
1988
3188
31F8
7900
CFFF
01FC
ENDCHAR
STARTCHAR 2b57
ENCODING 11095
SWIDTH 362 0
DWIDTH 16 0
BBX 16 16 0 -2
BITMAP
0030
6030
3060
10CC
018C
F0F8
3036
2066
78FC
5B38
182E
3026
3020
7820
CFFF
01FC
ENDCHAR
STARTCHAR 2b58
ENCODING 11096
SWIDTH 362 0
DWIDTH 16 0
BBX 16 16 0 -2
BITMAP
01A2
7FBF
0332
0636
04F4
7DFC
1F36
3632
3533
25B1
64F1
4CFF
9C37
0830
FFF0
C030
ENDCHAR
STARTCHAR 2b59
ENCODING 11097
SWIDTH 362 0
DWIDTH 16 0
BBX 16 16 0 -2
BITMAP
4122
7FBF
61B2
61B6
7FB4
61BC
61B6
7FB2
4933
0831
FFF1
083F
0837
0830
0830
0830
ENDCHAR
STARTCHAR 2b5a
ENCODING 11098
SWIDTH 362 0
DWIDTH 16 0
BBX 16 16 0 -2
BITMAP
01A2
FFBF
C1B2
C3B6
FFB4
C1BC
DFB6
D7B2
D7B3
D7B1
DFB1
D5BF
C1B7
C1B0
C7B0
C330
ENDCHAR
STARTCHAR 2b5b
ENCODING 11099
SWIDTH 362 0
DWIDTH 16 0
BBX 16 16 0 -2
BITMAP
3022
203F
7FF2
6636
C634
A63C
3FB6
2632
2633
26B1
FFB1
063F
0637
0630
0630
0430
ENDCHAR
STARTCHAR 2b5c
ENCODING 11100
SWIDTH 362 0
DWIDTH 16 0
BBX 16 16 0 -2
BITMAP
3022
363F
3E32
6436
CFB4
4DBC
49B6
49B2
4DB3
4131
4031
403F
40B7
41B0
7FB0
0030
ENDCHAR
STARTCHAR 2b5d
ENCODING 11101
SWIDTH 362 0
DWIDTH 16 0
BBX 16 16 0 -2
BITMAP
1992
F11F
611A
611E
B37C
331C
311E
391A
7B9B
DB99
9B99
1A9F
1ADB
3658
F478
6830
ENDCHAR
STARTCHAR 2b5e
ENCODING 11102
SWIDTH 362 0
DWIDTH 16 0
BBX 16 16 0 -2
BITMAP
0422
0C3F
1B32
31B6
60F4
FFBC
8436
0432
0433
7FB1
0431
043F
0437
07B0
FE30
4030
ENDCHAR
STARTCHAR 2b5f
ENCODING 11103
SWIDTH 362 0
DWIDTH 16 0
BBX 16 16 0 -2
BITMAP
2012
601F
63DA
6BDE
FF5C
EB5C
6B5E
6B5A
4B5B
DB59
FB59
335F
3BDB
6F58
C018
0010
ENDCHAR
STARTCHAR 2b60
ENCODING 11104
SWIDTH 362 0
DWIDTH 16 0
BBX 16 16 0 -2
BITMAP
0000
7EFC
60CC
64CC
7CCC
60CC
7CCC
60CC
66CC
70CC
60CC
4C8C
CC8C
FF8D
E30F
0607
ENDCHAR
STARTCHAR 2b61
ENCODING 11105
SWIDTH 362 0
DWIDTH 16 0
BBX 16 16 0 -2
BITMAP
4642
7E7F
4662
7E7E
4662
7E7E
4042
4382
4E82
40C2
4062
4032
401A
4012
401E
4006
ENDCHAR
STARTCHAR 2b62
ENCODING 11106
SWIDTH 362 0
DWIDTH 16 0
BBX 16 16 0 -2
BITMAP
4830
7C30
4830
5936
51FE
51B6
59B6
49B6
4DB6
4DFE
4D30
7C30
5836
403F
43F1
4101
ENDCHAR
STARTCHAR 2b63
ENCODING 11107
SWIDTH 362 0
DWIDTH 16 0
BBX 16 16 0 -2
BITMAP
9830
F830
DB36
D333
F27A
E24A
D2FE
DAB2
CB32
CA72
CA6A
FACE
D386
C302
C20E
C206
ENDCHAR
STARTCHAR 2b64
ENCODING 11108
SWIDTH 362 0
DWIDTH 16 0
BBX 16 16 0 -2
BITMAP
98C0
F8C0
D8FC
D18C
F1C8
E258
D030
D830
C84C
C887
C9FF
FF84
D184
C184
C1FC
C184
ENDCHAR
STARTCHAR 2b65
ENCODING 11109
SWIDTH 362 0
DWIDTH 16 0
BBX 16 16 0 -2
BITMAP
4830
7C20
4DFE
4986
5986
5186
4986
4D86
4D82
45FF
4D82
7D82
4982
4182
41FE
4182
ENDCHAR
STARTCHAR 2b66
ENCODING 11110
SWIDTH 362 0
DWIDTH 16 0
BBX 16 16 0 -2
BITMAP
9818
F81B
D81B
D3FF
F218
E218
D3FB
DB7B
CA7A
CA7E
CA7C
FA6C
D3DD
C635
C667
CCC3
ENDCHAR
STARTCHAR 2b67
ENCODING 11111
SWIDTH 362 0
DWIDTH 16 0
BBX 16 16 0 -2
BITMAP
001C
0FFC
7980
1998
1998
199C
35B6
67A2
11C8
1998
1998
3D94
67A2
41C2
0180
0100
ENDCHAR
STARTCHAR 2b68
ENCODING 11112
SWIDTH 362 0
DWIDTH 16 0
BBX 16 16 0 -2
BITMAP
1420
3210
301B
2000
6907
6D06
E546
E346
6264
6264
662C
6C2C
6428
6608
66FF
6600
ENDCHAR
STARTCHAR 2b69
ENCODING 11113
SWIDTH 362 0
DWIDTH 16 0
BBX 16 16 0 -2
BITMAP
1C72
1966
19E4
33FF
3060
7043
77FF
B1E6
3363
37FF
3066
3046
30C6
3184
337C
3618
ENDCHAR
STARTCHAR 2b6a
ENCODING 11114
SWIDTH 362 0
DWIDTH 16 0
BBX 16 16 0 -2
BITMAP
1C60
1A23
1FFF
36DA
319C
730F
72C0
B0CC
37FF
318C
3188
3398
3078
306E
30C3
3701
ENDCHAR
STARTCHAR 2b6b
ENCODING 11115
SWIDTH 362 0
DWIDTH 16 0
BBX 16 16 0 -2
BITMAP
1040
3FE2
36DF
26D2
66D2
66D2
E6D6
E6DE
67DE
66CC
66CC
66CC
6FCE
6CD3
60F3
60E1
ENDCHAR
STARTCHAR 2b6c
ENCODING 11116
SWIDTH 362 0
DWIDTH 16 0
BBX 16 16 0 -2
BITMAP
131C
3318
3318
2FBF
6318
6318
E79C
E7BC
673E
6F7A
6B5B
63DB
6318
6318
6318
6318
ENDCHAR
STARTCHAR 2b6d
ENCODING 11117
SWIDTH 362 0
DWIDTH 16 0
BBX 16 16 0 -2
BITMAP
1C0E
18C6
18C6
33FF
3086
7086
70C7
B000
300E
30C6
30C6
33FF
3086
3086
30C7
3000
ENDCHAR
STARTCHAR 2b6e
ENCODING 11118
SWIDTH 362 0
DWIDTH 16 0
BBX 16 16 0 -2
BITMAP
1C02
1BFF
1A22
3222
33FE
7222
7332
B38E
318C
318F
37FF
318C
318C
310C
330C
360C
ENDCHAR
STARTCHAR 2b6f
ENCODING 11119
SWIDTH 362 0
DWIDTH 16 0
BBX 16 16 0 -2
BITMAP
1842
1BFF
1A5A
33DE
3212
77FF
7600
B600
3600
3600
3600
3600
3400
3C00
3800
3800
ENDCHAR
STARTCHAR 2b70
ENCODING 11120
SWIDTH 362 0
DWIDTH 16 0
BBX 16 16 0 -2
BITMAP
1C30
18B2
1FF6
30F8
31BC
7137
7333
B6F0
3066
33FE
3206
3206
33FE
3206
3306
3306
ENDCHAR
STARTCHAR 2b71
ENCODING 11121
SWIDTH 362 0
DWIDTH 16 0
BBX 16 16 0 -2
BITMAP
130C
330C
330C
230C
6FFF
679E
E71C
E71C
6FBC
6BEE
6B2E
7B6F
734D
638C
6F3C
6618
ENDCHAR
STARTCHAR 2b72
ENCODING 11122
SWIDTH 362 0
DWIDTH 16 0
BBX 16 16 0 -2
BITMAP
1806
303F
3368
2308
6208
6668
E76E
E768
6168
6968
6F68
676B
63FF
6780
6CFF
687E
ENDCHAR
STARTCHAR 2b73
ENCODING 11123
SWIDTH 362 0
DWIDTH 16 0
BBX 16 16 0 -2
BITMAP
1DB3
1B32
1A64
3264
3332
71B3
7011
B3FF
3010
3110
3192
319E
3190
3190
31B3
3000
ENDCHAR
STARTCHAR 2b74
ENCODING 11124
SWIDTH 362 0
DWIDTH 16 0
BBX 16 16 0 -2
BITMAP
1C30
1832
1BFE
3022
33FE
7023
77FF
B1FE
3126
3126
37FF
3326
3366
33E6
30DC
3308
ENDCHAR
STARTCHAR 2b75
ENCODING 11125
SWIDTH 362 0
DWIDTH 16 0
BBX 16 16 0 -2
BITMAP
0C18
1813
181F
11FF
3133
317E
7130
D13E
911F
1100
1118
1310
1330
122C
16C7
1583
ENDCHAR
STARTCHAR 2b76
ENCODING 11126
SWIDTH 362 0
DWIDTH 16 0
BBX 16 16 0 -2
BITMAP
1800
18FF
FF20
1A22
FF3F
C323
C222
C262
FE62
2C42
2CC6
2D9C
6C01
6C01
CFFF
87FF
ENDCHAR
STARTCHAR 2b77
ENCODING 11127
SWIDTH 362 0
DWIDTH 16 0
BBX 16 16 0 -2
BITMAP
1818
1818
5E18
5E1B
5E1F
5E18
7E18
5E18
5EDE
5EC3
FEC2
46C2
46C2
46C2
4EFE
44C2
ENDCHAR
STARTCHAR 2b78
ENCODING 11128
SWIDTH 362 0
DWIDTH 16 0
BBX 16 16 0 -2
BITMAP
0008
3FFC
202C
200C
2FFC
2048
006C
7FFF
6060
6266
7F6C
6238
6238
5E3D
C4CF
8303
ENDCHAR
STARTCHAR 2b79
ENCODING 11129
SWIDTH 362 0
DWIDTH 16 0
BBX 16 16 0 -2
BITMAP
0060
C023
67FF
2184
0984
09CE
125B
1410
3030
2023
E7FF
C020
6020
6020
6020
0020
ENDCHAR
STARTCHAR 2b7a
ENCODING 11130
SWIDTH 362 0
DWIDTH 16 0
BBX 16 16 0 -2
BITMAP
00D0
C0D0
62F6
26F6
0ED6
0ED6
16F6
16F6
36D6
26D6
E6F7
C300
6304
6202
6403
0801
ENDCHAR
STARTCHAR 2b7b
ENCODING 11131
SWIDTH 362 0
DWIDTH 16 0
BBX 16 16 0 -2
BITMAP
001E
C3F0
6043
2232
0934
0908
101E
13F0
3020
2020
E036
C030
6020
6020
6033
0000
ENDCHAR
STARTCHAR 2b7c
ENCODING 11132
SWIDTH 362 0
DWIDTH 16 0
BBX 16 16 0 -2
BITMAP
0D03
4D83
6B1A
7F92
1812
1892
FF92
2192
60D2
D9D2
1992
1192
3182
2102
5F1E
8606
ENDCHAR
STARTCHAR 2b7d
ENCODING 11133
SWIDTH 362 0
DWIDTH 16 0
BBX 16 16 0 -2
BITMAP
0303
FF03
13DB
125B
165B
14DB
58DB
50DB
50DB
51DB
51DB
577B
FB63
C623
0C33
1832
ENDCHAR
STARTCHAR 2b7e
ENCODING 11134
SWIDTH 362 0
DWIDTH 16 0
BBX 16 16 0 -2
BITMAP
0C03
0D03
7F32
0832
FFB2
1032
2132
7FB2
70B2
4132
7FB2
41B2
4182
4182
7F9E
4106
ENDCHAR
STARTCHAR 2c21
ENCODING 11297
SWIDTH 362 0
DWIDTH 16 0
BBX 16 16 0 -2
BITMAP
3703
3603
36B2
3632
3632
3632
FFB2
0C32
08B2
FFB2
4832
6932
4982
C882
889E
0806
ENDCHAR
STARTCHAR 2c22
ENCODING 11298
SWIDTH 362 0
DWIDTH 16 0
BBX 16 16 0 -2
BITMAP
4103
7F83
41B2
7FB2
41B2
7FB2
41B2
7F32
0C32
08B2
FFB2
1A32
3302
2182
419E
8086
ENDCHAR
STARTCHAR 2c23
ENCODING 11299
SWIDTH 362 0
DWIDTH 16 0
BBX 16 16 0 -2
BITMAP
8183
FF83
C9B2
C9B2
FFB2
C9B2
CDB2
CDB2
08B2
FFB2
1C32
3F32
2982
4882
881E
0806
ENDCHAR
STARTCHAR 2c24
ENCODING 11300
SWIDTH 362 0
DWIDTH 16 0
BBX 16 16 0 -2
BITMAP
07C3
7083
C8DA
6D92
0312
6012
6012
7FD2
5ED2
96D2
36D2
34D2
2CC2
48C2
979E
2106
ENDCHAR
STARTCHAR 2c25
ENCODING 11301
SWIDTH 362 0
DWIDTH 16 0
BBX 16 16 0 -2
BITMAP
1843
7BE3
5A5B
5A5B
5A5B
7BDB
5A5B
5A5B
5BDB
5BDB
5A5B
5A5B
DA43
DE43
FDCF
9C86
ENDCHAR
STARTCHAR 2c26
ENCODING 11302
SWIDTH 362 0
DWIDTH 16 0
BBX 16 16 0 -2
BITMAP
3003
3003
3F1A
2112
6312
C212
9412
F7D2
C0D2
C092
D092
C092
C082
C082
FF9E
C086
ENDCHAR
STARTCHAR 2c27
ENCODING 11303
SWIDTH 362 0
DWIDTH 16 0
BBX 16 16 0 -2
BITMAP
3007
3106
3FB6
7336
CE36
0E36
33B6
60F6
81B6
6DB6
6DB6
7FB6
6D86
6D86
7F9E
408C
ENDCHAR
STARTCHAR 2c28
ENCODING 11304
SWIDTH 362 0
DWIDTH 16 0
BBX 16 16 0 -2
BITMAP
6043
7BE3
7A4F
DA4B
FA6B
347B
3C0B
6FFB
C3EB
7FCB
604B
604B
6043
6043
7FCF
6046
ENDCHAR
STARTCHAR 2c29
ENCODING 11305
SWIDTH 362 0
DWIDTH 16 0
BBX 16 16 0 -2
BITMAP
1C18
1910
FF10
1B10
7F7F
5B13
7F13
1913
7F93
1933
FFB3
1923
7F63
1843
18DE
198C
ENDCHAR
STARTCHAR 2c2a
ENCODING 11306
SWIDTH 362 0
DWIDTH 16 0
BBX 16 16 0 -2
BITMAP
0118
FF98
9F18
9E18
DEFF
FF9B
BF1B
9E1B
9E1B
BF13
FEB3
DE33
9623
97E3
B35E
E08C
ENDCHAR
STARTCHAR 2c2b
ENCODING 11307
SWIDTH 362 0
DWIDTH 16 0
BBX 16 16 0 -2
BITMAP
0118
7F90
4190
7F90
4D7F
4C13
7D13
6D13
6D13
7F13
4C33
7D33
ED23
AD63
BF5E
2384
ENDCHAR
STARTCHAR 2c2c
ENCODING 11308
SWIDTH 362 0
DWIDTH 16 0
BBX 16 16 0 -2
BITMAP
1C18
9990
D910
7A10
187F
FF13
C113
C113
FF13
C133
C133
FF23
0063
0F43
F8DE
418C
ENDCHAR
STARTCHAR 2c2d
ENCODING 11309
SWIDTH 362 0
DWIDTH 16 0
BBX 16 16 0 -2
BITMAP
109C
7FD8
5E98
5E98
5EFF
7F9B
5E9B
5E9B
5E9B
5E9B
5E9B
5E93
5E93
DCB3
FFAE
B9C4
ENDCHAR
STARTCHAR 2c2e
ENCODING 11310
SWIDTH 362 0
DWIDTH 16 0
BBX 16 16 0 -2
BITMAP
7000
6002
7FFF
4322
DFF2
8262
03DA
0382
0732
1C32
3C32
4C32
0C32
0FF6
003E
000C
ENDCHAR
STARTCHAR 2c2f
ENCODING 11311
SWIDTH 362 0
DWIDTH 16 0
BBX 16 16 0 -2
BITMAP
0660
FE60
2642
26FF
2683
6783
5E7B
8C5B
065B
7E5B
467B
4603
4603
4606
7E3E
420C
ENDCHAR
STARTCHAR 2c30
ENCODING 11312
SWIDTH 362 0
DWIDTH 16 0
BBX 16 16 0 -2
BITMAP
4002
7FFF
4100
4FFC
488C
4FF8
4988
4FF8
4B48
4260
5FFE
4040
4040
4040
C003
4000
ENDCHAR
STARTCHAR 2c31
ENCODING 11313
SWIDTH 362 0
DWIDTH 16 0
BBX 16 16 0 -2
BITMAP
4002
7FFF
4C30
4830
5FFE
6736
4D34
49FE
594C
696C
4B38
4B3C
4EC7
4982
C003
4000
ENDCHAR
STARTCHAR 2c32
ENCODING 11314
SWIDTH 362 0
DWIDTH 16 0
BBX 16 16 0 -2
BITMAP
0180
01FC
0180
3FFC
318C
318C
336C
363C
3C3C
3388
0302
FFFF
0630
0C1C
3806
E003
ENDCHAR
STARTCHAR 2c33
ENCODING 11315
SWIDTH 362 0
DWIDTH 16 0
BBX 16 16 0 -2
BITMAP
4646
4363
7E62
4262
7E62
447E
4E66
7B60
4440
0C20
1FF0
30E0
61C0
0770
1C1F
F007
ENDCHAR
STARTCHAR 2c34
ENCODING 11316
SWIDTH 362 0
DWIDTH 16 0
BBX 16 16 0 -2
BITMAP
4002
7FFF
6203
6303
7FFF
621B
7FDB
7A5B
7A5B
7BDB
72DB
479B
4EC3
DA63
A20F
8206
ENDCHAR
STARTCHAR 2c35
ENCODING 11317
SWIDTH 362 0
DWIDTH 16 0
BBX 16 16 0 -2
BITMAP
4002
7FFF
6100
630C
6FFE
6C44
6FFC
6CC4
6CCC
6DCC
6360
5FFF
4060
C060
8060
8040
ENDCHAR
STARTCHAR 2c36
ENCODING 11318
SWIDTH 362 0
DWIDTH 16 0
BBX 16 16 0 -2
BITMAP
1082
FFDF
5E93
7393
3393
7B93
4ED3
8493
FFD3
9CD2
5690
7390
3310
7B91
4CDF
985F
ENDCHAR
STARTCHAR 2c37
ENCODING 11319
SWIDTH 362 0
DWIDTH 16 0
BBX 16 16 0 -2
BITMAP
0002
CFFF
C803
C803
CFFF
C800
FBFF
0B00
FB06
CBC6
CB44
CB2C
DA38
DA38
94CF
AB83
ENDCHAR
STARTCHAR 2c38
ENCODING 11320
SWIDTH 362 0
DWIDTH 16 0
BBX 16 16 0 -2
BITMAP
0006
00FE
D8C6
DBC6
DAFE
DA00
DB30
DA30
D830
DFFF
D820
F860
C044
0082
0103
0601
ENDCHAR
STARTCHAR 2c39
ENCODING 11321
SWIDTH 362 0
DWIDTH 16 0
BBX 16 16 0 -2
BITMAP
0020
0233
DBFF
DA18
DA18
DBFF
DA38
DA38
DA3C
DA7C
DA5E
FEDB
C69B
0519
0C18
0810
ENDCHAR
STARTCHAR 2c3a
ENCODING 11322
SWIDTH 362 0
DWIDTH 16 0
BBX 16 16 0 -2
BITMAP
0020
0033
DBFF
D88C
D858
D830
D87C
D8CF
DB03
DBFE
D906
F906
C106
0106
01FE
0102
ENDCHAR
STARTCHAR 2c3b
ENCODING 11323
SWIDTH 362 0
DWIDTH 16 0
BBX 16 16 0 -2
BITMAP
0020
0033
DBFF
D88C
D878
D830
D87E
D987
DEC0
D8FE
D986
FBEC
C638
0030
00C0
0700
ENDCHAR
STARTCHAR 2c3c
ENCODING 11324
SWIDTH 362 0
DWIDTH 16 0
BBX 16 16 0 -2
BITMAP
0086
00C6
D84C
D908
DBFF
DB03
DA03
DDF3
D993
D993
D9B3
F9B3
C103
0003
001E
000C
ENDCHAR
STARTCHAR 2c3d
ENCODING 11325
SWIDTH 362 0
DWIDTH 16 0
BBX 16 16 0 -2
BITMAP
002C
036C
FA68
DA68
DBE8
DA68
DA68
DA68
DBE8
DA68
DA68
FAE8
D768
0669
006F
0047
ENDCHAR
STARTCHAR 2c3e
ENCODING 11326
SWIDTH 362 0
DWIDTH 16 0
BBX 16 16 0 -2
BITMAP
0030
0030
DBFF
D830
D836
D800
D906
D933
D932
D932
D9FE
FB00
C300
0200
0400
1800
ENDCHAR
STARTCHAR 2c3f
ENCODING 11327
SWIDTH 362 0
DWIDTH 16 0
BBX 16 16 0 -2
BITMAP
031C
0318
B318
F7D8
B33F
B31B
B31B
BFDB
B21B
B61B
B69B
F493
8DF3
0FF3
0C7E
00C4
ENDCHAR
STARTCHAR 2c40
ENCODING 11328
SWIDTH 362 0
DWIDTH 16 0
BBX 16 16 0 -2
BITMAP
0004
7FFE
1998
1998
39B8
25A4
41C0
FFFF
0000
200C
3FFC
200C
200C
200C
3FFC
2008
ENDCHAR
STARTCHAR 2c41
ENCODING 11329
SWIDTH 362 0
DWIDTH 16 0
BBX 16 16 0 -2
BITMAP
0304
033E
B336
F336
97B6
9327
9340
93FE
9726
9F36
9714
F31C
831C
033E
0763
03C1
ENDCHAR
STARTCHAR 2c42
ENCODING 11330
SWIDTH 362 0
DWIDTH 16 0
BBX 16 16 0 -2
BITMAP
0602
FE7F
C642
C642
FE7E
3030
FF7F
6030
6622
7E7F
0602
0602
0602
0606
7C3C
1808
ENDCHAR
STARTCHAR 2c43
ENCODING 11331
SWIDTH 362 0
DWIDTH 16 0
BBX 16 16 0 -2
BITMAP
0202
03FF
DB00
DB02
DBFE
DB00
DB03
DBD0
DB53
DB5F
DB4C
FA48
C24C
0656
0467
0843
ENDCHAR
STARTCHAR 2c44
ENCODING 11332
SWIDTH 362 0
DWIDTH 16 0
BBX 16 16 0 -2
BITMAP
0002
07FF
D840
DA82
DBFF
DA5A
DA5A
DA5A
DA5A
DA5A
DA5A
FA5A
C216
0000
0003
0000
ENDCHAR
STARTCHAR 2c45
ENCODING 11333
SWIDTH 362 0
DWIDTH 16 0
BBX 16 16 0 -2
BITMAP
0018
0190
D99E
D990
D990
DBFF
D8C0
D8C6
DBFE
D984
DBCC
FE78
C030
007C
018F
0703
ENDCHAR
STARTCHAR 2c46
ENCODING 11334
SWIDTH 362 0
DWIDTH 16 0
BBX 16 16 0 -2
BITMAP
0002
01FF
D932
CD32
C9FE
C932
C932
C962
C870
CBFF
C863
F843
C8C3
0183
033E
060C
ENDCHAR
STARTCHAR 2c47
ENCODING 11335
SWIDTH 362 0
DWIDTH 16 0
BBX 16 16 0 -2
BITMAP
0180
3FF8
3198
3198
3FF8
0183
FFFF
1FF8
1018
1018
1FF8
1008
1FFC
1008
1008
1008
ENDCHAR
STARTCHAR 2c48
ENCODING 11336
SWIDTH 362 0
DWIDTH 16 0
BBX 16 16 0 -2
BITMAP
0030
0030
D83F
D830
DA33
DB03
DA0F
DACF
DA6B
DA3B
DA3B
FA2F
C24F
0283
03FF
0202
ENDCHAR
STARTCHAR 2c49
ENCODING 11337
SWIDTH 362 0
DWIDTH 16 0
BBX 16 16 0 -2
BITMAP
0030
0333
DB33
DBFF
D804
DBFE
D984
D98C
D9FE
D9A2
D9A6
F93C
C318
023C
0467
0183
ENDCHAR
STARTCHAR 2c4a
ENCODING 11338
SWIDTH 362 0
DWIDTH 16 0
BBX 16 16 0 -2
BITMAP
0030
01B6
D924
DB2C
DABA
DBFF
D820
DBFF
D830
D870
D870
F8C8
C0CC
018E
0307
0C03
ENDCHAR
STARTCHAR 2c4b
ENCODING 11339
SWIDTH 362 0
DWIDTH 16 0
BBX 16 16 0 -2
BITMAP
00C0
00C2
D9FF
D90C
DB58
DA38
D808
D830
D830
DFFF
D820
F924
C322
0223
0421
0820
ENDCHAR
STARTCHAR 2c4c
ENCODING 11340
SWIDTH 362 0
DWIDTH 16 0
BBX 16 16 0 -2
BITMAP
00C0
00CC
D9FC
D918
DB36
DB33
DA22
DA22
DBFE
DA78
D878
F8D8
C0D8
0199
031F
0C0F
ENDCHAR
STARTCHAR 2c4d
ENCODING 11341
SWIDTH 362 0
DWIDTH 16 0
BBX 16 16 0 -2
BITMAP
0020
0070
D98F
CD03
C903
C903
C903
C903
C9CF
C903
C903
F903
C903
0103
01CF
0100
ENDCHAR
STARTCHAR 2c4e
ENCODING 11342
SWIDTH 362 0
DWIDTH 16 0
BBX 16 16 0 -2
BITMAP
0020
0166
D9FE
D986
D9FE
D986
D986
D986
D987
D9BF
DFEE
FB1E
C066
00C6
073E
000C
ENDCHAR
STARTCHAR 2c4f
ENCODING 11343
SWIDTH 362 0
DWIDTH 16 0
BBX 16 16 0 -2
BITMAP
0060
0062
DBFF
DB03
DB02
DBFE
DB02
DB02
DBFE
D858
D8D8
F8D8
C198
0319
061F
0C0F
ENDCHAR
STARTCHAR 2c50
ENCODING 11344
SWIDTH 362 0
DWIDTH 16 0
BBX 16 16 0 -2
BITMAP
0198
0118
F318
F31A
D2FE
D618
D618
DA1B
D3FF
D230
D220
F264
C242
02DF
03F1
0281
ENDCHAR
STARTCHAR 2c51
ENCODING 11345
SWIDTH 362 0
DWIDTH 16 0
BBX 16 16 0 -2
BITMAP
001E
03F0
DB10
DBFF
DB18
DB09
DBED
DB87
D803
D9FE
D906
F906
C106
0106
01FE
0102
ENDCHAR
STARTCHAR 2c52
ENCODING 11346
SWIDTH 362 0
DWIDTH 16 0
BBX 16 16 0 -2
BITMAP
0180
0180
D903
DB03
DA03
D9FB
D99B
D9FB
D99B
D9FB
D99B
F9FB
C113
0006
003E
000C
ENDCHAR
STARTCHAR 2c53
ENCODING 11347
SWIDTH 362 0
DWIDTH 16 0
BBX 16 16 0 -2
BITMAP
0180
0180
D9FF
DA03
D933
D9B3
D993
D9F3
D993
D9F3
D903
F806
C03C
0008
0003
0000
ENDCHAR
STARTCHAR 2c54
ENCODING 11348
SWIDTH 362 0
DWIDTH 16 0
BBX 16 16 0 -2
BITMAP
01BC
012C
F33F
F33F
D22D
D6AD
D6FF
DAAC
D3BF
D3BF
D22D
F26D
C26F
024C
02CC
038C
ENDCHAR
STARTCHAR 2c55
ENCODING 11349
SWIDTH 362 0
DWIDTH 16 0
BBX 16 16 0 -2
BITMAP
0302
0303
F3C2
F2C2
D6C2
D6C2
DEC2
DED2
D6DA
D6DE
D6FE
F6EC
C7CE
069B
0631
06C1
ENDCHAR
STARTCHAR 2c56
ENCODING 11350
SWIDTH 362 0
DWIDTH 16 0
BBX 16 16 0 -2
BITMAP
0006
03FE
D806
D806
DBFE
DB01
DB03
DBFF
D9FE
D830
D898
F8C2
C283
0685
04FD
007C
ENDCHAR
STARTCHAR 2c57
ENCODING 11351
SWIDTH 362 0
DWIDTH 16 0
BBX 16 16 0 -2
BITMAP
000E
7DF0
4D80
4DFF
4D8C
4D8C
4D0C
7F0C
060C
0008
3FFC
300C
3008
3008
3008
3008
ENDCHAR
STARTCHAR 2c58
ENCODING 11352
SWIDTH 362 0
DWIDTH 16 0
BBX 16 16 0 -2
BITMAP
0118
FF98
0218
121A
7AFE
5A18
5A18
5A1B
5BFF
7A30
5230
0224
0262
025F
1EF1
0641
ENDCHAR
STARTCHAR 2c59
ENCODING 11353
SWIDTH 362 0
DWIDTH 16 0
BBX 16 16 0 -2
BITMAP
1800
19FF
1802
1A12
7EFA
18DA
18DA
1ADA
FEDA
30FA
30D2
2402
6602
5F02
F31E
4106
ENDCHAR
STARTCHAR 2c5a
ENCODING 11354
SWIDTH 362 0
DWIDTH 16 0
BBX 16 16 0 -2
BITMAP
6030
6018
630B
C318
8318
1B18
7B18
5B18
5B7F
7B18
5B18
0318
0318
0618
3E1B
0C00
ENDCHAR
STARTCHAR 2c5b
ENCODING 11355
SWIDTH 362 0
DWIDTH 16 0
BBX 16 16 0 -2
BITMAP
0830
0C30
4466
7FFE
4186
4186
5FFE
4186
41A6
4FF6
4836
4836
4FF6
4006
7FFE
4002
ENDCHAR
STARTCHAR 2c5c
ENCODING 11356
SWIDTH 362 0
DWIDTH 16 0
BBX 16 16 0 -2
BITMAP
4006
7FFE
4606
4FF6
5816
5FF6
5836
4C36
4806
4FF6
480E
4FF6
4FF6
4006
7FFE
4002
ENDCHAR
STARTCHAR 2c5d
ENCODING 11357
SWIDTH 362 0
DWIDTH 16 0
BBX 16 16 0 -2
BITMAP
4006
7FFE
4306
5FFE
4626
4D1E
5B2E
7676
5FD6
46C6
46C6
4CCE
58FE
5006
7FFE
4002
ENDCHAR
STARTCHAR 2c5e
ENCODING 11358
SWIDTH 362 0
DWIDTH 16 0
BBX 16 16 0 -2
BITMAP
3000
3006
3FFE
6002
7FFF
0003
4992
CC96
C03E
018C
0180
3FFC
0180
0180
0183
0000
ENDCHAR
STARTCHAR 2c5f
ENCODING 11359
SWIDTH 362 0
DWIDTH 16 0
BBX 16 16 0 -2
BITMAP
1818
181A
1A19
7E18
181B
1818
1A18
1018
1818
1838
7E34
1824
1866
1842
FFC3
C183
ENDCHAR
STARTCHAR 2c60
ENCODING 11360
SWIDTH 362 0
DWIDTH 16 0
BBX 16 16 0 -2
BITMAP
2070
3070
2058
20CC
F987
2307
27FC
2020
2022
23FF
2120
3B24
7322
C623
0DE0
0060
ENDCHAR
STARTCHAR 2c61
ENCODING 11361
SWIDTH 362 0
DWIDTH 16 0
BBX 16 16 0 -2
BITMAP
01A6
6637
6624
7FA4
4E22
1E23
363F
6626
9C20
0980
0184
3FFC
0180
0180
0183
0000
ENDCHAR
STARTCHAR 2c62
ENCODING 11362
SWIDTH 362 0
DWIDTH 16 0
BBX 16 16 0 -2
BITMAP
0002
7FFF
3030
3636
6C6C
7878
1212
2727
7B7B
4140
01C0
3FFC
0180
0180
0183
0000
ENDCHAR
STARTCHAR 2c63
ENCODING 11363
SWIDTH 362 0
DWIDTH 16 0
BBX 16 16 0 -2
BITMAP
0190
1198
1934
7FFE
0202
7FFF
0C30
183C
37F7
C183
0184
7FFE
0180
0180
018C
0000
ENDCHAR
STARTCHAR 2c64
ENCODING 11364
SWIDTH 362 0
DWIDTH 16 0
BBX 16 16 0 -2
BITMAP
00C0
1FFF
00C0
00C4
0FFC
0FFC
0C0C
6C0C
6FFC
6000
7F80
0183
FFFF
060C
1806
F003
ENDCHAR
STARTCHAR 2c65
ENCODING 11365
SWIDTH 362 0
DWIDTH 16 0
BBX 16 16 0 -2
BITMAP
000C
000C
1FC4
1FC4
7FFC
67F0
6600
6000
7FFE
2C10
1FF8
1C30
33E0
63E0
0E7F
F00F
ENDCHAR
STARTCHAR 2c66
ENCODING 11366
SWIDTH 362 0
DWIDTH 16 0
BBX 16 16 0 -2
BITMAP
0420
FC33
13FF
10D8
109A
119F
1193
11BB
13BE
17D6
119C
118C
119C
1196
F1A7
21C3
ENDCHAR
STARTCHAR 2c67
ENCODING 11367
SWIDTH 362 0
DWIDTH 16 0
BBX 16 16 0 -2
BITMAP
3002
24FF
7EC2
C4C2
BCC2
38FF
30C2
78C2
BEC2
33FF
62C2
D6C2
8CC2
18C2
30C2
C0C6
ENDCHAR
STARTCHAR 2c68
ENCODING 11368
SWIDTH 362 0
DWIDTH 16 0
BBX 16 16 0 -2
BITMAP
30C0
24C0
7EC3
C4C3
BD83
3B03
307B
7803
BE03
337B
6203
D603
8C03
1806
303E
C00C
ENDCHAR
STARTCHAR 2c69
ENCODING 11369
SWIDTH 362 0
DWIDTH 16 0
BBX 16 16 0 -2
BITMAP
3060
2440
7EC3
C4C3
BC83
3923
3023
7863
BECB
33EF
6203
D603
8C03
1806
303E
C00C
ENDCHAR
STARTCHAR 2c6a
ENCODING 11370
SWIDTH 362 0
DWIDTH 16 0
BBX 16 16 0 -2
BITMAP
1830
1E32
78FF
7E22
1E62
78C6
1BBC
1208
0308
3FFC
030C
FFFF
0600
0C18
1806
6003
ENDCHAR
STARTCHAR 2c6b
ENCODING 11371
SWIDTH 362 0
DWIDTH 16 0
BBX 16 16 0 -2
BITMAP
0300
0302
7FFE
0C30
1818
300F
7FFF
C000
1FF8
1818
1818
1FF8
0818
0C30
0663
0000
ENDCHAR
STARTCHAR 2c6c
ENCODING 11372
SWIDTH 362 0
DWIDTH 16 0
BBX 16 16 0 -2
BITMAP
0300
0302
7FFE
0C30
1998
318F
7FFF
C188
1FF8
1198
1FF8
13C0
05B0
199C
318F
C102
ENDCHAR
STARTCHAR 2c6d
ENCODING 11373
SWIDTH 362 0
DWIDTH 16 0
BBX 16 16 0 -2
BITMAP
0300
0302
7FFE
0C30
181C
3007
FFFE
0660
266C
666C
6664
7E7C
0464
0C60
1860
3040
ENDCHAR
STARTCHAR 2c6e
ENCODING 11374
SWIDTH 362 0
DWIDTH 16 0
BBX 16 16 0 -2
BITMAP
2034
6032
6033
6830
FC32
E9FF
6932
6932
49FE
D932
F932
3132
3932
6D32
C136
0106
ENDCHAR
STARTCHAR 2c6f
ENCODING 11375
SWIDTH 362 0
DWIDTH 16 0
BBX 16 16 0 -2
BITMAP
2000
63FF
6078
687A
FDFF
E97B
697A
695A
49CE
D982
F902
317E
3902
6D02
C1FE
0102
ENDCHAR
STARTCHAR 2c70
ENCODING 11376
SWIDTH 362 0
DWIDTH 16 0
BBX 16 16 0 -2
BITMAP
2002
67FF
6168
6968
FD68
E968
6968
6968
49E8
D968
F968
3168
3FE8
6B69
C06F
0067
ENDCHAR
STARTCHAR 2c71
ENCODING 11377
SWIDTH 362 0
DWIDTH 16 0
BBX 16 16 0 -2
BITMAP
2000
61FF
6030
6860
FCD1
E9BB
6E7C
68C8
499C
DB3C
F86F
30CB
3B98
6C18
C0F0
0020
ENDCHAR
STARTCHAR 2c72
ENCODING 11378
SWIDTH 362 0
DWIDTH 16 0
BBX 16 16 0 -2
BITMAP
2006
61FE
6006
6806
FDFE
E901
6903
69FF
48FE
D830
F8D8
30C2
3AC3
6EC5
C6FD
007C
ENDCHAR
STARTCHAR 2c73
ENCODING 11379
SWIDTH 362 0
DWIDTH 16 0
BBX 16 16 0 -2
BITMAP
2006
61FE
6084
6868
FC30
E87C
6987
6F03
49FE
D830
F833
3030
3933
6D32
C332
0102
ENDCHAR
STARTCHAR 2c74
ENCODING 11380
SWIDTH 362 0
DWIDTH 16 0
BBX 16 16 0 -2
BITMAP
2102
61FF
6102
6902
FD02
E9FE
6800
687E
49B0
D830
F832
3030
3830
6C30
C033
0000
ENDCHAR
STARTCHAR 2c75
ENCODING 11381
SWIDTH 362 0
DWIDTH 16 0
BBX 16 16 0 -2
BITMAP
2018
61D0
6190
69FF
FD90
E910
6A10
69FF
4800
D982
F9FF
3182
3982
6D82
C1FE
0182
ENDCHAR
STARTCHAR 2c76
ENCODING 11382
SWIDTH 362 0
DWIDTH 16 0
BBX 16 16 0 -2
BITMAP
200E
61F8
6118
6918
FD18
E9FF
6918
6918
491A
D97F
F942
3342
3B42
6F42
C27E
0042
ENDCHAR
STARTCHAR 2c77
ENCODING 11383
SWIDTH 362 0
DWIDTH 16 0
BBX 16 16 0 -2
BITMAP
2030
6030
6068
68CC
FCC7
E987
6FFC
6800
4803
D830
F8B0
31B4
3932
6A33
C4F0
0060
ENDCHAR
STARTCHAR 2c78
ENCODING 11384
SWIDTH 362 0
DWIDTH 16 0
BBX 16 16 0 -2
BITMAP
2002
97FF
C820
5822
13FE
3020
6020
67FF
2400
0630
FFFF
0C20
1860
1FE0
033C
7C0E
ENDCHAR
STARTCHAR 2c79
ENCODING 11385
SWIDTH 362 0
DWIDTH 16 0
BBX 16 16 0 -2
BITMAP
0486
7E4C
0C68
19FF
1032
1132
11FE
3D30
F333
5173
1073
10F3
11B3
133E
F630
2030
ENDCHAR
STARTCHAR 2c7a
ENCODING 11386
SWIDTH 362 0
DWIDTH 16 0
BBX 16 16 0 -2
BITMAP
080E
FDFA
CC23
CDB6
EC94
FC00
DDFE
CC0E
CC18
CC10
CDFF
FC10
D810
C010
C0F0
C020
ENDCHAR
STARTCHAR 2c7b
ENCODING 11387
SWIDTH 362 0
DWIDTH 16 0
BBX 16 16 0 -2
BITMAP
0180
7FFF
6000
6FFC
6C0C
6FFC
6C0C
6FFC
6018
601C
6060
7FFF
4060
C060
83E0
80C0
ENDCHAR
STARTCHAR 2c7c
ENCODING 11388
SWIDTH 362 0
DWIDTH 16 0
BBX 16 16 0 -2
BITMAP
0100
7FFF
4003
C102
8183
0000
0018
1FF8
0000
1FF8
0000
0008
1FFC
1008
1008
1008
ENDCHAR
STARTCHAR 2c7d
ENCODING 11389
SWIDTH 362 0
DWIDTH 16 0
BBX 16 16 0 -2
BITMAP
0100
7FFF
4183
C18A
9FF8
0182
7FFF
4000
FFFF
C00A
BFFC
0C38
0360
01E0
0F7F
F80F
ENDCHAR
STARTCHAR 2c7e
ENCODING 11390
SWIDTH 362 0
DWIDTH 16 0
BBX 16 16 0 -2
BITMAP
0180
4083
7FFF
C182
9998
1998
1998
3D9C
65A6
45C2
0184
3FFC
0180
0180
0183
0000
ENDCHAR
STARTCHAR 2d21
ENCODING 11553
SWIDTH 362 0
DWIDTH 16 0
BBX 16 16 0 -2
BITMAP
0180
4083
7FFF
C182
B180
3FFC
2180
6180
C186
0000
3018
300C
3008
3008
3FF8
3008
ENDCHAR
STARTCHAR 2d22
ENCODING 11554
SWIDTH 362 0
DWIDTH 16 0
BBX 16 16 0 -2
BITMAP
3002
1AFF
FF60
8260
666E
6466
6466
6476
6476
647C
6444
6444
4544
465D
C6E7
80C7
ENDCHAR
STARTCHAR 2d23
ENCODING 11555
SWIDTH 362 0
DWIDTH 16 0
BBX 16 16 0 -2
BITMAP
3010
3018
30D6
3096
FED6
3DFF
3C10
3CFE
3C10
2C10
2C10
6DFF
6C00
4C01
CFFF
87FF
ENDCHAR
STARTCHAR 2d24
ENCODING 11556
SWIDTH 362 0
DWIDTH 16 0
BBX 16 16 0 -2
BITMAP
3030
3032
30FF
3083
FEC2
3CC2
3C82
3CFE
3C40
2CC6
2C83
6D01
6C00
4C01
CFFF
87FF
ENDCHAR
STARTCHAR 2d25
ENCODING 11557
SWIDTH 362 0
DWIDTH 16 0
BBX 16 16 0 -2
BITMAP
4006
7FFE
6006
7FFE
6000
7FFF
6890
6890
6F90
6890
4F90
4890
C890
FE91
909F
809F
ENDCHAR
STARTCHAR 2d26
ENCODING 11558
SWIDTH 362 0
DWIDTH 16 0
BBX 16 16 0 -2
BITMAP
4006
7FFE
6006
7FFE
6000
7FFF
6184
63CC
66F8
6DB0
5370
46F8
D9BE
C637
9BE0
80C0
ENDCHAR
STARTCHAR 2d27
ENCODING 11559
SWIDTH 362 0
DWIDTH 16 0
BBX 16 16 0 -2
BITMAP
4006
7FFE
6006
7FFE
6C06
6DFF
7810
7610
6433
6C38
5C38
6C38
CC6C
CCC6
8D87
8F03
ENDCHAR
STARTCHAR 2d28
ENCODING 11560
SWIDTH 362 0
DWIDTH 16 0
BBX 16 16 0 -2
BITMAP
2030
3030
203F
A036
AC2C
AFFF
AC30
AC64
ACFE
AD98
AF18
AFFF
FC18
0018
00F8
0030
ENDCHAR
STARTCHAR 2d29
ENCODING 11561
SWIDTH 362 0
DWIDTH 16 0
BBX 16 16 0 -2
BITMAP
2030
3030
21FF
A030
ADFE
ADB6
ADB6
ADFE
ADB6
ADB6
ADFE
AC30
FFFF
0030
0030
0030
ENDCHAR
STARTCHAR 2d2a
ENCODING 11562
SWIDTH 362 0
DWIDTH 16 0
BBX 16 16 0 -2
BITMAP
2042
37FF
217B
A17A
A97A
AFFC
A97A
A97B
A97B
AFF9
AB79
AB7F
FA7B
0658
07D8
0998
ENDCHAR
STARTCHAR 2d2b
ENCODING 11563
SWIDTH 362 0
DWIDTH 16 0
BBX 16 16 0 -2
BITMAP
2006
31FE
2006
A006
ADFE
AD01
AD03
ADFF
ACFE
AC30
ACD8
ACC2
FEC3
02C5
06FD
007C
ENDCHAR
STARTCHAR 2d2c
ENCODING 11564
SWIDTH 362 0
DWIDTH 16 0
BBX 16 16 0 -2
BITMAP
2102
31FF
2103
A1FF
AD02
AD1E
AD70
AD10
AD7E
AD10
AD10
AFFF
FF10
0211
061F
041F
ENDCHAR
STARTCHAR 2d2d
ENCODING 11565
SWIDTH 362 0
DWIDTH 16 0
BBX 16 16 0 -2
BITMAP
2082
31FF
2182
A182
ADFE
AC00
AD83
AD83
ADA3
AD9B
AD8F
AD9F
FDE3
0143
031F
0606
ENDCHAR
STARTCHAR 2d2e
ENCODING 11566
SWIDTH 362 0
DWIDTH 16 0
BBX 16 16 0 -2
BITMAP
2086
307C
203C
A0E7
ADE0
AC63
ADFF
ACD8
ACDB
ADDB
AD9B
AE9B
FC9B
009F
009A
0010
ENDCHAR
STARTCHAR 2d2f
ENCODING 11567
SWIDTH 362 0
DWIDTH 16 0
BBX 16 16 0 -2
BITMAP
2184
6186
618C
630C
0180
7FFE
1800
1800
1800
1FFC
0100
0CC0
48C6
C80B
CFF9
07F8
ENDCHAR
STARTCHAR 2d30
ENCODING 11568
SWIDTH 362 0
DWIDTH 16 0
BBX 16 16 0 -2
BITMAP
2184
6186
618C
600C
0003
6330
6320
7F20
6320
6320
7F20
6320
6320
FF21
E33F
031F
ENDCHAR
STARTCHAR 2d31
ENCODING 11569
SWIDTH 362 0
DWIDTH 16 0
BBX 16 16 0 -2
BITMAP
2184
6186
618C
600C
188C
10CC
3C84
3087
1103
17FE
3886
F04C
1038
1078
70CF
3703
ENDCHAR
STARTCHAR 2d32
ENCODING 11570
SWIDTH 362 0
DWIDTH 16 0
BBX 16 16 0 -2
BITMAP
0180
7186
6184
7FFC
0000
7E7E
4646
4646
7E46
4646
7E46
4046
445E
464C
7B40
6140
ENDCHAR
STARTCHAR 2d33
ENCODING 11571
SWIDTH 362 0
DWIDTH 16 0
BBX 16 16 0 -2
BITMAP
0180
318C
218C
3FFC
2000
1FF8
1018
1018
1FF8
1018
1FF8
1018
0830
0C20
0C63
0000
ENDCHAR
STARTCHAR 2d34
ENCODING 11572
SWIDTH 362 0
DWIDTH 16 0
BBX 16 16 0 -2
BITMAP
0180
7186
6184
7FFC
0002
7FFF
6180
6084
7FFE
6080
6080
6FFC
6080
4080
C0C6
8000
ENDCHAR
STARTCHAR 2d35
ENCODING 11573
SWIDTH 362 0
DWIDTH 16 0
BBX 16 16 0 -2
BITMAP
0180
7186
6184
7FFC
0C20
1FF0
1060
3FFC
218C
218C
3FFC
23C0
06C1
0CC3
30FF
E07E
ENDCHAR
STARTCHAR 2d36
ENCODING 11574
SWIDTH 362 0
DWIDTH 16 0
BBX 16 16 0 -2
BITMAP
0180
7186
6184
7FFC
1004
1980
30CE
30C0
7080
F080
BFFC
3080
3080
3080
3FFE
3000
ENDCHAR
STARTCHAR 2d37
ENCODING 11575
SWIDTH 362 0
DWIDTH 16 0
BBX 16 16 0 -2
BITMAP
3018
3010
3410
FFFF
B410
B410
B410
B5FF
B400
B410
B4D8
BCC2
32C3
32C5
36FC
307C
ENDCHAR
STARTCHAR 2d38
ENCODING 11576
SWIDTH 362 0
DWIDTH 16 0
BBX 16 16 0 -2
BITMAP
3082
30FF
3482
FE82
B4FE
B400
B583
B583
B5B3
B59B
B58B
BD9F
31F3
3123
331F
3206
ENDCHAR
STARTCHAR 2d39
ENCODING 11577
SWIDTH 362 0
DWIDTH 16 0
BBX 16 16 0 -2
BITMAP
3002
31FF
35EB
FFEB
B5EB
B5CF
B583
B583
B5FF
B5EB
B5EB
BDEB
3183
3183
319F
3106
ENDCHAR
STARTCHAR 2d3a
ENCODING 11578
SWIDTH 362 0
DWIDTH 16 0
BBX 16 16 0 -2
BITMAP
180E
18F0
FE80
18FF
3E84
F884
1984
7104
3204
0180
7FFC
6184
6184
6184
619C
0100
ENDCHAR
STARTCHAR 2d3b
ENCODING 11579
SWIDTH 362 0
DWIDTH 16 0
BBX 16 16 0 -2
BITMAP
0180
4083
7FFF
604C
6044
7FFF
6040
6646
634C
6150
60E0
47D0
7C4C
D047
83C3
8080
ENDCHAR
STARTCHAR 2d3c
ENCODING 11580
SWIDTH 362 0
DWIDTH 16 0
BBX 16 16 0 -2
BITMAP
0180
4083
7FFF
6600
7FFE
6600
6700
63FE
6806
6CC6
6FFE
4846
4FFE
C040
8040
8040
ENDCHAR
STARTCHAR 2d3d
ENCODING 11581
SWIDTH 362 0
DWIDTH 16 0
BBX 16 16 0 -2
BITMAP
0180
4083
7FFF
6060
60C3
64CC
664C
664C
6E4E
6BF2
71E0
41B0
4118
C20C
8C07
B803
ENDCHAR
STARTCHAR 2d3e
ENCODING 11582
SWIDTH 362 0
DWIDTH 16 0
BBX 16 16 0 -2
BITMAP
0180
4083
7FFF
6006
7FFE
7866
7846
7FFE
78C6
79F6
7B5E
5E4E
5846
D846
9FFE
9802
ENDCHAR
STARTCHAR 2d3f
ENCODING 11583
SWIDTH 362 0
DWIDTH 16 0
BBX 16 16 0 -2
BITMAP
0180
4083
7FFF
6060
68C6
6CC6
6846
6FFE
6840
7FFF
7843
5842
5FFE
C840
8040
8040
ENDCHAR
STARTCHAR 2d40
ENCODING 11584
SWIDTH 362 0
DWIDTH 16 0
BBX 16 16 0 -2
BITMAP
0180
4083
7FFF
600C
67FE
6404
6404
67FC
6180
6300
6FFE
4806
4806
C806
8C06
8C06
ENDCHAR
STARTCHAR 2d41
ENCODING 11585
SWIDTH 362 0
DWIDTH 16 0
BBX 16 16 0 -2
BITMAP
0180
4083
7FFF
6198
7D18
7918
7918
7F7F
6118
6118
7F18
5918
5918
D118
B11A
A100
ENDCHAR
STARTCHAR 2d42
ENCODING 11586
SWIDTH 362 0
DWIDTH 16 0
BBX 16 16 0 -2
BITMAP
0180
4083
7FFF
6308
660E
7FF6
6B10
621E
6D9F
7FF8
670C
4F18
58E0
C0F8
831F
BC07
ENDCHAR
STARTCHAR 2d43
ENCODING 11587
SWIDTH 362 0
DWIDTH 16 0
BBX 16 16 0 -2
BITMAP
0860
FC64
08C2
09FF
49E1
4880
C0C0
CCFF
FD90
0F10
0C33
0C30
0C2C
0C66
F8C3
3301
ENDCHAR
STARTCHAR 2d44
ENCODING 11588
SWIDTH 362 0
DWIDTH 16 0
BBX 16 16 0 -2
BITMAP
0830
FC64
08C2
09FF
49ED
484C
C0CF
CDE0
FC66
0DC6
0CC4
0DEC
0F38
0C3C
F8C7
3383
ENDCHAR
STARTCHAR 2d45
ENCODING 11589
SWIDTH 362 0
DWIDTH 16 0
BBX 16 16 0 -2
BITMAP
0860
FC4C
08FE
0888
491B
49B3
C193
CDFF
FD93
0D93
0DFF
0D83
0D03
0D03
FB1F
3606
ENDCHAR
STARTCHAR 2d46
ENCODING 11590
SWIDTH 362 0
DWIDTH 16 0
BBX 16 16 0 -2
BITMAP
1018
1412
FDFE
1010
FDFF
F06C
30C7
330B
3FFC
000C
3FF8
3FFC
2004
000C
00FC
0018
ENDCHAR
STARTCHAR 2d47
ENCODING 11591
SWIDTH 362 0
DWIDTH 16 0
BBX 16 16 0 -2
BITMAP
1886
18CC
304A
21FF
4C32
0832
19FE
3330
3333
7373
9073
10F3
11B3
133E
1630
1030
ENDCHAR
STARTCHAR 2d48
ENCODING 11592
SWIDTH 362 0
DWIDTH 16 0
BBX 16 16 0 -2
BITMAP
1830
1830
3020
27FF
4C20
1924
33A6
32EB
7471
F070
B070
3048
30CC
3186
3303
3601
ENDCHAR
STARTCHAR 2d49
ENCODING 11593
SWIDTH 362 0
DWIDTH 16 0
BBX 16 16 0 -2
BITMAP
180E
1BF0
3003
2333
4DB6
0884
18C4
30C4
33FF
70CC
918C
1398
1078
106E
10C3
1701
ENDCHAR
STARTCHAR 2d4a
ENCODING 11594
SWIDTH 362 0
DWIDTH 16 0
BBX 16 16 0 -2
BITMAP
181E
19F0
3032
23FF
4C7C
08F6
19B3
3331
303C
70CC
904F
10C7
1083
1183
133E
160C
ENDCHAR
STARTCHAR 2d4b
ENCODING 11595
SWIDTH 362 0
DWIDTH 16 0
BBX 16 16 0 -2
BITMAP
3480
37FF
6308
4308
DD88
9188
3188
21BF
6388
A788
2D88
2188
2188
2188
277F
2200
ENDCHAR
STARTCHAR 2d4c
ENCODING 11596
SWIDTH 362 0
DWIDTH 16 0
BBX 16 16 0 -2
BITMAP
0004
7FFE
0000
3FFC
2664
2664
2664
2664
FFFF
0100
0980
4CC6
4803
CC1B
8FF1
07F0
ENDCHAR
STARTCHAR 2d4d
ENCODING 11597
SWIDTH 362 0
DWIDTH 16 0
BBX 16 16 0 -2
BITMAP
0C00
7FFF
0840
1860
3064
37FE
5060
9060
1062
1000
0980
4CC4
4802
CC1B
8FF1
07F0
ENDCHAR
STARTCHAR 2d4e
ENCODING 11598
SWIDTH 362 0
DWIDTH 16 0
BBX 16 16 0 -2
BITMAP
0004
7FFE
6644
6644
6FF4
6644
6FF4
6644
664C
6008
0980
4CC4
4802
CC1B
8FF1
07F0
ENDCHAR
STARTCHAR 2d4f
ENCODING 11599
SWIDTH 362 0
DWIDTH 16 0
BBX 16 16 0 -2
BITMAP
3020
3133
33FF
3232
7830
FC30
F033
B030
3070
3078
30FC
31B6
3137
3233
3430
3030
ENDCHAR
STARTCHAR 2d50
ENCODING 11600
SWIDTH 362 0
DWIDTH 16 0
BBX 16 16 0 -2
BITMAP
300E
3006
3007
3006
7806
FC00
F186
B183
3385
32CC
304C
3038
3038
307C
30C7
3703
ENDCHAR
STARTCHAR 2d51
ENCODING 11601
SWIDTH 362 0
DWIDTH 16 0
BBX 16 16 0 -2
BITMAP
3006
3006
3006
31FE
7900
FD01
F103
B1FF
30FE
3030
3098
30C2
3283
3685
34FC
307C
ENDCHAR
STARTCHAR 2d52
ENCODING 11602
SWIDTH 362 0
DWIDTH 16 0
BBX 16 16 0 -2
BITMAP
3000
33FF
3030
3032
79FE
FC30
F033
B18C
31C6
3184
33FF
3184
3184
3104
3304
3604
ENDCHAR
STARTCHAR 2d53
ENCODING 11603
SWIDTH 362 0
DWIDTH 16 0
BBX 16 16 0 -2
BITMAP
3030
3133
31B6
30BC
7B33
FF33
F333
B37B
33FF
33B7
3333
3333
3333
3333
3337
3306
ENDCHAR
STARTCHAR 2d54
ENCODING 11604
SWIDTH 362 0
DWIDTH 16 0
BBX 16 16 0 -2
BITMAP
3002
31FE
3020
3060
7BFF
FC48
F0CC
B086
3103
37FF
3186
3186
3186
3186
31FE
3104
ENDCHAR
STARTCHAR 2d55
ENCODING 11605
SWIDTH 362 0
DWIDTH 16 0
BBX 16 16 0 -2
BITMAP
3030
3030
3030
33FF
7830
FC30
F030
B1FE
3000
3030
30D8
3082
3283
3685
34FC
3078
ENDCHAR
STARTCHAR 2d56
ENCODING 11606
SWIDTH 362 0
DWIDTH 16 0
BBX 16 16 0 -2
BITMAP
3002
33FF
3030
31FF
7933
FD32
F1FE
B132
31FE
3032
31B0
30E0
3070
30DC
318F
3703
ENDCHAR
STARTCHAR 2d57
ENCODING 11607
SWIDTH 362 0
DWIDTH 16 0
BBX 16 16 0 -2
BITMAP
3030
3030
33FF
30C0
7986
FFFB
F100
B1FE
3186
31B6
318E
31FE
31E6
3106
331E
360C
ENDCHAR
STARTCHAR 2d58
ENCODING 11608
SWIDTH 362 0
DWIDTH 16 0
BBX 16 16 0 -2
BITMAP
3106
31FE
3186
3186
7986
FD86
F1FE
B060
3042
33FF
3303
3303
3303
3303
33FF
3302
ENDCHAR
STARTCHAR 2d59
ENCODING 11609
SWIDTH 362 0
DWIDTH 16 0
BBX 16 16 0 -2
BITMAP
3202
33FF
3302
3302
7B02
FF32
F070
B0D8
318C
3387
378F
318C
318C
310C
330C
360C
ENDCHAR
STARTCHAR 2d5a
ENCODING 11610
SWIDTH 362 0
DWIDTH 16 0
BBX 16 16 0 -2
BITMAP
3002
33FF
337B
337B
7B5B
FF8F
F303
B30B
337F
334B
334B
334B
3303
3303
331F
3306
ENDCHAR
STARTCHAR 2d5b
ENCODING 11611
SWIDTH 362 0
DWIDTH 16 0
BBX 16 16 0 -2
BITMAP
75CC
678C
6788
6788
7788
FFFF
E588
E188
6788
6788
6788
6788
6788
6588
658E
6980
ENDCHAR
STARTCHAR 2d5c
ENCODING 11612
SWIDTH 362 0
DWIDTH 16 0
BBX 16 16 0 -2
BITMAP
3030
3030
31F7
31B6
79B6
FDB6
F37D
B279
3030
3032
31FE
3030
3030
3030
3033
3000
ENDCHAR
STARTCHAR 2d5d
ENCODING 11613
SWIDTH 362 0
DWIDTH 16 0
BBX 16 16 0 -2
BITMAP
0034
0032
0032
FFFF
0130
7FB2
3233
2732
7D96
4C14
3F1C
0C18
0F9D
782D
00C7
0303
ENDCHAR
STARTCHAR 2d5e
ENCODING 11614
SWIDTH 362 0
DWIDTH 16 0
BBX 16 16 0 -2
BITMAP
7618
661B
661B
7618
5D7F
9998
001B
001B
7F1A
001E
000E
000C
001C
0337
FC63
40C1
ENDCHAR
STARTCHAR 2d5f
ENCODING 11615
SWIDTH 362 0
DWIDTH 16 0
BBX 16 16 0 -2
BITMAP
0606
7E7E
4646
4646
7E7E
0020
0738
0618
FFFF
0204
030E
0198
00E0
01E1
0E1F
F00F
ENDCHAR
STARTCHAR 2d60
ENCODING 11616
SWIDTH 362 0
DWIDTH 16 0
BBX 16 16 0 -2
BITMAP
00FE
7F00
6006
6003
6002
7FFE
6060
6042
7FFE
6040
6FFE
4004
4FFE
CC06
8C06
8C04
ENDCHAR
STARTCHAR 2d61
ENCODING 11617
SWIDTH 362 0
DWIDTH 16 0
BBX 16 16 0 -2
BITMAP
00FE
7F00
6006
6003
6002
6000
6002
6700
6404
6FFE
6F42
4044
4FFE
C040
80C3
8000
ENDCHAR
STARTCHAR 2d62
ENCODING 11618
SWIDTH 362 0
DWIDTH 16 0
BBX 16 16 0 -2
BITMAP
0200
7F7F
0608
0C08
0988
E988
7F08
6A08
7E08
6908
6D08
4D88
C988
8888
3878
1818
ENDCHAR
STARTCHAR 2d63
ENCODING 11619
SWIDTH 362 0
DWIDTH 16 0
BBX 16 16 0 -2
BITMAP
00C0
0CFF
FDB2
0330
006C
FCC7
0303
00F8
3FF8
0184
7FFE
0183
FFFF
0180
0780
0300
ENDCHAR
STARTCHAR 2d64
ENCODING 11620
SWIDTH 362 0
DWIDTH 16 0
BBX 16 16 0 -2
BITMAP
0030
0070
1082
FFF6
1998
318C
67E7
C783
0108
3FFC
3008
3008
3078
3012
3FFE
1FFE
ENDCHAR
STARTCHAR 2d65
ENCODING 11621
SWIDTH 362 0
DWIDTH 16 0
BBX 16 16 0 -2
BITMAP
3020
3133
33FF
3232
F9B0
31B2
31FE
3930
7230
F033
33FF
3030
3030
3030
F030
6030
ENDCHAR
STARTCHAR 2d66
ENCODING 11622
SWIDTH 362 0
DWIDTH 16 0
BBX 16 16 0 -2
BITMAP
3006
3006
3006
3006
F806
3000
3003
3800
7030
F1B3
3133
3132
3132
3132
F332
6102
ENDCHAR
STARTCHAR 2d67
ENCODING 11623
SWIDTH 362 0
DWIDTH 16 0
BBX 16 16 0 -2
BITMAP
3006
31FE
3006
3006
F9FE
3101
3103
39FF
70FE
F030
3098
30C2
3283
3685
F4FC
607C
ENDCHAR
STARTCHAR 2d68
ENCODING 11624
SWIDTH 362 0
DWIDTH 16 0
BBX 16 16 0 -2
BITMAP
3006
3030
3010
31FF
F810
3010
3030
3830
7030
F033
31B6
30FC
3068
30CC
F187
6703
ENDCHAR
STARTCHAR 2d69
ENCODING 11625
SWIDTH 362 0
DWIDTH 16 0
BBX 16 16 0 -2
BITMAP
3303
3303
3333
3333
FBFF
3333
33B7
3BB7
73FF
F3FF
3333
3337
331F
3303
F3FF
6202
ENDCHAR
STARTCHAR 2d6a
ENCODING 11626
SWIDTH 362 0
DWIDTH 16 0
BBX 16 16 0 -2
BITMAP
3060
3023
33FF
337B
FB4F
3387
3303
3B1F
7306
F002
31FF
3102
3102
3102
F1FE
6102
ENDCHAR
STARTCHAR 2d6b
ENCODING 11627
SWIDTH 362 0
DWIDTH 16 0
BBX 16 16 0 -2
BITMAP
301E
31F0
3030
33FF
F878
30FE
31B3
3B31
7230
F0CC
308C
308C
318C
330D
F60F
6C07
ENDCHAR
STARTCHAR 2d6c
ENCODING 11628
SWIDTH 362 0
DWIDTH 16 0
BBX 16 16 0 -2
BITMAP
3060
30D0
31B8
3264
F8CE
31D8
3070
3866
71CF
F3F3
3131
31B4
3332
3233
F5F1
6060
ENDCHAR
STARTCHAR 2d6d
ENCODING 11629
SWIDTH 362 0
DWIDTH 16 0
BBX 16 16 0 -2
BITMAP
3180
31FF
2306
2306
FA7E
265E
265E
325E
725E
E256
2206
2206
2206
2206
E21E
620C
ENDCHAR
STARTCHAR 2d6e
ENCODING 11630
SWIDTH 362 0
DWIDTH 16 0
BBX 16 16 0 -2
BITMAP
3030
3030
33FF
3030
F832
31FF
3006
39FE
71B6
F1B6
33FF
3136
3336
3166
F0DC
6188
ENDCHAR
STARTCHAR 2d6f
ENCODING 11631
SWIDTH 362 0
DWIDTH 16 0
BBX 16 16 0 -2
BITMAP
0118
FF10
D810
D81F
D810
FF10
C336
C347
C346
FF24
D82C
D818
D818
D82C
FFC7
0183
ENDCHAR
STARTCHAR 2d70
ENCODING 11632
SWIDTH 362 0
DWIDTH 16 0
BBX 16 16 0 -2
BITMAP
1C18
1810
1910
FF1F
1810
1810
1836
7F47
0046
7F24
432C
4318
4318
432C
7F47
4183
ENDCHAR
STARTCHAR 2d71
ENCODING 11633
SWIDTH 362 0
DWIDTH 16 0
BBX 16 16 0 -2
BITMAP
3730
3630
2620
2663
7F7F
2666
26E6
26A4
2634
FF9C
0018
3218
231C
6326
C147
8183
ENDCHAR
STARTCHAR 2d72
ENCODING 11634
SWIDTH 362 0
DWIDTH 16 0
BBX 16 16 0 -2
BITMAP
1818
DB10
DA10
DA1F
FE10
1810
1A36
1847
1846
1824
7E2C
1818
1818
182C
FE47
C183
ENDCHAR
ENDFONT
